<?xml version="1.0" standalone="no"?>
<!DOCTYPE svg PUBLIC "-//W3C//DTD SVG 1.1//EN" "http://www.w3.org/Graphics/SVG/1.1/DTD/svg11.dtd" >
<svg xmlns="http://www.w3.org/2000/svg" xmlns:xlink="http://www.w3.org/1999/xlink" version="1.1">
<metadata>
Created by FontForge 20150318 at Mon Sep 28 16:35:05 2015
 By uniteet7
Copyright (c) 2002, 2005 Parachute :, www.parachute.gr.  All rights reserved.
</metadata>
<defs>
<font id="PFDinTextProBold" horiz-adv-x="1818" >
  <font-face 
    font-family="PFDinTextProBold"
    font-weight="700"
    font-stretch="normal"
    units-per-em="1000"
    panose-1="2 0 9 6 3 0 0 2 0 4"
    ascent="750"
    descent="-250"
    x-height="495"
    cap-height="696"
    bbox="-433 -313 1760 953"
    underline-thickness="90"
    underline-position="-25"
    unicode-range="U+0020-FB05"
  />
<missing-glyph horiz-adv-x="460" 
d="M0 0v700h460v-700h-460zM138 95h185l-93 167zM230 440l93 165h-187zM95 504v-305l83 152zM282 349l83 -150v304z" />
    <glyph glyph-name="fj" unicode="fj" horiz-adv-x="574" 
d="M20 494h56v60q0 93 60 139t157 46q127 0 196 -73l-79 -95q-44 44 -113 44q-46 0 -62.5 -21.5t-16.5 -46.5v-53h285v-546q0 -69 -42 -108.5t-122 -39.5h-60v124h26q33 0 44 14t11 38v408h-142v-384h-142v384h-56v110z" />
    <glyph glyph-name="ffj" unicode="ffj" horiz-adv-x="858" 
d="M216 384v-384h-142v384h-56v110h56v40q0 93 60 139t157 46q75 0 130 -26q58 46 156 46q127 0 196 -73l-79 -95q-44 44 -113 44q-46 0 -62.5 -21.5t-16.5 -46.5v-53h285v-546q0 -69 -42 -108.5t-122 -39.5h-60v124h26q33 0 44 14t11 38v408h-142v-384h-142v384h-144z
M216 494h144v60q0 19 1 28q-31 13 -66 13q-46 0 -62.5 -21.5t-16.5 -46.5v-33z" />
    <glyph glyph-name="ff" unicode="ff" horiz-adv-x="622" 
d="M296 732q65 0 115 -19q41 33 105 33h96v-120h-68q-39 0 -39 -41v-90h97v-111h-97v-384h-142v384h-142v-384h-142v384h-56v111h56v42q0 95 59 145t158 50zM221 495h142v102q-30 11 -63 11q-79 0 -79 -68v-45z" />
    <glyph glyph-name="fi" unicode="fi" horiz-adv-x="574" 
d="M20 494h56v60q0 93 60 139t157 46q127 0 196 -73l-79 -95q-44 44 -113 44q-46 0 -62.5 -21.5t-16.5 -46.5v-53h285v-494h-143v384h-142v-384h-142v384h-56v110z" />
    <glyph glyph-name="fl" unicode="fl" horiz-adv-x="593" 
d="M571 0h-51q-153 0 -153 147v451q-36 11 -70 11q-46 0 -62.5 -21.5t-16.5 -46.5v-47h98v-110h-98v-384h-142v384h-56v110h56v54q0 94 56 139.5t151 45.5q108 0 227 -41v-518q0 -30 11 -40t34 -10h16v-124z" />
    <glyph glyph-name="ffi" unicode="ffi" horiz-adv-x="849" 
d="M218 384v-384h-142v384h-56v110h56v40q0 93 60 139t157 46q75 0 130 -26q58 46 156 46q127 0 196 -73l-79 -95q-44 44 -113 44q-46 0 -62.5 -21.5t-16.5 -46.5v-53h285v-494h-143v384h-142v-384h-142v384h-144zM218 494h144v60q0 19 1 28q-31 13 -66 13
q-46 0 -62.5 -21.5t-16.5 -46.5v-33z" />
    <glyph glyph-name="ffl" unicode="ffl" horiz-adv-x="849" 
d="M218 494h144q0 79 1 88q-31 13 -66 13q-46 0 -62.5 -21.5t-16.5 -46.5v-33zM579 739q101 -3 213 -41v-524q0 -30 11 -40t34 -10h16v-124h-51q-153 0 -153 147v457q-36 11 -66 11q-46 0 -62.5 -21.5t-16.5 -46.5v-53h91v-110h-91v-384h-142v384h-144v-384h-142v384h-56
v110h56v40q0 93 60 139t157 46q75 0 130 -26q58 46 156 46z" />
    <glyph glyph-name="ft" unicode="ft" horiz-adv-x="609" 
d="M574 384h-73v-209q0 -30 10 -40.5t33 -10.5h31v-124h-77q-62 0 -101 35.5t-39 97.5v251h-140v-384h-142v384h-56v111h56v86q0 71 43 108t110 37h86v-120h-58q-39 0 -39 -41v-70h142v137h139v-136h75v-112z" />
    <glyph glyph-name=".notdef" horiz-adv-x="460" 
d="M0 0v700h460v-700h-460zM138 95h185l-93 167zM230 440l93 165h-187zM95 504v-305l83 152zM282 349l83 -150v304z" />
    <glyph glyph-name=".null" horiz-adv-x="0" 
 />
    <glyph glyph-name="nonmarkingreturn" horiz-adv-x="333" 
 />
    <glyph glyph-name="space" unicode=" " horiz-adv-x="280" 
 />
    <glyph glyph-name="exclam" unicode="!" horiz-adv-x="294" 
d="M219 696l-10 -505h-123l-11 505h144zM221 0h-147v128h147v-128z" />
    <glyph glyph-name="quotedbl" unicode="&#x22;" horiz-adv-x="409" 
d="M347 469h-124v227h124v-227zM177 469h-123v227h123v-227z" />
    <glyph glyph-name="numbersign" unicode="#" horiz-adv-x="592" 
d="M462 396l-15 -95h92v-98h-106l-29 -203h-121l30 203h-83l-30 -203h-122l30 203h-85v98h101l14 95h-87v99h102l30 201h118l-29 -201h85l30 201h118l-29 -201h91v-99h-105zM258 396l-15 -95h85l15 95h-85z" />
    <glyph glyph-name="dollar" unicode="$" horiz-adv-x="550" 
d="M247 -106v103q-125 8 -230 104l86 110q77 -63 144 -70v138q-92 34 -146 81.5t-54 128.5q0 86 54.5 143.5t145.5 66.5v67h55v-66q110 -4 211 -74l-76 -127q-81 53 -135 58v-131q116 -39 173.5 -89.5t57.5 -130.5q0 -95 -64.5 -150t-166.5 -60v-102h-55zM360 194
q0 25 -14 40.5t-44 27.5v-120q58 10 58 52zM202 501q0 -29 45 -53v106q-45 -12 -45 -53z" />
    <glyph glyph-name="percent" unicode="%" horiz-adv-x="925" 
d="M850 125q0 -58 -44.5 -93t-105.5 -35q-60 0 -104 35t-44 93v166q0 59 44 94t104 35q61 0 105.5 -35t44.5 -94v-166zM739 126v165q0 37 -39 37q-38 0 -38 -37v-165q0 -36 38 -36q39 0 39 36zM372 404q0 -58 -44.5 -93t-105.5 -35q-60 0 -104 35t-44 93v166q0 59 44 94
t104 35q61 0 105.5 -35t44.5 -94v-166zM261 405v165q0 37 -39 37q-38 0 -38 -37v-165q0 -36 38 -36q39 0 39 36zM734 713l-426 -730h-117l425 730h118z" />
    <glyph glyph-name="ampersand" unicode="&#x26;" horiz-adv-x="662" 
d="M481 0l-43 57q-76 -63 -165 -63q-102 0 -155 54t-53 134q0 121 117 206l-13 16q-46 57 -46 123q0 81 48 127.5t143 46.5q115 0 195 -69l-77 -106q-58 49 -119 49q-24 0 -40.5 -13.5t-16.5 -33.5q0 -25 25 -58l158 -208q17 38 25 95l126 -33q-19 -103 -65 -173l121 -151
h-165zM361 155l-104 134q-61 -46 -61 -102q0 -29 20.5 -47.5t58.5 -18.5q43 0 86 34z" />
    <glyph glyph-name="quotesingle" unicode="'" horiz-adv-x="260" 
d="M191 469h-123v227h123v-227z" />
    <glyph glyph-name="parenleft" unicode="(" horiz-adv-x="373" 
d="M352 -79l-83 -63q-93 100 -149.5 215t-56.5 232q0 223 202 443l86 -55q-68 -89 -102.5 -190.5t-34.5 -192.5q0 -96 36 -198.5t102 -190.5z" />
    <glyph glyph-name="parenright" unicode=")" horiz-adv-x="373" 
d="M341 305q0 -117 -56.5 -232t-148.5 -215l-84 63q67 88 102.5 190t35.5 199q0 92 -34.5 193t-102.5 190l86 55q202 -218 202 -443z" />
    <glyph glyph-name="asterisk" unicode="*" horiz-adv-x="464" 
d="M306 493l80 -89l-91 -65l-59 103l-63 -103l-90 65l82 89l-114 26l32 102l111 -46l-13 119h113l-14 -119l110 46l32 -102z" />
    <glyph glyph-name="plus" unicode="+" horiz-adv-x="550" 
d="M531 240h-194v-186h-124v186h-194v116h194v183h124v-183h194v-116z" />
    <glyph glyph-name="comma" unicode="," horiz-adv-x="299" 
d="M136 -151h-73l38 150h-36v166h169v-158z" />
    <glyph glyph-name="hyphen" unicode="-" horiz-adv-x="440" 
d="M393 192h-346v131h346v-131z" />
    <glyph glyph-name="period" unicode="." horiz-adv-x="297" 
d="M233 0h-169v165h169v-165z" />
    <glyph glyph-name="slash" unicode="/" horiz-adv-x="368" 
d="M357 725l-254 -767h-119l253 767h120z" />
    <glyph glyph-name="zero" unicode="0" horiz-adv-x="550" 
d="M506 204q0 -96 -65.5 -152.5t-156.5 -56.5q-90 0 -155 57t-65 152v287q0 96 65 153t155 57q91 0 156.5 -57t65.5 -153v-287zM358 205v286q0 38 -20 57.5t-54 19.5t-53.5 -19.5t-19.5 -57.5v-286q0 -38 19.5 -57.5t53.5 -19.5t54 19.5t20 57.5z" />
    <glyph glyph-name="one" unicode="1" horiz-adv-x="550" 
d="M400 0h-147v531l-104 -72v154l120 83h131v-696z" />
    <glyph glyph-name="two" unicode="2" horiz-adv-x="550" 
d="M198 474l-144 24q10 92 72.5 147.5t147.5 55.5q100 0 162 -51t62 -147q0 -82 -49 -139l-198 -226h246v-138h-445v123l278 319q19 22 19 50q0 29 -19.5 50t-52.5 21q-68 0 -79 -89z" />
    <glyph glyph-name="three" unicode="3" horiz-adv-x="550" 
d="M45 178l142 20q12 -65 84 -65q34 0 57.5 22t23.5 59q0 40 -23.5 63.5t-69.5 23.5h-60v115h62q45 0 66.5 21.5t21.5 53.5q0 31 -23 51.5t-55 20.5q-26 0 -48 -17.5t-28 -55.5l-141 25q17 87 80 136.5t143 49.5q112 0 170.5 -57.5t58.5 -143.5q0 -38 -26 -80.5t-67 -60.5
q47 -20 72 -62t25 -85q0 -96 -65 -156.5t-170 -60.5q-81 0 -146 45.5t-84 137.5z" />
    <glyph glyph-name="four" unicode="4" horiz-adv-x="550" 
d="M527 97h-56v-97h-147v97h-296v115l241 484h164l-235 -466h126v182h147v-182h56v-133z" />
    <glyph glyph-name="five" unicode="5" horiz-adv-x="550" 
d="M59 177l145 27q10 -71 77 -71q79 0 79 117q0 107 -79 107q-47 0 -73 -58h-134v397h414v-135h-273v-108q40 34 105 34q100 0 144 -58t48 -163q0 -128 -57.5 -199.5t-169.5 -71.5q-38 0 -71.5 8t-66.5 27.5t-56 56.5t-32 90z" />
    <glyph glyph-name="six" unicode="6" horiz-adv-x="550" 
d="M509 225q0 -114 -68.5 -172t-163.5 -58q-87 0 -152 59.5t-65 160.5q0 66 28 119l193 362h165l-145 -273l1 -2q94 10 150.5 -46.5t56.5 -149.5zM358 217q0 42 -21.5 63.5t-54.5 21.5q-32 0 -53.5 -21.5t-21.5 -63.5q0 -84 75 -84q29 0 52.5 21.5t23.5 62.5z" />
    <glyph glyph-name="seven" unicode="7" horiz-adv-x="550" 
d="M496 573l-250 -573h-155l235 558h-126v-94h-147v232h443v-123z" />
    <glyph glyph-name="eight" unicode="8" horiz-adv-x="550" 
d="M427 363v-4q44 -16 68.5 -59.5t24.5 -90.5q0 -94 -68.5 -154t-166.5 -60t-166.5 60t-68.5 154q0 47 23.5 89.5t68.5 59.5v5q-38 16 -58 53.5t-20 79.5q0 88 63 146.5t158 58.5q108 0 165 -56.5t57 -148.5q0 -42 -20 -78t-60 -55zM361 492q0 34 -20.5 56t-55.5 22t-55 -21
t-20 -57q0 -33 21.5 -51.5t53.5 -18.5q31 0 53.5 19.5t22.5 50.5zM373 214q0 34 -26 57t-62 23t-62 -23.5t-26 -56.5q0 -35 24.5 -60t63.5 -25t63.5 24.5t24.5 60.5z" />
    <glyph glyph-name="nine" unicode="9" horiz-adv-x="550" 
d="M60 471q0 114 68 172t163 58q88 0 153 -59.5t65 -160.5q0 -67 -29 -119l-193 -362h-165l145 273l-1 2q-94 -10 -150 46.5t-56 149.5zM208 479q0 -42 21 -63.5t54 -21.5q32 0 54 21.5t22 63.5q0 84 -76 84q-29 0 -52 -21.5t-23 -62.5z" />
    <glyph glyph-name="colon" unicode=":" horiz-adv-x="303" 
d="M236 0h-169v165h169v-165zM236 268h-169v165h169v-165z" />
    <glyph glyph-name="semicolon" unicode=";" horiz-adv-x="303" 
d="M236 268h-169v165h169v-165zM138 -151h-73l38 150h-36v166h169v-158z" />
    <glyph glyph-name="less" unicode="&#x3c;" horiz-adv-x="550" 
d="M529 17l-511 225v112l511 223v-131l-353 -149l353 -149v-131z" />
    <glyph glyph-name="equal" unicode="=" horiz-adv-x="550" 
d="M532 357h-514v111h514v-111zM532 128h-514v111h514v-111z" />
    <glyph glyph-name="greater" unicode="&#x3e;" horiz-adv-x="550" 
d="M530 242l-511 -225v131l353 149l-353 149v131l511 -223v-112z" />
    <glyph glyph-name="question" unicode="?" horiz-adv-x="522" 
d="M179 474l-146 17q9 96 76.5 153t154.5 57q101 0 160.5 -55.5t59.5 -142.5q0 -42 -23.5 -81.5t-51 -65t-51 -63t-23.5 -77.5v-22h-147v27q0 55 19 95t72 109q43 53 43 79t-20 42.5t-47 16.5q-72 0 -76 -89zM335 0h-147v128h147v-128z" />
    <glyph glyph-name="at" unicode="@" horiz-adv-x="920" 
d="M627 401l-1 -143q0 -15 9.5 -28.5t30.5 -13.5q26 0 44 13.5t26.5 38.5t12 52t3.5 63q0 118 -80 190t-200 72q-134 0 -221.5 -91.5t-87.5 -223.5q0 -134 91 -218.5t230 -84.5q119 0 233 52l32 -87q-140 -55 -260 -55q-186 0 -306 106t-120 289q0 171 117.5 285t293.5 114
q168 0 272.5 -95t104.5 -251q0 -51 -10 -96t-32 -83.5t-62 -61t-94 -22.5q-32 0 -68 17t-48 48h-4q-14 -25 -45 -44t-68 -19q-63 0 -104 31.5t-41 93.5q0 55 39.5 91t108.5 36h92v13q0 51 -69 51q-33 0 -51 -6.5t-41 -25.5l-56 75q66 58 161 58q34 0 62.5 -7t53.5 -22.5
t38.5 -43.5t13.5 -67zM515 277v13h-77q-50 0 -50 -31q0 -7 3.5 -14.5t17 -15.5t35.5 -8q30 0 50.5 14t20.5 42z" />
    <glyph glyph-name="A" unicode="A" horiz-adv-x="660" 
d="M659 0h-162l-52 142h-233l-52 -142h-162l270 696h121zM397 272l-26 80l-41 138h-4l-40 -136l-26 -82h137z" />
    <glyph glyph-name="B" unicode="B" horiz-adv-x="637" 
d="M604 207q0 -91 -63.5 -149t-153.5 -58h-317v696h293q109 0 169.5 -54t60.5 -143q0 -41 -21.5 -78.5t-65.5 -57.5v-4q45 -16 71.5 -61.5t26.5 -90.5zM430 492q0 66 -88 66h-118v-139h118q45 0 66.5 21t21.5 52zM446 214q0 32 -23 55t-68 23h-131v-154h131q46 0 68.5 21.5
t22.5 54.5z" />
    <glyph glyph-name="C" unicode="C" horiz-adv-x="600" 
d="M427 225l146 -56q-26 -82 -94 -128.5t-165 -46.5q-132 0 -200.5 74t-68.5 198v164q0 115 70 193t199 78q97 0 165 -48t94 -129l-146 -52q-9 38 -38.5 61.5t-75.5 23.5q-54 0 -83.5 -33t-29.5 -80v-189q0 -49 29 -83t84 -34q45 0 75.5 24t38.5 63z" />
    <glyph glyph-name="D" unicode="D" horiz-adv-x="657" 
d="M224 557v-419h101q73 0 103 38t30 111v127q0 73 -32 108t-104 35h-98zM70 696h277q175 0 237 -129q27 -55 27 -207q0 -163 -25 -222q-60 -138 -256 -138h-260v696z" />
    <glyph glyph-name="E" unicode="E" horiz-adv-x="585" 
d="M562 0h-492v696h492v-138h-338v-141h288v-133h-288v-146h338v-138z" />
    <glyph glyph-name="F" unicode="F" horiz-adv-x="566" 
d="M562 558h-338v-147h288v-133h-288v-278h-154v696h492v-138z" />
    <glyph glyph-name="G" unicode="G" horiz-adv-x="637" 
d="M318 701q97 0 165 -48t94 -129l-146 -52q-9 38 -38.5 61.5t-75.5 23.5q-54 0 -83.5 -33t-29.5 -80v-189q0 -49 29.5 -83.5t84.5 -34.5q49 0 84.5 35t35.5 82v5h-142v128h294v-139q0 -108 -79 -181t-193 -73q-132 0 -200.5 74t-68.5 198v164q0 115 70 193t199 78z" />
    <glyph glyph-name="H" unicode="H" horiz-adv-x="674" 
d="M604 0h-152v284h-228v-284h-154v696h154v-279h228v279h152v-696z" />
    <glyph glyph-name="I" unicode="I" horiz-adv-x="294" 
d="M227 0h-154v696h154v-696z" />
    <glyph glyph-name="J" unicode="J" horiz-adv-x="511" 
d="M448 225q0 -123 -65 -176.5t-169 -53.5q-144 0 -211 93l103 101q50 -54 99 -54q36 0 63.5 21t27.5 76v464h152v-471z" />
    <glyph glyph-name="K" unicode="K" horiz-adv-x="657" 
d="M677 0h-182l-180 296l-91 -102v-194h-154v696h154v-298l2 -2l106 129l145 171h186l-244 -282z" />
    <glyph glyph-name="L" unicode="L" horiz-adv-x="585" 
d="M562 0h-492v696h154v-558h338v-138z" />
    <glyph glyph-name="M" unicode="M" horiz-adv-x="782" 
d="M721 0h-153v331l-3 1l-63 -141l-47 -98h-118l-49 103l-61 136l-3 -3v-329h-154v696h139l94 -202l90 -209h4l87 209l92 202h145v-696z" />
    <glyph glyph-name="N" unicode="N" horiz-adv-x="710" 
d="M643 0h-137l-177 256l-103 166l-2 -1v-421h-154v696h137l146 -213l134 -209l2 1v421h154v-696z" />
    <glyph glyph-name="O" unicode="O" horiz-adv-x="624" 
d="M310 701q124 0 198.5 -76t74.5 -195v-164q0 -124 -74.5 -198t-198.5 -74q-129 0 -199 78t-70 194v164q0 115 70 193t199 78zM309 557q-54 0 -83.5 -33t-29.5 -80v-189q0 -49 29 -83t84 -34q54 0 85.5 33t31.5 84v189q0 48 -31.5 80.5t-85.5 32.5z" />
    <glyph glyph-name="P" unicode="P" horiz-adv-x="609" 
d="M601 472q0 -94 -70 -156t-171 -62h-136v-254h-154v696h287q111 0 177.5 -60.5t66.5 -163.5zM445 475q0 83 -96 83h-125v-166h129q39 0 65.5 23t26.5 60z" />
    <glyph glyph-name="Q" unicode="Q" horiz-adv-x="637" 
d="M643 69l-84 -95l-81 63q-68 -43 -161 -43q-129 0 -199 78t-70 194v164q0 115 70 193t199 78q124 0 198.5 -76t74.5 -195v-164q0 -73 -28 -132zM316 557q-54 0 -83.5 -33t-29.5 -80v-189q0 -49 29 -83t84 -34q15 0 30 3l-70 55l84 101l72 -58q0 2 0.5 7.5t0.5 8.5v189
q0 48 -31.5 80.5t-85.5 32.5z" />
    <glyph glyph-name="R" unicode="R" horiz-adv-x="652" 
d="M608 0h-174l-110 269h-100v-269h-154v696h308q96 0 160.5 -56t64.5 -153q0 -63 -33 -113.5t-95 -77.5zM443 486q0 73 -87 73h-132v-152h127q43 0 67.5 20.5t24.5 58.5z" />
    <glyph glyph-name="S" unicode="S" horiz-adv-x="594" 
d="M540 637l-71 -123q-74 47 -171 47q-51 0 -71.5 -19.5t-20.5 -45.5q0 -32 28.5 -46t117.5 -28q47 -7 83 -20.5t67 -37t48 -61.5t17 -89q0 -103 -82.5 -161.5t-192.5 -58.5q-175 0 -284 96l89 118q82 -73 203 -73q48 0 76.5 20t28.5 49q0 31 -19 51t-76 25
q-55 5 -96.5 16.5t-80.5 33.5t-59.5 62t-20.5 96q0 103 72.5 158.5t168.5 55.5q148 0 246 -65z" />
    <glyph glyph-name="T" unicode="T" horiz-adv-x="556" 
d="M541 558h-190v-558h-153v558h-190v138h533v-138z" />
    <glyph glyph-name="U" unicode="U" horiz-adv-x="657" 
d="M600 243q0 -110 -78.5 -179t-192.5 -69q-115 0 -193 71.5t-78 185.5v444h153v-433q0 -57 33.5 -91t84.5 -34q52 0 84.5 30t32.5 86v442h154v-453z" />
    <glyph glyph-name="V" unicode="V" horiz-adv-x="607" 
d="M605 696l-240 -696h-125l-241 696h162l89 -282l52 -177h5l49 174l88 285h161z" />
    <glyph glyph-name="W" unicode="W" horiz-adv-x="854" 
d="M853 694l-186 -696h-124l-65 226l-49 190h-3l-50 -193l-64 -223h-125l-186 696h161l49 -206l44 -198h3l53 198l60 206h112l60 -205l53 -199h5l42 198l49 206h161z" />
    <glyph glyph-name="X" unicode="X" horiz-adv-x="629" 
d="M626 0h-175l-139 226l-138 -226h-174l236 356l-223 340h175l124 -209l125 209h175l-223 -340z" />
    <glyph glyph-name="Y" unicode="Y" horiz-adv-x="605" 
d="M603 696l-225 -411v-285h-147v285l-224 411h165l71 -150l60 -135h4l59 134l72 151h165z" />
    <glyph glyph-name="Z" unicode="Z" horiz-adv-x="549" 
d="M520 0h-492v131l306 428h-293v137h479v-127l-305 -428h305v-141z" />
    <glyph glyph-name="bracketleft" unicode="[" horiz-adv-x="314" 
d="M296 -95h-229v794h229v-106h-93v-583h93v-105z" />
    <glyph glyph-name="backslash" unicode="\" horiz-adv-x="368" 
d="M239 -42l-254 767h120l253 -767h-119z" />
    <glyph glyph-name="bracketright" unicode="]" horiz-adv-x="314" 
d="M246 -95h-228v105h92v583h-92v106h228v-794z" />
    <glyph glyph-name="asciicircum" unicode="^" horiz-adv-x="550" 
d="M521 237h-130l-118 300l-119 -302h-130l194 460h112z" />
    <glyph glyph-name="underscore" unicode="_" horiz-adv-x="500" 
d="M500 -160h-500v91h500v-91z" />
    <glyph glyph-name="grave" unicode="`" horiz-adv-x="516" 
d="M338 575l-81 -38l-146 186l134 46z" />
    <glyph glyph-name="a" unicode="a" horiz-adv-x="516" 
d="M468 0h-142v46l-3 1q-44 -52 -122 -52q-76 0 -121 38t-45 114q0 66 48 109.5t131 43.5h112v16q0 60 -83 60q-73 0 -117 -39l-69 97q73 66 201 66q210 0 210 -169v-331zM326 180v16h-94q-60 0 -60 -37q0 -9 4 -18t20.5 -18.5t43.5 -9.5q36 0 61 17t25 50z" />
    <glyph glyph-name="b" unicode="b" horiz-adv-x="533" 
d="M491 258q0 -263 -180 -263q-66 0 -108 46l-2 -2v-39h-143v727h143v-272l2 -1q17 19 49.5 32.5t58.5 13.5q180 0 180 -242zM345 248q0 25 -2 42t-8.5 37t-22 30.5t-40.5 10.5q-23 0 -38.5 -11t-22 -31t-8.5 -37.5t-2 -40.5t2 -40t8 -37.5t21.5 -32t39.5 -11.5q25 0 41 11
t22 31.5t8 37t2 41.5z" />
    <glyph glyph-name="c" unicode="c" horiz-adv-x="463" 
d="M444 70q-84 -76 -187 -76q-99 0 -164 63.5t-65 189.5t68 189.5t169 63.5q104 0 175 -72l-92 -97q-42 41 -83 41q-88 0 -88 -125q0 -65 20 -94t65 -29q43 0 88 42z" />
    <glyph glyph-name="d" unicode="d" horiz-adv-x="533" 
d="M483 0h-143v39l-2 2q-43 -46 -109 -46q-49 0 -84 18t-53.5 43t-28.5 64.5t-12 68.5t-2 69q0 41 8.5 80t27.5 77.5t57 62t91 23.5q66 0 105 -46l2 1v270h143v-726zM340 248q0 23 -2 40.5t-8.5 37.5t-22 31t-38.5 11q-25 0 -41.5 -12t-23 -35.5t-8 -41t-1.5 -44.5
q0 -108 73 -108q24 0 39.5 11t22 32.5t8 37t2.5 40.5z" />
    <glyph glyph-name="e" unicode="e" horiz-adv-x="533" 
d="M489 210h-306q4 -46 25 -66.5t58 -20.5q61 0 112 46l88 -98q-84 -77 -204 -77q-44 0 -82 12t-72 39t-53.5 78.5t-19.5 122.5q0 130 66 192t160 62q114 0 171 -69t57 -186v-35zM335 302q-4 33 -24.5 52t-48.5 19t-48.5 -19.5t-25.5 -51.5h147z" />
    <glyph glyph-name="f" unicode="f" horiz-adv-x="325" 
d="M315 384h-97v-384h-142v384h-56v111h56v86q0 71 43 108t110 37h86v-120h-58q-39 0 -39 -41v-70h97v-111z" />
    <glyph glyph-name="g" unicode="g" horiz-adv-x="533" 
d="M474 495v-482q0 -111 -66.5 -165.5t-165.5 -54.5q-110 0 -184 64l70 99q54 -35 113 -35q39 0 65 21.5t26 58.5v39l-2 1q-17 -20 -47 -33.5t-56 -13.5q-187 0 -187 242q0 263 186 263q66 0 103 -40l2 1v35h143zM331 246q0 23 -2 40t-8 37.5t-21.5 32t-39.5 11.5
q-25 0 -41 -11t-22.5 -31.5t-8.5 -37.5t-2 -41q0 -25 2 -42t9 -37t22.5 -30.5t40.5 -10.5q23 0 38.5 11t22 31t8.5 37.5t2 40.5z" />
    <glyph glyph-name="h" unicode="h" horiz-adv-x="551" 
d="M490 0h-142v292q0 36 -19.5 56t-50.5 20q-33 0 -54 -20t-21 -56v-292h-143v726h143v-266l4 -1q20 17 53.5 29t61.5 12q73 0 120.5 -47t47.5 -131v-322z" />
    <glyph glyph-name="i" unicode="i" horiz-adv-x="269" 
d="M206 571h-143v125h143v-125zM206 0h-143v495h143v-495z" />
    <glyph glyph-name="j" unicode="j" horiz-adv-x="286" 
d="M215 571h-143v125h143v-125zM215 496v-548q0 -69 -42 -108.5t-122 -39.5h-60v124h26q33 0 44 14t11 38v520h143z" />
    <glyph glyph-name="k" unicode="k" horiz-adv-x="533" 
d="M548 0h-163l-133 196l-49 -53v-143h-143v726h143v-400l2 -1l65 78l86 92h178l-189 -200z" />
    <glyph glyph-name="l" unicode="l" horiz-adv-x="286" 
d="M264 0h-51q-153 0 -153 147v579h143v-552q0 -30 11 -40t34 -10h16v-124z" />
    <glyph glyph-name="m" unicode="m" horiz-adv-x="838" 
d="M778 0h-142v294q0 36 -20.5 56t-51.5 20q-33 0 -53 -20t-20 -56v-294h-143v294q0 36 -20.5 56t-51.5 20q-33 0 -53 -20t-20 -56v-294h-143v495h143v-46l4 -1q18 23 54 37.5t71 14.5q92 0 127 -71q69 71 151 71q78 0 123 -46t45 -132v-322z" />
    <glyph glyph-name="n" unicode="n" horiz-adv-x="551" 
d="M490 0h-142v292q0 36 -19.5 56t-50.5 20q-33 0 -54 -20t-21 -56v-292h-143v495h143v-41h2q22 20 56.5 33t63.5 13q80 0 122.5 -45.5t42.5 -132.5v-322z" />
    <glyph glyph-name="o" unicode="o" horiz-adv-x="516" 
d="M265 501q122 0 179 -83q41 -59 39 -173q0 -93 -38 -156q-60 -96 -193 -96q-123 0 -177 79q-44 64 -42 176q2 88 26 139q26 55 80.5 84.5t125.5 29.5zM260 373q-45 0 -66 -43q-13 -28 -15 -84q0 -54 14 -82q20 -41 63 -41q54 0 71 54q9 31 9 71q1 53 -12 82q-18 43 -64 43
z" />
    <glyph glyph-name="p" unicode="p" horiz-adv-x="533" 
d="M63 495h142v-35l3 -1q37 40 107 40q41 0 72.5 -11t50.5 -32.5t31.5 -44.5t18 -56t7 -57t1.5 -57q0 -35 -4 -65.5t-16 -65t-32 -59t-55.5 -41t-81.5 -16.5q-27 0 -56 12t-43 33l-3 -1v-240h-142v697zM205 246q0 -122 72 -122q73 0 73 122q0 19 -1 32.5t-5 32t-11 30
t-21.5 20t-34.5 8.5q-24 0 -39.5 -11.5t-22 -33t-8.5 -38.5t-2 -40z" />
    <glyph glyph-name="q" unicode="q" horiz-adv-x="533" 
d="M51 236q0 263 192 263q58 0 97 -40l2 1v35h143v-697h-143v241l-2 1q-17 -20 -47 -33t-55 -13q-48 0 -83 15t-54.5 37.5t-31 56.5t-15 64.5t-3.5 68.5zM197 246q0 -26 2 -42.5t8 -37t22 -31t40 -10.5q73 0 73 121q0 23 -2 40t-8 38t-21.5 32.5t-39.5 11.5q-25 0 -41 -11
t-22.5 -31.5t-8.5 -38t-2 -41.5z" />
    <glyph glyph-name="r" unicode="r" horiz-adv-x="411" 
d="M276 370q-33 0 -53 -20t-20 -56v-295h-143v496h140v-56l3 -1q43 62 110 62q60 0 105 -31l-50 -125q-43 26 -92 26z" />
    <glyph glyph-name="s" unicode="s" horiz-adv-x="468" 
d="M445 155q0 -76 -61.5 -118.5t-147.5 -42.5q-65 0 -117.5 15.5t-104.5 61.5l70 100q59 -57 158 -57q27 0 45 11t18 26q0 36 -62 43q-45 5 -74 11.5t-61 21.5t-48 43.5t-16 69.5q0 77 53.5 118.5t134.5 41.5q124 0 202 -58l-64 -106q-60 41 -135 41q-29 0 -43.5 -10
t-14.5 -22q0 -17 21.5 -26t78.5 -16q79 -10 123.5 -42t44.5 -106z" />
    <glyph glyph-name="t" unicode="t" horiz-adv-x="333" 
d="M302 384h-73v-209q0 -30 10 -40.5t33 -10.5h31v-124h-77q-62 0 -101 35.5t-39 97.5v251h-54v112h56v136h139v-136h75v-112z" />
    <glyph glyph-name="u" unicode="u" horiz-adv-x="551" 
d="M61 495h143v-293q0 -36 19 -56t50 -20q33 0 54.5 20t21.5 56v293h143v-495h-143v42h-2q-19 -22 -53 -35t-64 -13q-79 0 -124 46t-45 132v323z" />
    <glyph glyph-name="v" unicode="v" horiz-adv-x="508" 
d="M504 495l-194 -495h-111l-195 495h153l44 -133l52 -166h2l52 166l45 133h152z" />
    <glyph glyph-name="w" unicode="w" horiz-adv-x="753" 
d="M750 495l-169 -495h-120l-38 122l-44 151h-3l-43 -150l-40 -123h-119l-169 495h152l35 -123l39 -154h5l45 154l40 123h114l39 -123l44 -154h6l39 154l35 123h152z" />
    <glyph glyph-name="x" unicode="x" horiz-adv-x="538" 
d="M531 0h-173l-90 142l-89 -142h-172l189 252l-182 243h171l83 -136l83 136h172l-183 -243z" />
    <glyph glyph-name="y" unicode="y" horiz-adv-x="502" 
d="M502 495l-224 -591q-39 -104 -157 -104h-57v117h37q41 0 57 49l24 74l-182 455h153l48 -141l48 -156h4l47 154l50 143h152z" />
    <glyph glyph-name="z" unicode="z" horiz-adv-x="463" 
d="M434 0h-406v119l229 254h-215v122h392v-114l-228 -253h228v-128z" />
    <glyph glyph-name="braceleft" unicode="{" horiz-adv-x="314" 
d="M305 -93h-98q-51 0 -85 34.5t-34 89.5v131q0 87 -76 87v104q76 3 76 90v129q0 55 34 89.5t85 34.5h98v-101h-41q-20 0 -30 -18t-10 -40v-117q0 -82 -76 -119q76 -28 76 -117v-118q0 -18 1 -27.5t10.5 -20.5t28.5 -11h41v-100z" />
    <glyph glyph-name="bar" unicode="|" horiz-adv-x="259" 
d="M191 -228h-124v958h124v-958z" />
    <glyph glyph-name="braceright" unicode="}" horiz-adv-x="314" 
d="M304 249q-77 0 -77 -87v-131q0 -55 -34 -89.5t-84 -34.5h-98v100h41q19 0 28.5 11t10.5 20.5t1 27.5v118q0 90 76 117q-76 37 -76 119v117q0 22 -10 40t-30 18h-41v101h98q50 0 84 -34.5t34 -89.5v-129q0 -87 77 -90v-104z" />
    <glyph glyph-name="asciitilde" unicode="~" horiz-adv-x="550" 
d="M197 350q33 -1 86.5 -28t69.5 -27q37 0 81 56l77 -47q-58 -122 -142 -122q-34 0 -89.5 26.5t-74.5 26.5q-44 0 -87 -56l-75 47q32 63 67.5 93.5t86.5 30.5z" />
    <glyph glyph-name="exclamdown" unicode="&#xa1;" horiz-adv-x="294" 
d="M77 -201l10 505h123l11 -505h-144zM75 495h147v-128h-147v128z" />
    <glyph glyph-name="cent" unicode="&#xa2;" horiz-adv-x="550" 
d="M484 70q-73 -65 -158 -74v-131h-58v131q-89 8 -144.5 71.5t-55.5 179.5q0 113 56 176t144 74v139h58v-137q89 -6 154 -71l-92 -97q-42 41 -83 41q-88 0 -88 -125q0 -65 20 -94t65 -29q43 0 88 42z" />
    <glyph glyph-name="sterling" unicode="&#xa3;" horiz-adv-x="550" 
d="M519 580l-119 -81q-29 41 -53 55t-55 14q-28 0 -50 -20t-22 -53q0 -18 17.5 -57.5t23.5 -66.5h141v-104h-140q-8 -84 -39 -142h284v-125h-472v108q32 41 48 77t20 82h-73v104h65q-5 17 -16 44.5t-17 47.5t-6 37q0 83 56.5 141.5t171.5 58.5q80 0 131 -22t104 -98z" />
    <glyph glyph-name="currency" unicode="&#xa4;" horiz-adv-x="556" 
d="M168 321q0 -44 31.5 -75.5t75.5 -31.5t76 31.5t32 75.5q0 45 -31.5 76t-76.5 31q-44 0 -75.5 -31t-31.5 -76zM94 429l-68 67l73 74l68 -68q58 32 109 32q56 0 109 -30q23 25 67 66l73 -74l-68 -67q32 -58 32 -108q0 -57 -31 -109q27 -23 67 -65l-73 -74l-66 67
q-54 -32 -110 -32q-54 0 -110 32l-67 -67l-73 73l67 66q-30 54 -30 109q0 52 31 108z" />
    <glyph glyph-name="yen" unicode="&#xa5;" horiz-adv-x="550" 
d="M59 241h142v42h-142v82h98l-170 331h171l74 -165l47 -124h4l46 126l75 163h159l-171 -331h101v-82h-145v-42h145v-82h-145v-159h-147v159h-142v82z" />
    <glyph glyph-name="brokenbar" unicode="&#xa6;" horiz-adv-x="259" 
d="M191 284h-124v446h124v-446zM67 219h124v-447h-124v447z" />
    <glyph glyph-name="section" unicode="&#xa7;" horiz-adv-x="510" 
d="M405 189q53 -38 53 -96q0 -84 -62 -131t-154 -47q-121 0 -211 84l79 94q68 -61 135 -61q82 0 82 53q0 19 -20 32.5t-77 30.5q-46 13 -75.5 25.5t-56 32.5t-39 49t-12.5 69q0 31 22 61t50 41q-57 44 -57 104q0 76 56.5 122.5t142.5 46.5q128 0 205 -59l-68 -97
q-65 39 -144 39q-34 0 -49 -13.5t-15 -32.5q0 -12 9.5 -22.5t27.5 -18t32 -12t36 -10t27 -7.5q67 -19 107 -56.5t40 -110.5q0 -34 -20 -67t-44 -43zM245 354q-29 7 -44 13q-25 -10 -25 -38q0 -26 45 -42q15 -5 50 -15t54 -17q17 10 17 36q0 19 -20 33t-77 30z" />
    <glyph glyph-name="dieresis" unicode="&#xa8;" horiz-adv-x="516" 
d="M443 569h-149v130h149v-130zM224 569h-148v130h148v-130z" />
    <glyph glyph-name="copyright" unicode="&#xa9;" horiz-adv-x="820" 
d="M411 -16q-153 0 -254 100t-101 258q0 155 102 257.5t253 102.5q152 0 253.5 -101.5t101.5 -258.5q0 -155 -101.5 -256.5t-253.5 -101.5zM411 623q-114 0 -190.5 -81t-76.5 -200t76.5 -199.5t190.5 -80.5t190.5 80.5t76.5 199.5q0 123 -76 202t-191 79zM484 257l92 -36
q-16 -53 -59 -82t-105 -29q-83 0 -126.5 47t-43.5 125v103q0 73 44.5 122.5t125.5 49.5q62 0 105 -30.5t59 -81.5l-92 -33q-6 24 -25 39t-48 15q-35 0 -53 -21t-18 -51v-119q0 -31 18 -52.5t53 -21.5q29 0 48.5 15.5t24.5 40.5z" />
    <glyph glyph-name="ordfeminine" unicode="&#xaa;" horiz-adv-x="356" 
d="M326 279h-108v35q-27 -39 -84 -39q-53 0 -83 26t-30 78q0 43 33.5 70t93.5 27h70v12q0 12 -12.5 22.5t-35.5 10.5q-53 0 -81 -28l-58 64q51 53 142 53q153 0 153 -114v-217zM218 400v10h-58q-34 0 -34 -24q0 -4 2.5 -8.5t12 -9.5t25.5 -5q52 0 52 37z" />
    <glyph glyph-name="guillemotleft" unicode="&#xab;" horiz-adv-x="591" 
d="M560 10h-140l-146 214l146 214h140l-142 -214zM332 10h-140l-146 214l146 214h140l-143 -214z" />
    <glyph glyph-name="logicalnot" unicode="&#xac;" horiz-adv-x="550" 
d="M531 356l1 -302h-124v186h-389v116h512z" />
    <glyph glyph-name="sfthyphen" unicode="&#xad;" horiz-adv-x="440" 
d="M393 192h-346v131h346v-131z" />
    <glyph glyph-name="registered" unicode="&#xae;" horiz-adv-x="526" 
d="M305 364l-42 93h-29v-93h-52v244h97q33 0 55.5 -20t22.5 -54q0 -44 -40 -68l47 -102h-59zM279 558h-45v-52h43q14 0 22 7.5t8 20.5q0 24 -28 24zM265 269q-94 0 -157 61.5t-63 153.5t65.5 154.5t154.5 62.5q94 0 157.5 -62t63.5 -155q0 -91 -66 -153t-155 -62zM265 650
q-70 0 -117.5 -48t-47.5 -118q0 -69 48 -117.5t117 -48.5q70 0 117 48t47 118q0 71 -47 118.5t-117 47.5z" />
    <glyph glyph-name="macron" unicode="&#xaf;" horiz-adv-x="516" 
d="M425 578h-333v118h333v-118z" />
    <glyph glyph-name="degree" unicode="&#xb0;" horiz-adv-x="433" 
d="M380 548q0 -64 -48 -109t-116 -45q-67 0 -115 45t-48 109q0 63 48 108t115 45q68 0 116 -45t48 -108zM281 548q0 25 -19 43t-46 18q-26 0 -45.5 -18t-19.5 -43t19.5 -43.5t45.5 -18.5q27 0 46 18t19 44z" />
    <glyph glyph-name="plusminus" unicode="&#xb1;" horiz-adv-x="550" 
d="M532 320h-195v-173h-124v173h-195v116h195v182h124v-182h195v-116zM536 0h-522v113h522v-113z" />
    <glyph glyph-name="twosuperior" unicode="&#xb2;" horiz-adv-x="343" 
d="M129 642l-108 15q7 60 51 96t101 36q67 0 108 -31.5t41 -90.5q0 -49 -35 -86l-112 -117h145v-95h-299v83l179 185q11 11 11 23q0 14 -10 24t-27 10q-16 0 -28.5 -13t-16.5 -39z" />
    <glyph glyph-name="threesuperior" unicode="&#xb3;" horiz-adv-x="346" 
d="M19 486l106 14q7 -39 47 -39q18 0 30.5 10.5t12.5 28.5q0 19 -13 31t-38 12h-36v81h37q24 0 36 10.5t12 25.5q0 14 -11.5 24t-29.5 10q-35 0 -43 -43l-105 16q12 56 55 89t97 33q75 0 113.5 -35.5t38.5 -88.5q0 -23 -12.5 -46.5t-37.5 -34.5q27 -11 40 -36t13 -49
q0 -59 -43 -96t-114 -37q-55 0 -98.5 29.5t-56.5 90.5z" />
    <glyph glyph-name="acute" unicode="&#xb4;" horiz-adv-x="516" 
d="M266 537l-83 30l85 203l133 -43z" />
    <glyph glyph-name="mu" unicode="&#xb5;" horiz-adv-x="551" 
d="M491 1h-143v34l-4 2q-41 -41 -100 -41q-18 0 -40 5v-201h-144l1 695h143v-293q0 -36 20 -55.5t51 -19.5q33 0 53 19.5t20 55.5v293h143v-494z" />
    <glyph glyph-name="mu" unicode="&#x3bc;" horiz-adv-x="551" 
d="M491 1h-143v34l-4 2q-41 -41 -100 -41q-18 0 -40 5v-201h-144l1 695h143v-293q0 -36 20 -55.5t51 -19.5q33 0 53 19.5t20 55.5v293h143v-494z" />
    <glyph glyph-name="paragraph" unicode="&#xb6;" horiz-adv-x="563" 
d="M212 -79v390h-24q-74 0 -117.5 56.5t-43.5 134.5q0 80 49.5 141t136.5 61q54 0 155 0.5t159 0.5v-86h-43v-698h-99v698h-71v-698h-102z" />
    <glyph glyph-name="periodcentered" unicode="&#xb7;" horiz-adv-x="303" 
d="M236 198h-169v165h169v-165z" />
    <glyph glyph-name="cedilla" unicode="&#xb8;" horiz-adv-x="463" 
d="M169 -77l40 126l72 1l-28 -86q49 -6 72.5 -31.5t23.5 -58.5q0 -37 -33 -65.5t-87 -28.5q-65 0 -112 29l25 62q37 -18 74 -18q17 0 28.5 8t11.5 22q0 19 -18 23.5t-30 -3.5z" />
    <glyph glyph-name="onesuperior" unicode="&#xb9;" horiz-adv-x="285" 
d="M216 369h-110v299l-65 -41v109l82 50h93v-417z" />
    <glyph glyph-name="ordmasculine" unicode="&#xba;" horiz-adv-x="356" 
d="M184 611q87 0 127 -57q27 -39 27 -113q0 -58 -27 -101q-20 -32 -57 -49t-79 -17q-86 0 -125 54q-31 42 -29 115q2 57 18 91q18 36 57 56.5t88 20.5zM181 517q-27 0 -40 -24q-9 -17 -9 -51q0 -31 9 -49q11 -24 37 -24q30 0 42 31q6 18 6 43q0 35 -7 51q-11 23 -38 23z" />
    <glyph glyph-name="guillemotright" unicode="&#xbb;" horiz-adv-x="591" 
d="M186 10h-140l142 214l-142 214h140l146 -214zM414 10h-140l143 214l-143 214h140l146 -214z" />
    <glyph glyph-name="onequarter" unicode="&#xbc;" horiz-adv-x="925" 
d="M278 279h-110v299l-65 -41v109l82 50h93v-417zM720 713l-426 -730h-117l425 730h118zM822 56h-36v-56h-109v56h-188v76l156 285h123l-149 -268h58v74h109v-74h36v-93z" />
    <glyph glyph-name="onehalf" unicode="&#xbd;" horiz-adv-x="925" 
d="M255 279h-110v299l-65 -41v109l82 50h93v-417zM696 713l-426 -730h-117l425 730h118zM652 273l-108 15q7 60 50 96t99 36q67 0 109 -31.5t42 -90.5q0 -50 -34 -86l-112 -117h145v-95h-299v83l179 186v-1q10 10 10 23q0 14 -10.5 24t-27.5 10q-36 0 -43 -52z" />
    <glyph glyph-name="threequarters" unicode="&#xbe;" horiz-adv-x="925" 
d="M62 396l106 14q7 -39 47 -39q18 0 30.5 10.5t12.5 28.5q0 19 -13 31t-38 12h-36v81h37q24 0 36 10.5t12 25.5q0 14 -11.5 24t-29.5 10q-35 0 -43 -43l-105 16q12 56 55 89t97 33q75 0 113.5 -35.5t38.5 -88.5q0 -23 -12.5 -46.5t-37.5 -34.5q27 -11 40 -36t13 -49
q0 -59 -43 -96t-114 -37q-55 0 -98.5 29.5t-56.5 90.5zM758 713l-426 -730h-117l425 730h118zM863 56h-36v-56h-109v56h-188v76l156 285h123l-149 -268h58v74h109v-74h36v-93z" />
    <glyph glyph-name="questiondown" unicode="&#xbf;" horiz-adv-x="495" 
d="M339 20l146 -17q-9 -96 -76.5 -153t-154.5 -57q-101 0 -160.5 55.5t-59.5 142.5q0 42 23.5 81.5t51 65t51 63t23.5 77.5v22h147v-27q0 -55 -19 -95t-72 -109q-43 -53 -43 -79t20 -42.5t47 -16.5q72 0 76 89zM183 494h147v-128h-147v128z" />
    <glyph glyph-name="Agrave" unicode="&#xc0;" horiz-adv-x="660" 
d="M400 802l-56 -69l-214 90l90 107zM659 0h-162l-52 142h-233l-52 -142h-162l270 696h121zM397 272l-26 80l-41 138h-4l-40 -136l-26 -82h137z" />
    <glyph glyph-name="Aacute" unicode="&#xc1;" horiz-adv-x="660" 
d="M327 733l-56 69l180 128l90 -107zM659 0h-162l-52 142h-233l-52 -142h-162l270 696h121zM397 272l-26 80l-41 138h-4l-40 -136l-26 -82h137z" />
    <glyph glyph-name="Acircumflex" unicode="&#xc2;" horiz-adv-x="660" 
d="M659 0h-162l-52 142h-233l-52 -142h-162l270 696h121zM397 272l-26 80l-41 138h-4l-40 -136l-26 -82h137zM476 726l-149 79l-150 -78l-48 58l149 120h98l151 -120z" />
    <glyph glyph-name="Atilde" unicode="&#xc3;" horiz-adv-x="660" 
d="M659 0h-162l-52 142h-233l-52 -142h-162l270 696h121zM397 272l-26 80l-41 138h-4l-40 -136l-26 -82h137zM256 881q28 -1 73.5 -25t59.5 -24q30 0 67 48l68 -40q-50 -109 -121 -109q-29 0 -76.5 23.5t-63.5 23.5q-37 0 -74 -50l-65 41q27 56 58 84t74 28z" />
    <glyph glyph-name="Adieresis" unicode="&#xc4;" horiz-adv-x="660" 
d="M659 0h-162l-52 142h-233l-52 -142h-162l270 696h121zM397 272l-26 80l-41 138h-4l-40 -136l-26 -82h137zM512 744h-152v133h152v-133zM298 744h-153v133h153v-133z" />
    <glyph glyph-name="Aring" unicode="&#xc5;" horiz-adv-x="660" 
d="M659 0h-162l-52 142h-233l-52 -142h-162l270 696h121zM397 272l-26 80l-41 138h-4l-40 -136l-26 -82h137zM369 831q0 16 -11.5 26.5t-28.5 10.5t-29 -10.5t-12 -26.5t12 -27t29 -11t28.5 11t11.5 27zM204 831q0 48 36.5 82t88.5 34q51 0 87.5 -34t36.5 -82t-36.5 -82
t-88.5 -34q-51 0 -87.5 34t-36.5 82z" />
    <glyph glyph-name="AE" unicode="&#xc6;" horiz-adv-x="1091" 
d="M464 696h571v-138h-338v-141h288v-133h-288v-146h338v-138h-492v149h-234l-84 -149h-182zM543 558h-4l-157 -275h161v275z" />
    <glyph glyph-name="Ccedilla" unicode="&#xc7;" horiz-adv-x="600" 
d="M243 -77l23 74q-109 13 -165 85t-56 184v164q0 115 70 193t199 78q97 0 165 -48t94 -129l-146 -52q-9 38 -38.5 61.5t-75.5 23.5q-54 0 -83.5 -33t-29.5 -80v-189q0 -49 29 -83t84 -34q45 0 75.5 24t38.5 63l146 -56q-24 -77 -86 -123t-150 -51l-10 -31q49 -6 72.5 -31.5
t23.5 -58.5q0 -37 -33 -65.5t-87 -28.5q-65 0 -112 29l25 62q37 -18 74 -18q17 0 28.5 8t11.5 22q0 19 -18 23.5t-30 -3.5z" />
    <glyph glyph-name="Egrave" unicode="&#xc8;" horiz-adv-x="585" 
d="M562 0h-492v696h492v-138h-338v-141h288v-133h-288v-146h338v-138zM378 802l-56 -69l-214 90l90 107z" />
    <glyph glyph-name="Eacute" unicode="&#xc9;" horiz-adv-x="585" 
d="M257 733l-56 69l180 128l90 -107zM562 0h-492v696h492v-138h-338v-141h288v-133h-288v-146h338v-138z" />
    <glyph glyph-name="Ecircumflex" unicode="&#xca;" horiz-adv-x="585" 
d="M562 0h-492v696h492v-138h-338v-141h288v-133h-288v-146h338v-138zM448 726l-149 79l-150 -78l-48 58l149 120h98l151 -120z" />
    <glyph glyph-name="Edieresis" unicode="&#xcb;" horiz-adv-x="585" 
d="M562 0h-492v696h492v-138h-338v-141h288v-133h-288v-146h338v-138zM512 744h-152v133h152v-133zM298 744h-153v133h153v-133z" />
    <glyph glyph-name="Igrave" unicode="&#xcc;" horiz-adv-x="294" 
d="M227 0h-154v696h154v-696zM206 802l-56 -69l-214 90l90 107z" />
    <glyph glyph-name="Iacute" unicode="&#xcd;" horiz-adv-x="294" 
d="M143 733l-56 69l180 128l90 -107zM227 0h-154v696h154v-696z" />
    <glyph glyph-name="Icircumflex" unicode="&#xce;" horiz-adv-x="294" 
d="M227 0h-154v696h154v-696zM300 726l-149 79l-150 -78l-48 58l149 120h98l151 -120z" />
    <glyph glyph-name="Idieresis" unicode="&#xcf;" horiz-adv-x="294" 
d="M227 0h-154v696h154v-696zM331 744h-152v133h152v-133zM117 744h-153v133h153v-133z" />
    <glyph glyph-name="Eth" unicode="&#xd0;" horiz-adv-x="657" 
d="M6 300v107h64v289h277q175 0 237 -129q27 -55 27 -207q0 -163 -25 -222q-60 -138 -256 -138h-260v300h-64zM224 557v-150h109v-107h-109v-162h101q73 0 103 38t30 111v127q0 73 -32 108t-104 35h-98z" />
    <glyph glyph-name="Ntilde" unicode="&#xd1;" horiz-adv-x="710" 
d="M643 0h-137l-177 256l-103 166l-2 -1v-421h-154v696h137l146 -213l134 -209l2 1v421h154v-696zM278 884q28 -1 73.5 -25t59.5 -24q30 0 67 48l68 -40q-50 -109 -121 -109q-29 0 -76.5 23.5t-63.5 23.5q-37 0 -74 -50l-65 41q27 56 58 84t74 28z" />
    <glyph glyph-name="Ograve" unicode="&#xd2;" horiz-adv-x="624" 
d="M310 701q124 0 198.5 -76t74.5 -195v-164q0 -124 -74.5 -198t-198.5 -74q-129 0 -199 78t-70 194v164q0 115 70 193t199 78zM309 557q-54 0 -83.5 -33t-29.5 -80v-189q0 -49 29 -83t84 -34q54 0 85.5 33t31.5 84v189q0 48 -31.5 80.5t-85.5 32.5zM400 802l-56 -69
l-214 90l90 107z" />
    <glyph glyph-name="Oacute" unicode="&#xd3;" horiz-adv-x="624" 
d="M257 733l-56 69l180 128l90 -107zM310 701q124 0 198.5 -76t74.5 -195v-164q0 -124 -74.5 -198t-198.5 -74q-129 0 -199 78t-70 194v164q0 115 70 193t199 78zM309 557q-54 0 -83.5 -33t-29.5 -80v-189q0 -49 29 -83t84 -34q54 0 85.5 33t31.5 84v189q0 48 -31.5 80.5
t-85.5 32.5z" />
    <glyph glyph-name="Ocircumflex" unicode="&#xd4;" horiz-adv-x="624" 
d="M310 701q124 0 198.5 -76t74.5 -195v-164q0 -124 -74.5 -198t-198.5 -74q-129 0 -199 78t-70 194v164q0 115 70 193t199 78zM309 557q-54 0 -83.5 -33t-29.5 -80v-189q0 -49 29 -83t84 -34q54 0 85.5 33t31.5 84v189q0 48 -31.5 80.5t-85.5 32.5zM460 726l-149 79
l-150 -78l-48 58l149 120h98l151 -120z" />
    <glyph glyph-name="Otilde" unicode="&#xd5;" horiz-adv-x="624" 
d="M310 701q124 0 198.5 -76t74.5 -195v-164q0 -124 -74.5 -198t-198.5 -74q-129 0 -199 78t-70 194v164q0 115 70 193t199 78zM309 557q-54 0 -83.5 -33t-29.5 -80v-189q0 -49 29 -83t84 -34q54 0 85.5 33t31.5 84v189q0 48 -31.5 80.5t-85.5 32.5zM241 881q28 -1 73.5 -25
t59.5 -24q30 0 67 48l68 -40q-50 -109 -121 -109q-29 0 -76.5 23.5t-63.5 23.5q-37 0 -74 -50l-65 41q27 56 58 84t74 28z" />
    <glyph glyph-name="Odieresis" unicode="&#xd6;" horiz-adv-x="624" 
d="M310 701q124 0 198.5 -76t74.5 -195v-164q0 -124 -74.5 -198t-198.5 -74q-129 0 -199 78t-70 194v164q0 115 70 193t199 78zM309 557q-54 0 -83.5 -33t-29.5 -80v-189q0 -49 29 -83t84 -34q54 0 85.5 33t31.5 84v189q0 48 -31.5 80.5t-85.5 32.5zM498 744h-152v133h152
v-133zM284 744h-153v133h153v-133z" />
    <glyph glyph-name="multiply" unicode="&#xd7;" horiz-adv-x="550" 
d="M452 47l-166 166l-160 -160l-87 87l160 160l-166 166l82 82l166 -166l157 158l88 -88l-158 -157l166 -166z" />
    <glyph glyph-name="Oslash" unicode="&#xd8;" horiz-adv-x="624" 
d="M310 701q106 0 178 -58l44 61l51 -37l-51 -69q51 -71 51 -168v-164q0 -124 -74.5 -198t-198.5 -74q-110 0 -179 59l-43 -58l-49 35l50 68q-48 68 -48 168v164q0 115 70 193t199 78zM426 444q0 2 -0.5 5t-0.5 4l-204 -277q31 -38 88 -38q54 0 85.5 33t31.5 84v189z
M309 557q-54 0 -83.5 -33t-29.5 -80v-189v-10l202 275q-32 37 -89 37z" />
    <glyph glyph-name="Ugrave" unicode="&#xd9;" horiz-adv-x="657" 
d="M600 243q0 -110 -78.5 -179t-192.5 -69q-115 0 -193 71.5t-78 185.5v444h153v-433q0 -57 33.5 -91t84.5 -34q52 0 84.5 30t32.5 86v442h154v-453zM398 802l-56 -69l-214 90l90 107z" />
    <glyph glyph-name="Uacute" unicode="&#xda;" horiz-adv-x="657" 
d="M299 733l-56 69l180 128l90 -107zM600 243q0 -110 -78.5 -179t-192.5 -69q-115 0 -193 71.5t-78 185.5v444h153v-433q0 -57 33.5 -91t84.5 -34q52 0 84.5 30t32.5 86v442h154v-453z" />
    <glyph glyph-name="Ucircumflex" unicode="&#xdb;" horiz-adv-x="657" 
d="M600 243q0 -110 -78.5 -179t-192.5 -69q-115 0 -193 71.5t-78 185.5v444h153v-433q0 -57 33.5 -91t84.5 -34q52 0 84.5 30t32.5 86v442h154v-453zM478 726l-149 79l-150 -78l-48 58l149 120h98l151 -120z" />
    <glyph glyph-name="Udieresis" unicode="&#xdc;" horiz-adv-x="657" 
d="M600 243q0 -110 -78.5 -179t-192.5 -69q-115 0 -193 71.5t-78 185.5v444h153v-433q0 -57 33.5 -91t84.5 -34q52 0 84.5 30t32.5 86v442h154v-453zM516 744h-152v133h152v-133zM302 744h-153v133h153v-133z" />
    <glyph glyph-name="Yacute" unicode="&#xdd;" horiz-adv-x="605" 
d="M280 733l-56 69l180 128l90 -107zM603 696l-225 -411v-285h-147v285l-224 411h165l71 -150l60 -135h4l59 134l72 151h165z" />
    <glyph glyph-name="Thorn" unicode="&#xde;" horiz-adv-x="609" 
d="M601 349q0 -94 -70 -156t-171 -62h-136v-131h-154v696h154v-123h123q112 0 183 -61t71 -163zM448 352q0 83 -96 83h-128v-166h132q39 0 65.5 23t26.5 60z" />
    <glyph glyph-name="germandbls" unicode="&#xdf;" horiz-adv-x="566" 
d="M521 242q0 -43 -9.5 -81.5t-32.5 -76.5t-70 -61t-113 -23h-31v119h23q37 0 60.5 29.5t23.5 85.5q0 23 -2 39t-9 36.5t-24.5 31.5t-44.5 11v104q29 0 44 22t15 48q0 17 -4 32.5t-21.5 30.5t-46.5 15q-38 0 -57 -24.5t-19 -58.5v-521h-145v518q0 98 60 152t159 54
q105 0 156.5 -54.5t51.5 -127.5q0 -37 -16 -73.5t-54 -52.5v-3q56 -17 81 -67.5t25 -103.5z" />
    <glyph glyph-name="agrave" unicode="&#xe0;" horiz-adv-x="516" 
d="M468 0h-142v46l-3 1q-44 -52 -122 -52q-76 0 -121 38t-45 114q0 66 48 109.5t131 43.5h112v16q0 60 -83 60q-73 0 -117 -39l-69 97q73 66 201 66q210 0 210 -169v-331zM326 180v16h-94q-60 0 -60 -37q0 -9 4 -18t20.5 -18.5t43.5 -9.5q36 0 61 17t25 50zM341 575l-81 -38
l-146 186l134 46z" />
    <glyph glyph-name="aacute" unicode="&#xe1;" horiz-adv-x="516" 
d="M468 0h-142v46l-3 1q-44 -52 -122 -52q-76 0 -121 38t-45 114q0 66 48 109.5t131 43.5h112v16q0 60 -83 60q-73 0 -117 -39l-69 97q73 66 201 66q210 0 210 -169v-331zM326 180v16h-94q-60 0 -60 -37q0 -9 4 -18t20.5 -18.5t43.5 -9.5q36 0 61 17t25 50zM283 537l-83 30
l85 203l133 -43z" />
    <glyph glyph-name="acircumflex" unicode="&#xe2;" horiz-adv-x="516" 
d="M468 0h-142v46l-3 1q-44 -52 -122 -52q-76 0 -121 38t-45 114q0 66 48 109.5t131 43.5h112v16q0 60 -83 60q-73 0 -117 -39l-69 97q73 66 201 66q210 0 210 -169v-331zM326 180v16h-94q-60 0 -60 -37q0 -9 4 -18t20.5 -18.5t43.5 -9.5q36 0 61 17t25 50zM398 521
l-144 104q-9 -6 -63 -45t-82 -58l-53 48l147 155h103l148 -155z" />
    <glyph glyph-name="atilde" unicode="&#xe3;" horiz-adv-x="516" 
d="M468 0h-142v46l-3 1q-44 -52 -122 -52q-76 0 -121 38t-45 114q0 66 48 109.5t131 43.5h112v16q0 60 -83 60q-73 0 -117 -39l-69 97q73 66 201 66q210 0 210 -169v-331zM326 180v16h-94q-60 0 -60 -37q0 -9 4 -18t20.5 -18.5t43.5 -9.5q36 0 61 17t25 50zM194 711
q28 -1 73.5 -25t59.5 -24q30 0 67 48l68 -40q-50 -109 -121 -109q-29 0 -76.5 23.5t-63.5 23.5q-37 0 -74 -50l-65 41q27 56 58 84t74 28z" />
    <glyph glyph-name="adieresis" unicode="&#xe4;" horiz-adv-x="516" 
d="M468 0h-142v46l-3 1q-44 -52 -122 -52q-76 0 -121 38t-45 114q0 66 48 109.5t131 43.5h112v16q0 60 -83 60q-73 0 -117 -39l-69 97q73 66 201 66q210 0 210 -169v-331zM326 180v16h-94q-60 0 -60 -37q0 -9 4 -18t20.5 -18.5t43.5 -9.5q36 0 61 17t25 50zM443 569h-149
v130h149v-130zM224 569h-148v130h148v-130z" />
    <glyph glyph-name="aring" unicode="&#xe5;" horiz-adv-x="516" 
d="M468 0h-142v46l-3 1q-44 -52 -122 -52q-76 0 -121 38t-45 114q0 66 48 109.5t131 43.5h112v16q0 60 -83 60q-73 0 -117 -39l-69 97q73 66 201 66q210 0 210 -169v-331zM326 180v16h-94q-60 0 -60 -37q0 -9 4 -18t20.5 -18.5t43.5 -9.5q36 0 61 17t25 50zM308 643
q0 16 -11.5 26.5t-28.5 10.5t-29 -10.5t-12 -26.5t12 -27t29 -11t28.5 11t11.5 27zM143 643q0 48 36.5 82t88.5 34q51 0 87.5 -34t36.5 -82t-36.5 -82t-88.5 -34q-51 0 -87.5 34t-36.5 82z" />
    <glyph glyph-name="ae" unicode="&#xe6;" horiz-adv-x="833" 
d="M782 210h-305q12 -86 92 -86q52 0 102 45l88 -98q-83 -76 -198 -76q-113 0 -175 65q-69 -65 -175 -65q-77 0 -126.5 38t-49.5 114q0 66 48 109.5t131 43.5h112v16q0 24 -18.5 45.5t-67.5 21.5q-79 0 -123 -44l-64 92q63 69 192 69q122 0 168 -54q51 54 138 54
q114 0 172.5 -69.5t58.5 -185.5v-35zM326 180v16h-94q-60 0 -60 -37q0 -9 4 -18t20.5 -18.5t43.5 -9.5q36 0 61 17t25 50zM632 302q-4 32 -25.5 50.5t-50.5 18.5q-28 0 -48.5 -18.5t-25.5 -50.5h150z" />
    <glyph glyph-name="ccedilla" unicode="&#xe7;" horiz-adv-x="463" 
d="M173 -77l24 77q-77 18 -123 79.5t-46 167.5q0 126 68 189.5t169 63.5q104 0 175 -72l-92 -97q-42 41 -83 41q-88 0 -88 -125q0 -65 20 -94t65 -29q43 0 88 42l94 -96q-79 -71 -177 -76l-10 -30q49 -6 72.5 -31.5t23.5 -58.5q0 -37 -33 -65.5t-87 -28.5q-65 0 -112 29
l25 62q37 -18 74 -18q17 0 28.5 8t11.5 22q0 19 -18 23.5t-30 -3.5z" />
    <glyph glyph-name="egrave" unicode="&#xe8;" horiz-adv-x="533" 
d="M489 210h-306q4 -46 25 -66.5t58 -20.5q61 0 112 46l88 -98q-84 -77 -204 -77q-44 0 -82 12t-72 39t-53.5 78.5t-19.5 122.5q0 130 66 192t160 62q114 0 171 -69t57 -186v-35zM335 302q-4 33 -24.5 52t-48.5 19t-48.5 -19.5t-25.5 -51.5h147zM338 575l-81 -38l-146 186
l134 46z" />
    <glyph glyph-name="eacute" unicode="&#xe9;" horiz-adv-x="533" 
d="M489 210h-306q4 -46 25 -66.5t58 -20.5q61 0 112 46l88 -98q-84 -77 -204 -77q-44 0 -82 12t-72 39t-53.5 78.5t-19.5 122.5q0 130 66 192t160 62q114 0 171 -69t57 -186v-35zM335 302q-4 33 -24.5 52t-48.5 19t-48.5 -19.5t-25.5 -51.5h147zM278 537l-83 30l85 203
l133 -43z" />
    <glyph glyph-name="ecircumflex" unicode="&#xea;" horiz-adv-x="533" 
d="M489 210h-306q4 -46 25 -66.5t58 -20.5q61 0 112 46l88 -98q-84 -77 -204 -77q-44 0 -82 12t-72 39t-53.5 78.5t-19.5 122.5q0 130 66 192t160 62q114 0 171 -69t57 -186v-35zM335 302q-4 33 -24.5 52t-48.5 19t-48.5 -19.5t-25.5 -51.5h147zM409 521l-144 104
q-9 -6 -63 -45t-82 -58l-53 48l147 155h103l148 -155z" />
    <glyph glyph-name="edieresis" unicode="&#xeb;" horiz-adv-x="533" 
d="M489 210h-306q4 -46 25 -66.5t58 -20.5q61 0 112 46l88 -98q-84 -77 -204 -77q-44 0 -82 12t-72 39t-53.5 78.5t-19.5 122.5q0 130 66 192t160 62q114 0 171 -69t57 -186v-35zM335 302q-4 33 -24.5 52t-48.5 19t-48.5 -19.5t-25.5 -51.5h147zM443 569h-149v130h149v-130z
M224 569h-148v130h148v-130z" />
    <glyph glyph-name="igrave" unicode="&#xec;" horiz-adv-x="269" 
d="M195 575l-81 -38l-146 186l134 46zM206 0h-143v495h143v-495z" />
    <glyph glyph-name="iacute" unicode="&#xed;" horiz-adv-x="269" 
d="M150 537l-83 30l85 203l133 -43zM206 0h-143v495h143v-495z" />
    <glyph glyph-name="icircumflex" unicode="&#xee;" horiz-adv-x="357" 
d="M321 521l-144 104q-9 -6 -63 -45t-82 -58l-53 48l147 155h103l148 -155zM247 0h-143v495h143v-495z" />
    <glyph glyph-name="idieresis" unicode="&#xef;" horiz-adv-x="327" 
d="M347 569h-149v130h149v-130zM128 569h-148v130h148v-130zM235 0h-143v495h143v-495z" />
    <glyph glyph-name="eth" unicode="&#xf0;" horiz-adv-x="537" 
d="M247 476q36 -1 71 -18t49 -41l4 1q-4 93 -37 132l-49 -42l-46 50l48 42q-48 34 -128 40l21 111q135 -11 207 -75l61 53l50 -48l-61 -53q69 -90 69 -308q0 -68 -14.5 -125.5t-44.5 -103.5t-80 -72t-116 -26q-114 0 -168 67t-54 176q0 43 10.5 82.5t34 76.5t68 59t105.5 22
zM253 345q-76 0 -76 -116q0 -54 23 -83q18 -22 53 -22q38 0 59 32q17 28 17 82q0 107 -76 107z" />
    <glyph glyph-name="ntilde" unicode="&#xf1;" horiz-adv-x="551" 
d="M490 0h-142v292q0 36 -19.5 56t-50.5 20q-33 0 -54 -20t-21 -56v-292h-143v495h143v-41h2q22 20 56.5 33t63.5 13q80 0 122.5 -45.5t42.5 -132.5v-322zM193 711q28 -1 73.5 -25t59.5 -24q30 0 67 48l68 -40q-50 -109 -121 -109q-29 0 -76.5 23.5t-63.5 23.5
q-37 0 -74 -50l-65 41q27 56 58 84t74 28z" />
    <glyph glyph-name="ograve" unicode="&#xf2;" horiz-adv-x="516" 
d="M265 501q122 0 179 -83q41 -59 39 -173q0 -93 -38 -156q-60 -96 -193 -96q-123 0 -177 79q-44 64 -42 176q2 88 26 139q26 55 80.5 84.5t125.5 29.5zM260 373q-45 0 -66 -43q-13 -28 -15 -84q0 -54 14 -82q20 -41 63 -41q54 0 71 54q9 31 9 71q1 53 -12 82q-18 43 -64 43
zM339 575l-81 -38l-146 186l134 46z" />
    <glyph glyph-name="oacute" unicode="&#xf3;" horiz-adv-x="516" 
d="M265 501q122 0 179 -83q41 -59 39 -173q0 -93 -38 -156q-60 -96 -193 -96q-123 0 -177 79q-44 64 -42 176q2 88 26 139q26 55 80.5 84.5t125.5 29.5zM260 373q-45 0 -66 -43q-13 -28 -15 -84q0 -54 14 -82q20 -41 63 -41q54 0 71 54q9 31 9 71q1 53 -12 82q-18 43 -64 43
zM287 537l-83 30l85 203l133 -43z" />
    <glyph glyph-name="ocircumflex" unicode="&#xf4;" horiz-adv-x="516" 
d="M265 501q122 0 179 -83q41 -59 39 -173q0 -93 -38 -156q-60 -96 -193 -96q-123 0 -177 79q-44 64 -42 176q2 88 26 139q26 55 80.5 84.5t125.5 29.5zM260 373q-45 0 -66 -43q-13 -28 -15 -84q0 -54 14 -82q20 -41 63 -41q54 0 71 54q9 31 9 71q1 53 -12 82q-18 43 -64 43
zM405 521l-144 104q-9 -6 -63 -45t-82 -58l-53 48l147 155h103l148 -155z" />
    <glyph glyph-name="otilde" unicode="&#xf5;" horiz-adv-x="516" 
d="M265 501q122 0 179 -83q41 -59 39 -173q0 -93 -38 -156q-60 -96 -193 -96q-123 0 -177 79q-44 64 -42 176q2 88 26 139q26 55 80.5 84.5t125.5 29.5zM260 373q-45 0 -66 -43q-13 -28 -15 -84q0 -54 14 -82q20 -41 63 -41q54 0 71 54q9 31 9 71q1 53 -12 82q-18 43 -64 43
zM191 711q28 -1 73.5 -25t59.5 -24q30 0 67 48l68 -40q-50 -109 -121 -109q-29 0 -76.5 23.5t-63.5 23.5q-37 0 -74 -50l-65 41q27 56 58 84t74 28z" />
    <glyph glyph-name="odieresis" unicode="&#xf6;" horiz-adv-x="516" 
d="M265 501q122 0 179 -83q41 -59 39 -173q0 -93 -38 -156q-60 -96 -193 -96q-123 0 -177 79q-44 64 -42 176q2 88 26 139q26 55 80.5 84.5t125.5 29.5zM260 373q-45 0 -66 -43q-13 -28 -15 -84q0 -54 14 -82q20 -41 63 -41q54 0 71 54q9 31 9 71q1 53 -12 82q-18 43 -64 43
zM443 569h-149v130h149v-130zM224 569h-148v130h148v-130z" />
    <glyph glyph-name="divide" unicode="&#xf7;" horiz-adv-x="550" 
d="M364 505q0 -34 -26 -58.5t-63 -24.5t-63 24.5t-26 58.5q0 35 26 59.5t63 24.5t63 -24.5t26 -59.5zM532 240h-514v116h514v-116zM364 81q0 -35 -26 -59.5t-63 -24.5t-63 24.5t-26 59.5q0 34 26 58.5t63 24.5t63 -24.5t26 -58.5z" />
    <glyph glyph-name="oslash" unicode="&#xf8;" horiz-adv-x="516" 
d="M265 501q90 0 147 -48l43 50l33 -29l-47 -53l3 -3q41 -59 39 -173q0 -93 -38 -156q-60 -96 -193 -96q-93 0 -147 45l-40 -46l-32 27l44 50q-2 2 -2 3q-44 64 -42 176q2 88 26 139q26 55 80.5 84.5t125.5 29.5zM260 373q-45 0 -66 -43q-13 -28 -15 -84q0 -34 4 -54
l133 152q-20 29 -56 29zM336 248q0 28 -3 49l-131 -149q20 -25 54 -25q54 0 71 54q9 31 9 71z" />
    <glyph glyph-name="ugrave" unicode="&#xf9;" horiz-adv-x="551" 
d="M61 495h143v-293q0 -36 19 -56t50 -20q33 0 54.5 20t21.5 56v293h143v-495h-143v42h-2q-19 -22 -53 -35t-64 -13q-79 0 -124 46t-45 132v323zM347 575l-81 -38l-146 186l134 46z" />
    <glyph glyph-name="uacute" unicode="&#xfa;" horiz-adv-x="551" 
d="M61 495h143v-293q0 -36 19 -56t50 -20q33 0 54.5 20t21.5 56v293h143v-495h-143v42h-2q-19 -22 -53 -35t-64 -13q-79 0 -124 46t-45 132v323zM302 537l-83 30l85 203l133 -43z" />
    <glyph glyph-name="ucircumflex" unicode="&#xfb;" horiz-adv-x="551" 
d="M61 495h143v-293q0 -36 19 -56t50 -20q33 0 54.5 20t21.5 56v293h143v-495h-143v42h-2q-19 -22 -53 -35t-64 -13q-79 0 -124 46t-45 132v323zM418 521l-144 104q-9 -6 -63 -45t-82 -58l-53 48l147 155h103l148 -155z" />
    <glyph glyph-name="udieresis" unicode="&#xfc;" horiz-adv-x="551" 
d="M61 495h143v-293q0 -36 19 -56t50 -20q33 0 54.5 20t21.5 56v293h143v-495h-143v42h-2q-19 -22 -53 -35t-64 -13q-79 0 -124 46t-45 132v323zM455 569h-149v130h149v-130zM236 569h-148v130h148v-130z" />
    <glyph glyph-name="yacute" unicode="&#xfd;" horiz-adv-x="502" 
d="M502 495l-224 -591q-39 -104 -157 -104h-57v117h37q41 0 57 49l24 74l-182 455h153l48 -141l48 -156h4l47 154l50 143h152zM289 537l-83 30l85 203l133 -43z" />
    <glyph glyph-name="thorn" unicode="&#xfe;" horiz-adv-x="533" 
d="M63 727h142v-267l3 -1q37 40 98 40q190 0 190 -263q0 -34 -4.5 -64.5t-17.5 -64t-34 -58t-56.5 -40t-82.5 -15.5q-25 0 -50.5 12.5t-42.5 32.5l-3 -1v-240h-142v929zM205 246q0 -122 72 -122q73 0 73 122q0 19 -1 32.5t-5 32t-11 30t-21.5 20t-34.5 8.5
q-24 0 -39.5 -11.5t-22 -33t-8.5 -38.5t-2 -40z" />
    <glyph glyph-name="ydieresis" unicode="&#xff;" horiz-adv-x="502" 
d="M502 495l-224 -591q-39 -104 -157 -104h-57v117h37q41 0 57 49l24 74l-182 455h153l48 -141l48 -156h4l47 154l50 143h152zM426 569h-149v130h149v-130zM207 569h-148v130h148v-130z" />
    <glyph glyph-name="Amacron" unicode="&#x100;" horiz-adv-x="660" 
d="M659 0h-162l-52 142h-233l-52 -142h-162l270 696h121zM397 272l-26 80l-41 138h-4l-40 -136l-26 -82h137zM496 758h-333v118h333v-118z" />
    <glyph glyph-name="amacron" unicode="&#x101;" horiz-adv-x="516" 
d="M468 0h-142v46l-3 1q-44 -52 -122 -52q-76 0 -121 38t-45 114q0 66 48 109.5t131 43.5h112v16q0 60 -83 60q-73 0 -117 -39l-69 97q73 66 201 66q210 0 210 -169v-331zM326 180v16h-94q-60 0 -60 -37q0 -9 4 -18t20.5 -18.5t43.5 -9.5q36 0 61 17t25 50zM425 578h-333
v118h333v-118z" />
    <glyph glyph-name="Abreve" unicode="&#x102;" horiz-adv-x="660" 
d="M659 0h-162l-52 142h-233l-52 -142h-162l270 696h121zM397 272l-26 80l-41 138h-4l-40 -136l-26 -82h137zM328 731q-41 0 -71.5 16t-47.5 42t-25.5 51t-11.5 52h100q0 -23 15 -45.5t41 -22.5t41 22.5t15 45.5h100q-3 -27 -11.5 -52t-25.5 -51t-47.5 -42t-71.5 -16z" />
    <glyph glyph-name="abreve" unicode="&#x103;" horiz-adv-x="516" 
d="M468 0h-142v46l-3 1q-44 -52 -122 -52q-76 0 -121 38t-45 114q0 66 48 109.5t131 43.5h112v16q0 60 -83 60q-73 0 -117 -39l-69 97q73 66 201 66q210 0 210 -169v-331zM326 180v16h-94q-60 0 -60 -37q0 -9 4 -18t20.5 -18.5t43.5 -9.5q36 0 61 17t25 50zM266 561
q-41 0 -71.5 16t-47.5 42t-25.5 51t-11.5 52h100q0 -23 15 -45.5t41 -22.5t41 22.5t15 45.5h100q-3 -27 -11.5 -52t-25.5 -51t-47.5 -42t-71.5 -16z" />
    <glyph glyph-name="Aogonek" unicode="&#x104;" horiz-adv-x="660" 
d="M454 -104q0 43 42 105l-51 141h-233l-52 -142h-162l270 696h121l270 -696h-70q-44 -60 -44 -89q0 -27 32 -27q23 0 64 15l28 -70q-55 -31 -108 -31q-46 0 -76.5 28.5t-30.5 69.5zM397 272l-26 80l-41 138h-4l-40 -136l-26 -82h137z" />
    <glyph glyph-name="aogonek" unicode="&#x105;" horiz-adv-x="516" 
d="M284 -104q0 45 42 105v45l-3 1q-44 -52 -122 -52q-76 0 -121 38t-45 114q0 66 48 109.5t131 43.5h112v16q0 60 -83 60q-73 0 -117 -39l-69 97q73 66 201 66q210 0 210 -169v-331h-49q-44 -60 -44 -89q0 -27 32 -27q23 0 64 15l28 -70q-55 -31 -108 -31q-46 0 -76.5 28.5
t-30.5 69.5zM326 180v16h-94q-60 0 -60 -37q0 -9 4 -18t20.5 -18.5t43.5 -9.5q36 0 61 17t25 50z" />
    <glyph glyph-name="Cacute" unicode="&#x106;" horiz-adv-x="600" 
d="M237 733l-56 69l180 128l90 -107zM427 225l146 -56q-26 -82 -94 -128.5t-165 -46.5q-132 0 -200.5 74t-68.5 198v164q0 115 70 193t199 78q97 0 165 -48t94 -129l-146 -52q-9 38 -38.5 61.5t-75.5 23.5q-54 0 -83.5 -33t-29.5 -80v-189q0 -49 29 -83t84 -34q45 0 75.5 24
t38.5 63z" />
    <glyph glyph-name="cacute" unicode="&#x107;" horiz-adv-x="463" 
d="M444 70q-84 -76 -187 -76q-99 0 -164 63.5t-65 189.5t68 189.5t169 63.5q104 0 175 -72l-92 -97q-42 41 -83 41q-88 0 -88 -125q0 -65 20 -94t65 -29q43 0 88 42zM266 537l-83 30l85 203l133 -43z" />
    <glyph glyph-name="Ccircumflex" unicode="&#x108;" horiz-adv-x="600" 
d="M427 225l146 -56q-26 -82 -94 -128.5t-165 -46.5q-132 0 -200.5 74t-68.5 198v164q0 115 70 193t199 78q97 0 165 -48t94 -129l-146 -52q-9 38 -38.5 61.5t-75.5 23.5q-54 0 -83.5 -33t-29.5 -80v-189q0 -49 29 -83t84 -34q45 0 75.5 24t38.5 63zM458 726l-149 79
l-150 -78l-48 58l149 120h98l151 -120z" />
    <glyph glyph-name="ccircumflex" unicode="&#x109;" horiz-adv-x="463" 
d="M444 70q-84 -76 -187 -76q-99 0 -164 63.5t-65 189.5t68 189.5t169 63.5q104 0 175 -72l-92 -97q-42 41 -83 41q-88 0 -88 -125q0 -65 20 -94t65 -29q43 0 88 42zM398 521l-144 104q-9 -6 -63 -45t-82 -58l-53 48l147 155h103l148 -155z" />
    <glyph glyph-name="Cdotaccent" unicode="&#x10a;" horiz-adv-x="600" 
d="M427 225l146 -56q-26 -82 -94 -128.5t-165 -46.5q-132 0 -200.5 74t-68.5 198v164q0 115 70 193t199 78q97 0 165 -48t94 -129l-146 -52q-9 38 -38.5 61.5t-75.5 23.5q-54 0 -83.5 -33t-29.5 -80v-189q0 -49 29 -83t84 -34q45 0 75.5 24t38.5 63zM397 749h-148v130h148
v-130z" />
    <glyph glyph-name="cdotaccent" unicode="&#x10b;" horiz-adv-x="463" 
d="M444 70q-84 -76 -187 -76q-99 0 -164 63.5t-65 189.5t68 189.5t169 63.5q104 0 175 -72l-92 -97q-42 41 -83 41q-88 0 -88 -125q0 -65 20 -94t65 -29q43 0 88 42zM326 569h-148v130h148v-130z" />
    <glyph glyph-name="Ccaron" unicode="&#x10c;" horiz-adv-x="600" 
d="M427 225l146 -56q-26 -82 -94 -128.5t-165 -46.5q-132 0 -200.5 74t-68.5 198v164q0 115 70 193t199 78q97 0 165 -48t94 -129l-146 -52q-9 38 -38.5 61.5t-75.5 23.5q-54 0 -83.5 -33t-29.5 -80v-189q0 -49 29 -83t84 -34q45 0 75.5 24t38.5 63zM310 829l149 79l51 -59
l-151 -120h-98l-149 120l48 58z" />
    <glyph glyph-name="ccaron" unicode="&#x10d;" horiz-adv-x="463" 
d="M444 70q-84 -76 -187 -76q-99 0 -164 63.5t-65 189.5t68 189.5t169 63.5q104 0 175 -72l-92 -97q-42 41 -83 41q-88 0 -88 -125q0 -65 20 -94t65 -29q43 0 88 42zM254 621l144 104l56 -49l-148 -155h-103l-147 155l53 48q28 -19 82 -58t63 -45z" />
    <glyph glyph-name="Dcaron" unicode="&#x10e;" horiz-adv-x="657" 
d="M224 557v-419h101q73 0 103 38t30 111v127q0 73 -32 108t-104 35h-98zM70 696h277q175 0 237 -129q27 -55 27 -207q0 -163 -25 -222q-60 -138 -256 -138h-260v696zM325 829l149 79l51 -59l-151 -120h-98l-149 120l48 58z" />
    <glyph glyph-name="dcaron" unicode="&#x10f;" horiz-adv-x="704" 
d="M609 469h-67l35 108h-33v151h154v-143zM483 0h-143v39l-2 2q-43 -46 -109 -46q-49 0 -84 18t-53.5 43t-28.5 64.5t-12 68.5t-2 69q0 41 8.5 80t27.5 77.5t57 62t91 23.5q66 0 105 -46l2 1v270h143v-726zM340 248q0 23 -2 40.5t-8.5 37.5t-22 31t-38.5 11q-25 0 -41.5 -12
t-23 -35.5t-8 -41t-1.5 -44.5q0 -108 73 -108q24 0 39.5 11t22 32.5t8 37t2.5 40.5z" />
    <glyph glyph-name="Dcroat" unicode="&#x110;" horiz-adv-x="657" 
d="M6 300v107h64v289h277q175 0 237 -129q27 -55 27 -207q0 -163 -25 -222q-60 -138 -256 -138h-260v300h-64zM224 557v-150h109v-107h-109v-162h101q73 0 103 38t30 111v127q0 73 -32 108t-104 35h-98z" />
    <glyph glyph-name="dcroat" unicode="&#x111;" horiz-adv-x="533" 
d="M226 544v87h114v95h143v-95h50v-87h-50v-544h-143v39l-2 2q-43 -46 -109 -46q-49 0 -84 18t-53.5 43t-28.5 64.5t-12 68.5t-2 69q0 41 8.5 80t27.5 77.5t57 62t91 23.5q66 0 105 -46l2 1v88h-114zM340 248q0 23 -2 40.5t-8.5 37.5t-22 31t-38.5 11q-25 0 -41.5 -12
t-23 -35.5t-8 -41t-1.5 -44.5q0 -108 73 -108q24 0 39.5 11t22 32.5t8 37t2.5 40.5z" />
    <glyph glyph-name="Emacron" unicode="&#x112;" horiz-adv-x="585" 
d="M562 0h-492v696h492v-138h-338v-141h288v-133h-288v-146h338v-138zM476 758h-333v118h333v-118z" />
    <glyph glyph-name="emacron" unicode="&#x113;" horiz-adv-x="533" 
d="M489 210h-306q4 -46 25 -66.5t58 -20.5q61 0 112 46l88 -98q-84 -77 -204 -77q-44 0 -82 12t-72 39t-53.5 78.5t-19.5 122.5q0 130 66 192t160 62q114 0 171 -69t57 -186v-35zM335 302q-4 33 -24.5 52t-48.5 19t-48.5 -19.5t-25.5 -51.5h147zM435 578h-333v118h333v-118z
" />
    <glyph glyph-name="Ebreve" unicode="&#x114;" horiz-adv-x="585" 
d="M562 0h-492v696h492v-138h-338v-141h288v-133h-288v-146h338v-138zM318 731q-41 0 -71.5 16t-47.5 42t-25.5 51t-11.5 52h100q0 -23 15 -45.5t41 -22.5t41 22.5t15 45.5h100q-3 -27 -11.5 -52t-25.5 -51t-47.5 -42t-71.5 -16z" />
    <glyph glyph-name="ebreve" unicode="&#x115;" horiz-adv-x="533" 
d="M489 210h-306q4 -46 25 -66.5t58 -20.5q61 0 112 46l88 -98q-84 -77 -204 -77q-44 0 -82 12t-72 39t-53.5 78.5t-19.5 122.5q0 130 66 192t160 62q114 0 171 -69t57 -186v-35zM335 302q-4 33 -24.5 52t-48.5 19t-48.5 -19.5t-25.5 -51.5h147zM266 561q-41 0 -71.5 16
t-47.5 42t-25.5 51t-11.5 52h100q0 -23 15 -45.5t41 -22.5t41 22.5t15 45.5h100q-3 -27 -11.5 -52t-25.5 -51t-47.5 -42t-71.5 -16z" />
    <glyph glyph-name="Edotaccent" unicode="&#x116;" horiz-adv-x="585" 
d="M562 0h-492v696h492v-138h-338v-141h288v-133h-288v-146h338v-138zM392 749h-148v130h148v-130z" />
    <glyph glyph-name="edotaccent" unicode="&#x117;" horiz-adv-x="533" 
d="M489 210h-306q4 -46 25 -66.5t58 -20.5q61 0 112 46l88 -98q-84 -77 -204 -77q-44 0 -82 12t-72 39t-53.5 78.5t-19.5 122.5q0 130 66 192t160 62q114 0 171 -69t57 -186v-35zM335 302q-4 33 -24.5 52t-48.5 19t-48.5 -19.5t-25.5 -51.5h147zM345 569h-148v130h148v-130z
" />
    <glyph glyph-name="Eogonek" unicode="&#x118;" horiz-adv-x="585" 
d="M427 -104q0 44 41 104h-398v696h492v-138h-338v-141h288v-133h-288v-146h338v-138q-44 -60 -44 -89q0 -27 32 -27q23 0 64 15l28 -70q-55 -31 -108 -31q-46 0 -76.5 28.5t-30.5 69.5z" />
    <glyph glyph-name="eogonek" unicode="&#x119;" horiz-adv-x="533" 
d="M280 -70q0 30 18 66q-24 -2 -36 -2q-44 0 -82 12t-72 39t-53.5 78.5t-19.5 122.5q0 130 66 192t160 62q114 0 171 -69t57 -186v-35h-306q4 -46 25 -66.5t58 -20.5q61 0 112 46l88 -98q-28 -25 -52 -38q-43 -59 -43 -88q0 -27 32 -27q23 0 64 15l28 -70q-55 -31 -108 -31
q-46 0 -76.5 28.5t-30.5 69.5zM335 302q-4 33 -24.5 52t-48.5 19t-48.5 -19.5t-25.5 -51.5h147z" />
    <glyph glyph-name="Ecaron" unicode="&#x11a;" horiz-adv-x="585" 
d="M562 0h-492v696h492v-138h-338v-141h288v-133h-288v-146h338v-138zM313 829l149 79l51 -59l-151 -120h-98l-149 120l48 58z" />
    <glyph glyph-name="ecaron" unicode="&#x11b;" horiz-adv-x="533" 
d="M489 210h-306q4 -46 25 -66.5t58 -20.5q61 0 112 46l88 -98q-84 -77 -204 -77q-44 0 -82 12t-72 39t-53.5 78.5t-19.5 122.5q0 130 66 192t160 62q114 0 171 -69t57 -186v-35zM335 302q-4 33 -24.5 52t-48.5 19t-48.5 -19.5t-25.5 -51.5h147zM266 621l144 104l56 -49
l-148 -155h-103l-147 155l53 48q28 -19 82 -58t63 -45z" />
    <glyph glyph-name="Gcircumflex" unicode="&#x11c;" horiz-adv-x="637" 
d="M318 701q97 0 165 -48t94 -129l-146 -52q-9 38 -38.5 61.5t-75.5 23.5q-54 0 -83.5 -33t-29.5 -80v-189q0 -49 29.5 -83.5t84.5 -34.5q49 0 84.5 35t35.5 82v5h-142v128h294v-139q0 -108 -79 -181t-193 -73q-132 0 -200.5 74t-68.5 198v164q0 115 70 193t199 78zM458 726
l-149 79l-150 -78l-48 58l149 120h98l151 -120z" />
    <glyph glyph-name="gcircumflex" unicode="&#x11d;" horiz-adv-x="533" 
d="M474 495v-482q0 -111 -66.5 -165.5t-165.5 -54.5q-110 0 -184 64l70 99q54 -35 113 -35q39 0 65 21.5t26 58.5v39l-2 1q-17 -20 -47 -33.5t-56 -13.5q-187 0 -187 242q0 263 186 263q66 0 103 -40l2 1v35h143zM331 246q0 23 -2 40t-8 37.5t-21.5 32t-39.5 11.5
q-25 0 -41 -11t-22.5 -31.5t-8.5 -37.5t-2 -41q0 -25 2 -42t9 -37t22.5 -30.5t40.5 -10.5q23 0 38.5 11t22 31t8.5 37.5t2 40.5zM408 521l-144 104q-9 -6 -63 -45t-82 -58l-53 48l147 155h103l148 -155z" />
    <glyph glyph-name="Gbreve" unicode="&#x11e;" horiz-adv-x="637" 
d="M318 701q97 0 165 -48t94 -129l-146 -52q-9 38 -38.5 61.5t-75.5 23.5q-54 0 -83.5 -33t-29.5 -80v-189q0 -49 29.5 -83.5t84.5 -34.5q49 0 84.5 35t35.5 82v5h-142v128h294v-139q0 -108 -79 -181t-193 -73q-132 0 -200.5 74t-68.5 198v164q0 115 70 193t199 78zM316 731
q-41 0 -71.5 16t-47.5 42t-25.5 51t-11.5 52h100q0 -23 15 -45.5t41 -22.5t41 22.5t15 45.5h100q-3 -27 -11.5 -52t-25.5 -51t-47.5 -42t-71.5 -16z" />
    <glyph glyph-name="gbreve" unicode="&#x11f;" horiz-adv-x="533" 
d="M474 495v-482q0 -111 -66.5 -165.5t-165.5 -54.5q-110 0 -184 64l70 99q54 -35 113 -35q39 0 65 21.5t26 58.5v39l-2 1q-17 -20 -47 -33.5t-56 -13.5q-187 0 -187 242q0 263 186 263q66 0 103 -40l2 1v35h143zM331 246q0 23 -2 40t-8 37.5t-21.5 32t-39.5 11.5
q-25 0 -41 -11t-22.5 -31.5t-8.5 -37.5t-2 -41q0 -25 2 -42t9 -37t22.5 -30.5t40.5 -10.5q23 0 38.5 11t22 31t8.5 37.5t2 40.5zM266 561q-41 0 -71.5 16t-47.5 42t-25.5 51t-11.5 52h100q0 -23 15 -45.5t41 -22.5t41 22.5t15 45.5h100q-3 -27 -11.5 -52t-25.5 -51
t-47.5 -42t-71.5 -16z" />
    <glyph glyph-name="Gdotaccent" unicode="&#x120;" horiz-adv-x="637" 
d="M318 701q97 0 165 -48t94 -129l-146 -52q-9 38 -38.5 61.5t-75.5 23.5q-54 0 -83.5 -33t-29.5 -80v-189q0 -49 29.5 -83.5t84.5 -34.5q49 0 84.5 35t35.5 82v5h-142v128h294v-139q0 -108 -79 -181t-193 -73q-132 0 -200.5 74t-68.5 198v164q0 115 70 193t199 78zM390 749
h-148v130h148v-130z" />
    <glyph glyph-name="gdotaccent" unicode="&#x121;" horiz-adv-x="533" 
d="M474 495v-482q0 -111 -66.5 -165.5t-165.5 -54.5q-110 0 -184 64l70 99q54 -35 113 -35q39 0 65 21.5t26 58.5v39l-2 1q-17 -20 -47 -33.5t-56 -13.5q-187 0 -187 242q0 263 186 263q66 0 103 -40l2 1v35h143zM331 246q0 23 -2 40t-8 37.5t-21.5 32t-39.5 11.5
q-25 0 -41 -11t-22.5 -31.5t-8.5 -37.5t-2 -41q0 -25 2 -42t9 -37t22.5 -30.5t40.5 -10.5q23 0 38.5 11t22 31t8.5 37.5t2 40.5zM361 569h-148v130h148v-130z" />
    <glyph glyph-name="Gcommaaccent" unicode="&#x122;" horiz-adv-x="637" 
d="M318 701q97 0 165 -48t94 -129l-146 -52q-9 38 -38.5 61.5t-75.5 23.5q-54 0 -83.5 -33t-29.5 -80v-189q0 -49 29.5 -83.5t84.5 -34.5q49 0 84.5 35t35.5 82v5h-142v128h294v-139q0 -108 -79 -181t-193 -73q-132 0 -200.5 74t-68.5 198v164q0 115 70 193t199 78z
M288 -313h-67l35 108h-33v151h154v-143z" />
    <glyph glyph-name="gcommaaccent" unicode="&#x123;" horiz-adv-x="533" 
d="M292 857h67l-35 -108h33v-151h-154v143zM474 495v-482q0 -111 -66.5 -165.5t-165.5 -54.5q-110 0 -184 64l70 99q54 -35 113 -35q39 0 65 21.5t26 58.5v39l-2 1q-17 -20 -47 -33.5t-56 -13.5q-187 0 -187 242q0 263 186 263q66 0 103 -40l2 1v35h143zM331 246q0 23 -2 40
t-8 37.5t-21.5 32t-39.5 11.5q-25 0 -41 -11t-22.5 -31.5t-8.5 -37.5t-2 -41q0 -25 2 -42t9 -37t22.5 -30.5t40.5 -10.5q23 0 38.5 11t22 31t8.5 37.5t2 40.5z" />
    <glyph glyph-name="Hcircumflex" unicode="&#x124;" horiz-adv-x="674" 
d="M604 0h-152v284h-228v-284h-154v696h154v-279h228v279h152v-696zM494 726l-149 79l-150 -78l-48 58l149 120h98l151 -120z" />
    <glyph glyph-name="hcircumflex" unicode="&#x125;" horiz-adv-x="551" 
d="M490 0h-142v292q0 36 -19.5 56t-50.5 20q-33 0 -54 -20t-21 -56v-292h-143v726h143v-266l4 -1q20 17 53.5 29t61.5 12q73 0 120.5 -47t47.5 -131v-322zM277 726l-149 79l-150 -78l-48 58l149 120h98l151 -120z" />
    <glyph glyph-name="Hbar" unicode="&#x126;" horiz-adv-x="674" 
d="M604 0h-152v284h-228v-284h-154v502h-49v93h49v101h154v-101h228v101h152v-101h50v-93h-50v-502zM224 417h228v85h-228v-85z" />
    <glyph glyph-name="hbar" unicode="&#x127;" horiz-adv-x="581" 
d="M520 0h-142v277q0 36 -19.5 56t-50.5 20q-34 0 -54.5 -23.5t-20.5 -61.5v-268h-143v550h-75v93h75v83h143v-83h182v-93h-182v-105l4 -1q21 18 56 29.5t69 11.5q72 0 115 -46.5t43 -131.5v-307z" />
    <glyph glyph-name="Itilde" unicode="&#x128;" horiz-adv-x="294" 
d="M227 0h-154v696h154v-696zM73 881q28 -1 73.5 -25t59.5 -24q30 0 67 48l68 -40q-50 -109 -121 -109q-29 0 -76.5 23.5t-63.5 23.5q-37 0 -74 -50l-65 41q27 56 58 84t74 28z" />
    <glyph glyph-name="itilde" unicode="&#x129;" horiz-adv-x="366" 
d="M119 711q28 -1 73.5 -25t59.5 -24q30 0 67 48l68 -40q-50 -109 -121 -109q-29 0 -76.5 23.5t-63.5 23.5q-37 0 -74 -50l-65 41q27 56 58 84t74 28zM263 0h-143v495h143v-495z" />
    <glyph glyph-name="Imacron" unicode="&#x12a;" horiz-adv-x="306" 
d="M239 0h-154v696h154v-696zM324 758h-333v118h333v-118z" />
    <glyph glyph-name="imacron" unicode="&#x12b;" horiz-adv-x="312" 
d="M232 0h-143v495h143v-495zM323 578h-333v118h333v-118z" />
    <glyph glyph-name="Ibreve" unicode="&#x12c;" horiz-adv-x="294" 
d="M148 731q-41 0 -71.5 16t-47.5 42t-25.5 51t-11.5 52h100q0 -23 15 -45.5t41 -22.5t41 22.5t15 45.5h100q-3 -27 -11.5 -52t-25.5 -51t-47.5 -42t-71.5 -16zM227 0h-154v696h154v-696z" />
    <glyph glyph-name="ibreve" unicode="&#x12d;" horiz-adv-x="269" 
d="M206 0h-143v495h143v-495zM136 567q-41 0 -71.5 16t-47.5 42t-25.5 51t-11.5 52h100q0 -23 15 -45.5t41 -22.5t41 22.5t15 45.5h100q-3 -27 -11.5 -52t-25.5 -51t-47.5 -42t-71.5 -16z" />
    <glyph glyph-name="Iogonek" unicode="&#x12e;" horiz-adv-x="294" 
d="M60 -104q0 44 41 104h-28v696h154v-696h-32q-44 -60 -44 -89q0 -27 32 -27q23 0 64 15l28 -70q-55 -31 -108 -31q-46 0 -76.5 28.5t-30.5 69.5z" />
    <glyph glyph-name="iogonek" unicode="&#x12f;" horiz-adv-x="269" 
d="M46 -103q0 43 40 103h-23v495h143v-495h-26q-43 -57 -43 -88q0 -27 32 -27q23 0 64 15l28 -70q-55 -31 -108 -31q-46 0 -76.5 28.5t-30.5 69.5zM206 571h-143v125h143v-125z" />
    <glyph glyph-name="Idotaccent" unicode="&#x130;" horiz-adv-x="294" 
d="M227 0h-154v696h154v-696zM222 749h-148v130h148v-130z" />
    <glyph glyph-name="dotlessi" unicode="&#x131;" horiz-adv-x="269" 
d="M206 0h-143v495h143v-495z" />
    <glyph glyph-name="IJ" unicode="&#x132;" horiz-adv-x="791" 
d="M227 0h-154v696h154v-696zM728 225q0 -123 -65 -176.5t-169 -53.5q-144 0 -211 93l103 101q50 -54 99 -54q36 0 63.5 21t27.5 76v464h152v-471z" />
    <glyph glyph-name="ij" unicode="&#x133;" horiz-adv-x="532" 
d="M206 571h-143v125h143v-125zM206 0h-143v495h143v-495zM462 571h-143v125h143v-125zM462 496v-548q0 -69 -42 -108.5t-122 -39.5h-60v124h26q33 0 44 14t11 38v520h143z" />
    <glyph glyph-name="Jcircumflex" unicode="&#x134;" horiz-adv-x="511" 
d="M448 226q0 -123 -65 -176.5t-169 -53.5q-144 0 -211 93l103 101q50 -54 99 -54q36 0 63.5 21t27.5 76v464h152v-471zM521 728l-149 79l-150 -78l-48 58l149 120h98l151 -120z" />
    <glyph glyph-name="jcircumflex" unicode="&#x135;" horiz-adv-x="356" 
d="M256 -52q0 -66 -46.5 -107t-117.5 -41h-60v124h33q26 0 37 20t11 41v511h143v-548zM323 521l-144 104q-9 -6 -63 -45t-82 -58l-53 48l147 155h103l148 -155z" />
    <glyph glyph-name="Kcommaaccent" unicode="&#x136;" horiz-adv-x="657" 
d="M677 0h-182l-180 296l-91 -102v-194h-154v696h154v-298l2 -2l106 129l145 171h186l-244 -282zM331 -293h-67l35 108h-33v151h154v-143z" />
    <glyph glyph-name="kcommaaccent" unicode="&#x137;" horiz-adv-x="533" 
d="M548 0h-163l-133 196l-49 -53v-143h-143v726h143v-400l2 -1l65 78l86 92h178l-189 -200zM272 -313h-67l35 108h-33v151h154v-143z" />
    <glyph glyph-name="kgreenlandic" unicode="&#x138;" horiz-adv-x="533" 
d="M548 0h-163l-133 196l-49 -53v-143h-143v495h143v-169l2 -1l65 74l87 96h177l-189 -200z" />
    <glyph glyph-name="Lacute" unicode="&#x139;" horiz-adv-x="585" 
d="M143 733l-56 69l180 128l90 -107zM562 0h-492v696h154v-558h338v-138z" />
    <glyph glyph-name="lacute" unicode="&#x13a;" horiz-adv-x="286" 
d="M116 743l-56 69l180 128l90 -107zM264 0h-51q-153 0 -153 147v579h143v-552q0 -30 11 -40t34 -10h16v-124z" />
    <glyph glyph-name="Lcommaaccent" unicode="&#x13b;" horiz-adv-x="585" 
d="M562 0h-492v696h154v-558h338v-138zM322 -313h-67l35 108h-33v151h154v-143z" />
    <glyph glyph-name="lcommaaccent" unicode="&#x13c;" horiz-adv-x="286" 
d="M264 0h-51q-153 0 -153 147v579h143v-552q0 -30 11 -40t34 -10h16v-124zM150 -308h-67l35 108h-33v151h154v-143z" />
    <glyph glyph-name="Lcaron" unicode="&#x13d;" horiz-adv-x="585" 
d="M562 0h-492v696h154v-558h338v-138zM379 437h-67l35 108h-33v151h154v-143z" />
    <glyph glyph-name="lcaron" unicode="&#x13e;" horiz-adv-x="443" 
d="M352 467h-67l35 108h-33v151h154v-143zM264 0h-51q-153 0 -153 147v579h143v-552q0 -30 11 -40t34 -10h16v-124z" />
    <glyph glyph-name="Ldot" unicode="&#x13f;" horiz-adv-x="585" 
d="M562 0h-492v696h154v-558h338v-138zM482 303h-148v130h148v-130z" />
    <glyph glyph-name="ldot" unicode="&#x140;" horiz-adv-x="425" 
d="M427 310h-148v130h148v-130zM264 0h-51q-153 0 -153 147v579h143v-552q0 -30 11 -40t34 -10h16v-124z" />
    <glyph glyph-name="Lslash" unicode="&#x141;" horiz-adv-x="618" 
d="M595 0h-492v209l-53 -31l-50 87l103 60v371h154v-282l87 51l50 -87l-137 -80v-160h338v-138z" />
    <glyph glyph-name="lslash" unicode="&#x142;" horiz-adv-x="360" 
d="M312 0h-51q-153 0 -153 147v111l-57 -33l-51 87l108 62v352h143v-269l59 34l50 -87l-109 -63v-167q0 -30 11 -40t34 -10h16v-124z" />
    <glyph glyph-name="Nacute" unicode="&#x143;" horiz-adv-x="710" 
d="M287 733l-56 69l180 128l90 -107zM643 0h-137l-177 256l-103 166l-2 -1v-421h-154v696h137l146 -213l134 -209l2 1v421h154v-696z" />
    <glyph glyph-name="nacute" unicode="&#x144;" horiz-adv-x="551" 
d="M490 0h-142v292q0 36 -19.5 56t-50.5 20q-33 0 -54 -20t-21 -56v-292h-143v495h143v-41h2q22 20 56.5 33t63.5 13q80 0 122.5 -45.5t42.5 -132.5v-322zM266 537l-83 30l85 203l133 -43z" />
    <glyph glyph-name="Ncommaaccent" unicode="&#x145;" horiz-adv-x="710" 
d="M643 0h-137l-177 256l-103 166l-2 -1v-421h-154v696h137l146 -213l134 -209l2 1v421h154v-696zM348 -293h-67l35 108h-33v151h154v-143z" />
    <glyph glyph-name="ncommaaccent" unicode="&#x146;" horiz-adv-x="551" 
d="M490 0h-142v292q0 36 -19.5 56t-50.5 20q-33 0 -54 -20t-21 -56v-292h-143v495h143v-41h2q22 20 56.5 33t63.5 13q80 0 122.5 -45.5t42.5 -132.5v-322zM265 -313h-67l35 108h-33v151h154v-143z" />
    <glyph glyph-name="Ncaron" unicode="&#x147;" horiz-adv-x="710" 
d="M643 0h-137l-177 256l-103 166l-2 -1v-421h-154v696h137l146 -213l134 -209l2 1v421h154v-696zM352 829l149 79l51 -59l-151 -120h-98l-149 120l48 58z" />
    <glyph glyph-name="ncaron" unicode="&#x148;" horiz-adv-x="551" 
d="M490 0h-142v292q0 36 -19.5 56t-50.5 20q-33 0 -54 -20t-21 -56v-292h-143v495h143v-41h2q22 20 56.5 33t63.5 13q80 0 122.5 -45.5t42.5 -132.5v-322zM263 621l144 104l56 -49l-148 -155h-103l-147 155l53 48q28 -19 82 -58t63 -45z" />
    <glyph glyph-name="napostrophe" unicode="&#x149;" horiz-adv-x="681" 
d="M620 0h-142v292q0 36 -19.5 56t-50.5 20q-33 0 -54 -20t-21 -56v-292h-143v495h143v-41h2q22 20 56.5 33t63.5 13q80 0 122.5 -45.5t42.5 -132.5v-322zM66 414h-67l35 108h-33v151h154v-143z" />
    <glyph glyph-name="Eng" unicode="&#x14a;" horiz-adv-x="710" 
d="M643 696v-762q0 -56 -36 -90t-100 -34q-58 0 -107 26l31 96q19 -5 36 -5q34 0 34 39v41l-172 249l-103 166l-2 -1v-421h-154v696h137l146 -213l134 -209l2 1v421h154z" />
    <glyph glyph-name="eng" unicode="&#x14b;" horiz-adv-x="551" 
d="M490 -66q0 -56 -36 -90t-100 -34q-58 0 -107 26l31 96q19 -5 36 -5q34 0 34 39v326q0 36 -20.5 56t-51.5 20q-33 0 -53 -20t-20 -56v-292h-143v495h143v-41h2q49 46 110 46q82 0 128.5 -46t46.5 -132v-388z" />
    <glyph glyph-name="Omacron" unicode="&#x14c;" horiz-adv-x="624" 
d="M310 701q124 0 198.5 -76t74.5 -195v-164q0 -124 -74.5 -198t-198.5 -74q-129 0 -199 78t-70 194v164q0 115 70 193t199 78zM309 557q-54 0 -83.5 -33t-29.5 -80v-189q0 -49 29 -83t84 -34q54 0 85.5 33t31.5 84v189q0 48 -31.5 80.5t-85.5 32.5zM479 758h-333v118h333
v-118z" />
    <glyph glyph-name="omacron" unicode="&#x14d;" horiz-adv-x="516" 
d="M265 501q122 0 179 -83q41 -59 39 -173q0 -93 -38 -156q-60 -96 -193 -96q-123 0 -177 79q-44 64 -42 176q2 88 26 139q26 55 80.5 84.5t125.5 29.5zM260 373q-45 0 -66 -43q-13 -28 -15 -84q0 -54 14 -82q20 -41 63 -41q54 0 71 54q9 31 9 71q1 53 -12 82q-18 43 -64 43
zM428 578h-333v118h333v-118z" />
    <glyph glyph-name="Obreve" unicode="&#x14e;" horiz-adv-x="624" 
d="M310 701q124 0 198.5 -76t74.5 -195v-164q0 -124 -74.5 -198t-198.5 -74q-129 0 -199 78t-70 194v164q0 115 70 193t199 78zM309 557q-54 0 -83.5 -33t-29.5 -80v-189q0 -49 29 -83t84 -34q54 0 85.5 33t31.5 84v189q0 48 -31.5 80.5t-85.5 32.5zM309 731q-41 0 -71.5 16
t-47.5 42t-25.5 51t-11.5 52h100q0 -23 15 -45.5t41 -22.5t41 22.5t15 45.5h100q-3 -27 -11.5 -52t-25.5 -51t-47.5 -42t-71.5 -16z" />
    <glyph glyph-name="obreve" unicode="&#x14f;" horiz-adv-x="516" 
d="M265 501q122 0 179 -83q41 -59 39 -173q0 -93 -38 -156q-60 -96 -193 -96q-123 0 -177 79q-44 64 -42 176q2 88 26 139q26 55 80.5 84.5t125.5 29.5zM260 373q-45 0 -66 -43q-13 -28 -15 -84q0 -54 14 -82q20 -41 63 -41q54 0 71 54q9 31 9 71q1 53 -12 82q-18 43 -64 43
zM260 561q-41 0 -71.5 16t-47.5 42t-25.5 51t-11.5 52h100q0 -23 15 -45.5t41 -22.5t41 22.5t15 45.5h100q-3 -27 -11.5 -52t-25.5 -51t-47.5 -42t-71.5 -16z" />
    <glyph glyph-name="Ohungarumlaut" unicode="&#x150;" horiz-adv-x="624" 
d="M310 701q124 0 198.5 -76t74.5 -195v-164q0 -124 -74.5 -198t-198.5 -74q-129 0 -199 78t-70 194v164q0 115 70 193t199 78zM309 557q-54 0 -83.5 -33t-29.5 -80v-189q0 -49 29 -83t84 -34q54 0 85.5 33t31.5 84v189q0 48 -31.5 80.5t-85.5 32.5zM172 723l-65 61l161 151
l104 -94zM392 723l-65 61l161 151l104 -94z" />
    <glyph glyph-name="ohungarumlaut" unicode="&#x151;" horiz-adv-x="516" 
d="M265 501q122 0 179 -83q41 -59 39 -173q0 -93 -38 -156q-60 -96 -193 -96q-123 0 -177 79q-44 64 -42 176q2 88 26 139q26 55 80.5 84.5t125.5 29.5zM260 373q-45 0 -66 -43q-13 -28 -15 -84q0 -54 14 -82q20 -41 63 -41q54 0 71 54q9 31 9 71q1 53 -12 82q-18 43 -64 43
zM198 537l-83 30l85 203l133 -43zM385 537l-83 30l85 203l133 -43z" />
    <glyph glyph-name="OE" unicode="&#x152;" horiz-adv-x="882" 
d="M859 0h-483q-32 -6 -66 -6q-129 0 -199 78t-70 194v164q0 115 70 193t199 78q27 0 57 -5h492v-138h-338v-141h288v-133h-288v-146h338v-138zM309 138q32 0 58 13v393q-28 13 -58 13q-54 0 -83.5 -33t-29.5 -80v-189q0 -49 29 -83t84 -34z" />
    <glyph glyph-name="oe" unicode="&#x153;" horiz-adv-x="841" 
d="M797 210h-306q4 -46 25 -66.5t58 -20.5q61 0 112 46l88 -98q-84 -77 -204 -77q-104 0 -158 75q-24 -37 -67.5 -56.5t-90.5 -19.5q-122 0 -177 81q-44 64 -42 174q2 85 26 137q26 55 81 85.5t125 30.5q107 0 152 -71q44 70 150 70q114 0 171 -69t57 -186v-35zM262 373
q-47 0 -68 -43q-13 -28 -15 -84q0 -54 14 -82q20 -41 65 -41q56 0 73 54q9 31 9 71q1 53 -12 82q-18 43 -66 43zM643 302q-4 33 -24.5 52t-48.5 19t-48.5 -19.5t-25.5 -51.5h147z" />
    <glyph glyph-name="Racute" unicode="&#x154;" horiz-adv-x="652" 
d="M237 733l-56 69l180 128l90 -107zM608 0h-174l-110 269h-100v-269h-154v696h308q96 0 160.5 -56t64.5 -153q0 -63 -33 -113.5t-95 -77.5zM443 486q0 73 -87 73h-132v-152h127q43 0 67.5 20.5t24.5 58.5z" />
    <glyph glyph-name="racute" unicode="&#x155;" horiz-adv-x="411" 
d="M276 370q-33 0 -53 -20t-20 -56v-295h-143v496h140v-56l3 -1q43 62 110 62q60 0 105 -31l-50 -125q-43 26 -92 26zM213 537l-83 30l85 203l133 -43z" />
    <glyph glyph-name="Rcommaaccent" unicode="&#x156;" horiz-adv-x="652" 
d="M608 0h-174l-110 269h-100v-269h-154v696h308q96 0 160.5 -56t64.5 -153q0 -63 -33 -113.5t-95 -77.5zM443 486q0 73 -87 73h-132v-152h127q43 0 67.5 20.5t24.5 58.5zM318 -293h-67l35 108h-33v151h154v-143z" />
    <glyph glyph-name="rcommaaccent" unicode="&#x157;" horiz-adv-x="411" 
d="M276 370q-33 0 -53 -20t-20 -56v-295h-143v496h140v-56l3 -1q43 62 110 62q60 0 105 -31l-50 -125q-43 26 -92 26zM117 -313h-67l35 108h-33v151h154v-143z" />
    <glyph glyph-name="Rcaron" unicode="&#x158;" horiz-adv-x="652" 
d="M608 0h-174l-110 269h-100v-269h-154v696h308q96 0 160.5 -56t64.5 -153q0 -63 -33 -113.5t-95 -77.5zM443 486q0 73 -87 73h-132v-152h127q43 0 67.5 20.5t24.5 58.5zM280 829l149 79l51 -59l-151 -120h-98l-149 120l48 58z" />
    <glyph glyph-name="rcaron" unicode="&#x159;" horiz-adv-x="411" 
d="M276 370q-33 0 -53 -20t-20 -56v-295h-143v496h140v-56l3 -1q43 62 110 62q60 0 105 -31l-50 -125q-43 26 -92 26zM203 621l144 104l56 -49l-148 -155h-103l-147 155l53 48q28 -19 82 -58t63 -45z" />
    <glyph glyph-name="Sacute" unicode="&#x15a;" horiz-adv-x="594" 
d="M272 733l-56 69l180 128l90 -107zM540 637l-71 -123q-74 47 -171 47q-51 0 -71.5 -19.5t-20.5 -45.5q0 -32 28.5 -46t117.5 -28q47 -7 83 -20.5t67 -37t48 -61.5t17 -89q0 -103 -82.5 -161.5t-192.5 -58.5q-175 0 -284 96l89 118q82 -73 203 -73q48 0 76.5 20t28.5 49
q0 31 -19 51t-76 25q-55 5 -96.5 16.5t-80.5 33.5t-59.5 62t-20.5 96q0 103 72.5 158.5t168.5 55.5q148 0 246 -65z" />
    <glyph glyph-name="sacute" unicode="&#x15b;" horiz-adv-x="468" 
d="M445 155q0 -76 -61.5 -118.5t-147.5 -42.5q-65 0 -117.5 15.5t-104.5 61.5l70 100q59 -57 158 -57q27 0 45 11t18 26q0 36 -62 43q-45 5 -74 11.5t-61 21.5t-48 43.5t-16 69.5q0 77 53.5 118.5t134.5 41.5q124 0 202 -58l-64 -106q-60 41 -135 41q-29 0 -43.5 -10
t-14.5 -22q0 -17 21.5 -26t78.5 -16q79 -10 123.5 -42t44.5 -106zM266 537l-83 30l85 203l133 -43z" />
    <glyph glyph-name="Scircumflex" unicode="&#x15c;" horiz-adv-x="594" 
d="M540 637l-71 -123q-74 47 -171 47q-51 0 -71.5 -19.5t-20.5 -45.5q0 -32 28.5 -46t117.5 -28q47 -7 83 -20.5t67 -37t48 -61.5t17 -89q0 -103 -82.5 -161.5t-192.5 -58.5q-175 0 -284 96l89 118q82 -73 203 -73q48 0 76.5 20t28.5 49q0 31 -19 51t-76 25
q-55 5 -96.5 16.5t-80.5 33.5t-59.5 62t-20.5 96q0 103 72.5 158.5t168.5 55.5q148 0 246 -65zM465 726l-149 79l-150 -78l-48 58l149 120h98l151 -120z" />
    <glyph glyph-name="scircumflex" unicode="&#x15d;" horiz-adv-x="468" 
d="M445 155q0 -76 -61.5 -118.5t-147.5 -42.5q-65 0 -117.5 15.5t-104.5 61.5l70 100q59 -57 158 -57q27 0 45 11t18 26q0 36 -62 43q-45 5 -74 11.5t-61 21.5t-48 43.5t-16 69.5q0 77 53.5 118.5t134.5 41.5q124 0 202 -58l-64 -106q-60 41 -135 41q-29 0 -43.5 -10
t-14.5 -22q0 -17 21.5 -26t78.5 -16q79 -10 123.5 -42t44.5 -106zM398 521l-144 104q-9 -6 -63 -45t-82 -58l-53 48l147 155h103l148 -155z" />
    <glyph glyph-name="Scedilla" unicode="&#x15e;" horiz-adv-x="594" 
d="M242 -77l22 72q-154 5 -256 95l89 118q82 -73 203 -73q48 0 76.5 20t28.5 49q0 31 -19 51t-76 25q-55 5 -96.5 16.5t-80.5 33.5t-59.5 62t-20.5 96q0 103 72.5 158.5t168.5 55.5q148 0 246 -65l-71 -123q-74 47 -171 47q-51 0 -71.5 -19.5t-20.5 -45.5q0 -32 28.5 -46
t117.5 -28q47 -7 83 -20.5t67 -37t48 -61.5t17 -89q0 -92 -67 -149t-164 -68l-10 -33q49 -6 72.5 -31.5t23.5 -58.5q0 -37 -33 -65.5t-87 -28.5q-65 0 -112 29l25 62q37 -18 74 -18q17 0 28.5 8t11.5 22q0 19 -18 23.5t-30 -3.5z" />
    <glyph glyph-name="scedilla" unicode="&#x15f;" horiz-adv-x="468" 
d="M199 -77l22 71q-60 2 -109 18t-98 59l70 100q59 -57 158 -57q27 0 45 11t18 26q0 36 -62 43q-45 5 -74 11.5t-61 21.5t-48 43.5t-16 69.5q0 77 53.5 118.5t134.5 41.5q124 0 202 -58l-64 -106q-60 41 -135 41q-29 0 -43.5 -10t-14.5 -22q0 -17 21.5 -26t78.5 -16
q79 -10 123.5 -42t44.5 -106q0 -62 -42.5 -102t-108.5 -53l-11 -36q49 -6 72.5 -31.5t23.5 -58.5q0 -37 -33 -65.5t-87 -28.5q-65 0 -112 29l25 62q37 -18 74 -18q17 0 28.5 8t11.5 22q0 19 -18 23.5t-30 -3.5z" />
    <glyph glyph-name="Scaron" unicode="&#x160;" horiz-adv-x="594" 
d="M540 637l-71 -123q-74 47 -171 47q-51 0 -71.5 -19.5t-20.5 -45.5q0 -32 28.5 -46t117.5 -28q47 -7 83 -20.5t67 -37t48 -61.5t17 -89q0 -103 -82.5 -161.5t-192.5 -58.5q-175 0 -284 96l89 118q82 -73 203 -73q48 0 76.5 20t28.5 49q0 31 -19 51t-76 25
q-55 5 -96.5 16.5t-80.5 33.5t-59.5 62t-20.5 96q0 103 72.5 158.5t168.5 55.5q148 0 246 -65zM313 829l149 79l51 -59l-151 -120h-98l-149 120l48 58z" />
    <glyph glyph-name="scaron" unicode="&#x161;" horiz-adv-x="468" 
d="M445 155q0 -76 -61.5 -118.5t-147.5 -42.5q-65 0 -117.5 15.5t-104.5 61.5l70 100q59 -57 158 -57q27 0 45 11t18 26q0 36 -62 43q-45 5 -74 11.5t-61 21.5t-48 43.5t-16 69.5q0 77 53.5 118.5t134.5 41.5q124 0 202 -58l-64 -106q-60 41 -135 41q-29 0 -43.5 -10
t-14.5 -22q0 -17 21.5 -26t78.5 -16q79 -10 123.5 -42t44.5 -106zM250 621l144 104l56 -49l-148 -155h-103l-147 155l53 48q28 -19 82 -58t63 -45z" />
    <glyph glyph-name="Tcommaaccent" unicode="&#x162;" horiz-adv-x="556" 
d="M541 558h-190v-558h-153v558h-190v138h533v-138zM265 -313h-67l35 108h-33v151h154v-143z" />
    <glyph glyph-name="tcommaaccent" unicode="&#x163;" horiz-adv-x="333" 
d="M302 384h-73v-209q0 -30 10 -40.5t33 -10.5h31v-124h-77q-62 0 -101 35.5t-39 97.5v251h-54v112h56v136h139v-136h75v-112zM158 -313h-67l35 108h-33v151h154v-143z" />
    <glyph glyph-name="Tcaron" unicode="&#x164;" horiz-adv-x="556" 
d="M541 558h-190v-558h-153v558h-190v138h533v-138zM273 829l149 79l51 -59l-151 -120h-98l-149 120l48 58z" />
    <glyph glyph-name="tcaron" unicode="&#x165;" horiz-adv-x="448" 
d="M359 557h-67l35 108h-33v151h154v-143zM302 384h-73v-209q0 -30 10 -40.5t33 -10.5h31v-124h-77q-62 0 -101 35.5t-39 97.5v251h-54v112h56v136h139v-136h75v-112z" />
    <glyph glyph-name="Tbar" unicode="&#x166;" horiz-adv-x="556" 
d="M541 558h-190v-155h161v-99h-161v-304h-153v304h-160v99h160v155h-190v138h533v-138z" />
    <glyph glyph-name="tbar" unicode="&#x167;" horiz-adv-x="333" 
d="M302 384h-73v-73h73v-93h-73v-43q0 -30 10 -40.5t33 -10.5h31v-124h-77q-62 0 -101 35.5t-39 97.5v85h-53v93h53v73h-54v112h56v136h139v-136h75v-112z" />
    <glyph glyph-name="Utilde" unicode="&#x168;" horiz-adv-x="657" 
d="M600 243q0 -110 -78.5 -179t-192.5 -69q-115 0 -193 71.5t-78 185.5v444h153v-433q0 -57 33.5 -91t84.5 -34q52 0 84.5 30t32.5 86v442h154v-453zM264 881q28 -1 73.5 -25t59.5 -24q30 0 67 48l68 -40q-50 -109 -121 -109q-29 0 -76.5 23.5t-63.5 23.5q-37 0 -74 -50
l-65 41q27 56 58 84t74 28z" />
    <glyph glyph-name="utilde" unicode="&#x169;" horiz-adv-x="551" 
d="M61 495h143v-293q0 -36 19 -56t50 -20q33 0 54.5 20t21.5 56v293h143v-495h-143v42h-2q-19 -22 -53 -35t-64 -13q-79 0 -124 46t-45 132v323zM202 711q28 -1 73.5 -25t59.5 -24q30 0 67 48l68 -40q-50 -109 -121 -109q-29 0 -76.5 23.5t-63.5 23.5q-37 0 -74 -50l-65 41
q27 56 58 84t74 28z" />
    <glyph glyph-name="Umacron" unicode="&#x16a;" horiz-adv-x="657" 
d="M600 243q0 -110 -78.5 -179t-192.5 -69q-115 0 -193 71.5t-78 185.5v444h153v-433q0 -57 33.5 -91t84.5 -34q52 0 84.5 30t32.5 86v442h154v-453zM499 758h-333v118h333v-118z" />
    <glyph glyph-name="umacron" unicode="&#x16b;" horiz-adv-x="551" 
d="M61 495h143v-293q0 -36 19 -56t50 -20q33 0 54.5 20t21.5 56v293h143v-495h-143v42h-2q-19 -22 -53 -35t-64 -13q-79 0 -124 46t-45 132v323zM445 578h-333v118h333v-118z" />
    <glyph glyph-name="Ubreve" unicode="&#x16c;" horiz-adv-x="657" 
d="M600 243q0 -110 -78.5 -179t-192.5 -69q-115 0 -193 71.5t-78 185.5v444h153v-433q0 -57 33.5 -91t84.5 -34q52 0 84.5 30t32.5 86v442h154v-453zM328 731q-41 0 -71.5 16t-47.5 42t-25.5 51t-11.5 52h100q0 -23 15 -45.5t41 -22.5t41 22.5t15 45.5h100q-3 -27 -11.5 -52
t-25.5 -51t-47.5 -42t-71.5 -16z" />
    <glyph glyph-name="ubreve" unicode="&#x16d;" horiz-adv-x="551" 
d="M61 495h143v-293q0 -36 19 -56t50 -20q33 0 54.5 20t21.5 56v293h143v-495h-143v42h-2q-19 -22 -53 -35t-64 -13q-79 0 -124 46t-45 132v323zM280 561q-41 0 -71.5 16t-47.5 42t-25.5 51t-11.5 52h100q0 -23 15 -45.5t41 -22.5t41 22.5t15 45.5h100q-3 -27 -11.5 -52
t-25.5 -51t-47.5 -42t-71.5 -16z" />
    <glyph glyph-name="Uring" unicode="&#x16e;" horiz-adv-x="657" 
d="M600 243q0 -110 -78.5 -179t-192.5 -69q-115 0 -193 71.5t-78 185.5v444h153v-433q0 -57 33.5 -91t84.5 -34q52 0 84.5 30t32.5 86v442h154v-453zM369 813q0 16 -11.5 26.5t-28.5 10.5t-29 -10.5t-12 -26.5t12 -27t29 -11t28.5 11t11.5 27zM204 813q0 48 36.5 82t88.5 34
q51 0 87.5 -34t36.5 -82t-36.5 -82t-88.5 -34q-51 0 -87.5 34t-36.5 82z" />
    <glyph glyph-name="uring" unicode="&#x16f;" horiz-adv-x="551" 
d="M61 495h143v-293q0 -36 19 -56t50 -20q33 0 54.5 20t21.5 56v293h143v-495h-143v42h-2q-19 -22 -53 -35t-64 -13q-79 0 -124 46t-45 132v323zM319 643q0 16 -11.5 26.5t-28.5 10.5t-29 -10.5t-12 -26.5t12 -27t29 -11t28.5 11t11.5 27zM154 643q0 48 36.5 82t88.5 34
q51 0 87.5 -34t36.5 -82t-36.5 -82t-88.5 -34q-51 0 -87.5 34t-36.5 82z" />
    <glyph glyph-name="Uhungarumlaut" unicode="&#x170;" horiz-adv-x="657" 
d="M600 243q0 -110 -78.5 -179t-192.5 -69q-115 0 -193 71.5t-78 185.5v444h153v-433q0 -57 33.5 -91t84.5 -34q52 0 84.5 30t32.5 86v442h154v-453zM170 723l-65 61l161 151l104 -94zM390 723l-65 61l161 151l104 -94z" />
    <glyph glyph-name="uhungarumlaut" unicode="&#x171;" horiz-adv-x="551" 
d="M61 495h143v-293q0 -36 19 -56t50 -20q33 0 54.5 20t21.5 56v293h143v-495h-143v42h-2q-19 -22 -53 -35t-64 -13q-79 0 -124 46t-45 132v323zM202 537l-83 30l85 203l133 -43zM389 537l-83 30l85 203l133 -43z" />
    <glyph glyph-name="Uogonek" unicode="&#x172;" horiz-adv-x="657" 
d="M242 -102q0 43 38 101q-97 15 -159.5 83.5t-62.5 169.5v444h153v-433q0 -57 33.5 -91t84.5 -34q52 0 84.5 30t32.5 86v442h154v-453q0 -98 -64 -165t-162 -80q-41 -55 -41 -85q0 -27 32 -27q23 0 64 15l28 -70q-55 -31 -108 -31q-46 0 -76.5 28.5t-30.5 69.5z" />
    <glyph glyph-name="uogonek" unicode="&#x173;" horiz-adv-x="551" 
d="M308 -102q0 44 41 104v40h-2q-19 -22 -53 -35t-64 -13q-79 0 -124 46t-45 132v323h143v-293q0 -36 19 -56t50 -20q33 0 54.5 20t21.5 56v293h143v-495h-51q-42 -57 -42 -87q0 -27 32 -27q23 0 64 15l28 -70q-55 -31 -108 -31q-46 0 -76.5 28.5t-30.5 69.5z" />
    <glyph glyph-name="Wcircumflex" unicode="&#x174;" horiz-adv-x="854" 
d="M853 694l-186 -696h-124l-65 226l-49 190h-3l-50 -193l-64 -223h-125l-186 696h161l49 -206l44 -198h3l53 198l60 206h112l60 -205l53 -199h5l42 198l49 206h161zM576 726l-149 79l-150 -78l-48 58l149 120h98l151 -120z" />
    <glyph glyph-name="wcircumflex" unicode="&#x175;" horiz-adv-x="753" 
d="M750 495l-169 -495h-120l-38 122l-44 151h-3l-43 -150l-40 -123h-119l-169 495h152l35 -123l39 -154h5l45 154l40 123h114l39 -123l44 -154h6l39 154l35 123h152zM518 521l-144 104q-9 -6 -63 -45t-82 -58l-53 48l147 155h103l148 -155z" />
    <glyph glyph-name="Ycircumflex" unicode="&#x176;" horiz-adv-x="605" 
d="M603 696l-225 -411v-285h-147v285l-224 411h165l71 -150l60 -135h4l59 134l72 151h165zM454 726l-149 79l-150 -78l-48 58l149 120h98l151 -120z" />
    <glyph glyph-name="ycircumflex" unicode="&#x177;" horiz-adv-x="502" 
d="M502 495l-224 -591q-39 -104 -157 -104h-57v117h37q41 0 57 49l24 74l-182 455h153l48 -141l48 -156h4l47 154l50 143h152zM395 521l-144 104q-9 -6 -63 -45t-82 -58l-53 48l147 155h103l148 -155z" />
    <glyph glyph-name="Ydieresis" unicode="&#x178;" horiz-adv-x="605" 
d="M603 696l-225 -411v-285h-147v285l-224 411h165l71 -150l60 -135h4l59 134l72 151h165zM489 744h-152v133h152v-133zM275 744h-153v133h153v-133z" />
    <glyph glyph-name="Zacute" unicode="&#x179;" horiz-adv-x="549" 
d="M219 733l-56 69l180 128l90 -107zM520 0h-492v131l306 428h-293v137h479v-127l-305 -428h305v-141z" />
    <glyph glyph-name="zacute" unicode="&#x17a;" horiz-adv-x="463" 
d="M256 537l-83 30l85 203l133 -43zM434 0h-406v119l229 254h-215v122h392v-114l-228 -253h228v-128z" />
    <glyph glyph-name="Zdotaccent" unicode="&#x17b;" horiz-adv-x="549" 
d="M520 0h-492v131l306 428h-293v137h479v-127l-305 -428h305v-141zM348 749h-148v130h148v-130z" />
    <glyph glyph-name="zdotaccent" unicode="&#x17c;" horiz-adv-x="463" 
d="M317 569h-148v130h148v-130zM434 0h-406v119l229 254h-215v122h392v-114l-228 -253h228v-128z" />
    <glyph glyph-name="Zcaron" unicode="&#x17d;" horiz-adv-x="549" 
d="M520 0h-492v131l306 428h-293v137h479v-127l-305 -428h305v-141zM278 829l149 79l51 -59l-151 -120h-98l-149 120l48 58z" />
    <glyph glyph-name="zcaron" unicode="&#x17e;" horiz-adv-x="463" 
d="M238 621l144 104l56 -49l-148 -155h-103l-147 155l53 48q28 -19 82 -58t63 -45zM434 0h-406v119l229 254h-215v122h392v-114l-228 -253h228v-128z" />
    <glyph glyph-name="florin" unicode="&#x192;" horiz-adv-x="550" 
d="M130 306l-2 125h93l7 55q5 41 16.5 75.5t33 67.5t59.5 52t88 19q55 -2 110 -23l-30 -120q-44 17 -78 17q-44 0 -57 -94q-1 -9 -3.5 -24.5t-3.5 -24.5h92l2 -125h-107l-25 -188q-28 -221 -182 -221q-59 0 -129 32l36 118q47 -19 74 -19q46 0 58 103l22 175h-74z" />
    <glyph glyph-name="Ohorn" unicode="&#x1a0;" horiz-adv-x="634" 
d="M310 701q93 0 161 -46q27 7 39 31t12 71v54h111v-84q0 -112 -85 -156q35 -62 35 -141v-164q0 -124 -74.5 -198t-198.5 -74q-129 0 -199 78t-70 194v164q0 115 70 193t199 78zM309 557q-54 0 -83.5 -33t-29.5 -80v-189q0 -49 29 -83t84 -34q54 0 85.5 33t31.5 84v189
q0 48 -31.5 80.5t-85.5 32.5z" />
    <glyph glyph-name="ohorn" unicode="&#x1a1;" horiz-adv-x="559" 
d="M265 501q93 0 151 -52q41 17 41 99v54h111v-84q0 -58 -25.5 -100.5t-71.5 -61.5q12 -44 12 -111q0 -93 -38 -156q-60 -96 -193 -96q-123 0 -177 79q-44 64 -42 176q2 88 26 139q26 55 80.5 84.5t125.5 29.5zM260 373q-45 0 -66 -43q-13 -28 -15 -84q0 -54 14 -82
q20 -41 63 -41q54 0 71 54q9 31 9 71q1 53 -12 82q-18 43 -64 43z" />
    <glyph glyph-name="Uhorn" unicode="&#x1af;" horiz-adv-x="733" 
d="M600 243q0 -110 -78.5 -179t-192.5 -69q-115 0 -193 71.5t-78 185.5v444h153v-433q0 -57 33.5 -91t84.5 -34q52 0 84.5 30t32.5 86v442h154v-36q51 11 51 100v51h111v-84q0 -78 -43.5 -125.5t-118.5 -50.5v-308z" />
    <glyph glyph-name="uhorn" unicode="&#x1b0;" horiz-adv-x="644" 
d="M61 495h143v-293q0 -36 19 -56t50 -20q33 0 54.5 20t21.5 56v293h143v-48q48 14 48 101v54h111v-84q0 -77 -43 -124.5t-116 -51.5v-342h-143v42h-2q-19 -22 -53 -35t-64 -13q-79 0 -124 46t-45 132v323z" />
    <glyph glyph-name="AEacute" unicode="&#x1fc;" horiz-adv-x="1091" 
d="M606 733l-56 69l180 128l90 -107zM464 696h571v-138h-338v-141h288v-133h-288v-146h338v-138h-492v149h-234l-84 -149h-182zM543 558h-4l-157 -275h161v275z" />
    <glyph glyph-name="aeacute" unicode="&#x1fd;" horiz-adv-x="799" 
d="M782 210h-305q12 -86 92 -86q52 0 102 45l88 -98q-83 -76 -198 -76q-113 0 -175 65q-69 -65 -175 -65q-77 0 -126.5 38t-49.5 114q0 66 48 109.5t131 43.5h112v16q0 24 -18.5 45.5t-67.5 21.5q-79 0 -123 -44l-64 92q63 69 192 69q122 0 168 -54q51 54 138 54
q114 0 172.5 -69.5t58.5 -185.5v-35zM326 180v16h-94q-60 0 -60 -37q0 -9 4 -18t20.5 -18.5t43.5 -9.5q36 0 61 17t25 50zM632 302q-4 32 -25.5 50.5t-50.5 18.5q-28 0 -48.5 -18.5t-25.5 -50.5h150zM446 537l-83 30l85 203l133 -43z" />
    <glyph glyph-name="Oslashacute" unicode="&#x1fe;" horiz-adv-x="624" 
d="M310 701q106 0 178 -58l44 61l51 -37l-51 -69q51 -71 51 -168v-164q0 -124 -74.5 -198t-198.5 -74q-110 0 -179 59l-43 -58l-49 35l50 68q-48 68 -48 168v164q0 115 70 193t199 78zM426 444q0 2 -0.5 5t-0.5 4l-204 -277q31 -38 88 -38q54 0 85.5 33t31.5 84v189z
M309 557q-54 0 -83.5 -33t-29.5 -80v-189v-10l202 275q-32 37 -89 37zM267 733l-56 69l180 128l90 -107z" />
    <glyph glyph-name="oslashacute" unicode="&#x1ff;" horiz-adv-x="516" 
d="M265 501q90 0 147 -48l43 50l33 -29l-47 -53l3 -3q41 -59 39 -173q0 -93 -38 -156q-60 -96 -193 -96q-93 0 -147 45l-40 -46l-32 27l44 50q-2 2 -2 3q-44 64 -42 176q2 88 26 139q26 55 80.5 84.5t125.5 29.5zM274 537l-83 30l85 203l133 -43zM260 373q-45 0 -66 -43
q-13 -28 -15 -84q0 -34 4 -54l133 152q-20 29 -56 29zM336 248q0 28 -3 49l-131 -149q20 -25 54 -25q54 0 71 54q9 31 9 71z" />
    <glyph glyph-name="Scommaaccent" unicode="&#x218;" horiz-adv-x="594" 
d="M540 637l-71 -123q-74 47 -171 47q-51 0 -71.5 -19.5t-20.5 -45.5q0 -32 28.5 -46t117.5 -28q47 -7 83 -20.5t67 -37t48 -61.5t17 -89q0 -103 -82.5 -161.5t-192.5 -58.5q-175 0 -284 96l89 118q82 -73 203 -73q48 0 76.5 20t28.5 49q0 31 -19 51t-76 25
q-55 5 -96.5 16.5t-80.5 33.5t-59.5 62t-20.5 96q0 103 72.5 158.5t168.5 55.5q148 0 246 -65zM288 -313h-67l35 108h-33v151h154v-143z" />
    <glyph glyph-name="scommaaccent" unicode="&#x219;" horiz-adv-x="468" 
d="M445 155q0 -76 -61.5 -118.5t-147.5 -42.5q-65 0 -117.5 15.5t-104.5 61.5l70 100q59 -57 158 -57q27 0 45 11t18 26q0 36 -62 43q-45 5 -74 11.5t-61 21.5t-48 43.5t-16 69.5q0 77 53.5 118.5t134.5 41.5q124 0 202 -58l-64 -106q-60 41 -135 41q-29 0 -43.5 -10
t-14.5 -22q0 -17 21.5 -26t78.5 -16q79 -10 123.5 -42t44.5 -106zM221 -313h-67l35 108h-33v151h154v-143z" />
    <glyph glyph-name="schwa" unicode="&#x259;" horiz-adv-x="533" 
d="M35 284h306q-4 46 -25 66.5t-58 20.5q-61 0 -112 -46l-88 98q84 77 204 77q44 0 82 -12t72 -39t53.5 -78.5t19.5 -122.5q0 -130 -66 -192t-160 -62q-114 0 -171 69t-57 186v35zM189 192q4 -33 24.5 -52t48.5 -19t48.5 19.5t25.5 51.5h-147z" />
    <glyph glyph-name="primemod" unicode="&#x2b9;" horiz-adv-x="282" 
d="M160 752l148 -54l-152 -312l-109 36z" />
    <glyph glyph-name="circumflex" unicode="&#x2c6;" horiz-adv-x="516" 
d="M398 521l-144 104q-9 -6 -63 -45t-82 -58l-53 48l147 155h103l148 -155z" />
    <glyph glyph-name="caron" unicode="&#x2c7;" horiz-adv-x="516" 
d="M254 621l144 104l56 -49l-148 -155h-103l-147 155l53 48q28 -19 82 -58t63 -45z" />
    <glyph glyph-name="breve" unicode="&#x2d8;" horiz-adv-x="533" 
d="M266 561q-41 0 -71.5 16t-47.5 42t-25.5 51t-11.5 52h100q0 -23 15 -45.5t41 -22.5t41 22.5t15 45.5h100q-3 -27 -11.5 -52t-25.5 -51t-47.5 -42t-71.5 -16z" />
    <glyph glyph-name="dotaccent" unicode="&#x2d9;" horiz-adv-x="338" 
d="M244 569h-148v130h148v-130z" />
    <glyph glyph-name="ring" unicode="&#x2da;" horiz-adv-x="516" 
d="M318 643q0 16 -11.5 26.5t-28.5 10.5t-29 -10.5t-12 -26.5t12 -27t29 -11t28.5 11t11.5 27zM153 643q0 48 36.5 82t88.5 34q51 0 87.5 -34t36.5 -82t-36.5 -82t-88.5 -34q-51 0 -87.5 34t-36.5 82z" />
    <glyph glyph-name="ogonek" unicode="&#x2db;" horiz-adv-x="294" 
d="M56 -104q0 44 44 108h89l2 -4q-44 -60 -44 -89q0 -27 32 -27q23 0 64 15l28 -70q-55 -31 -108 -31q-46 0 -76.5 28.5t-30.5 69.5z" />
    <glyph glyph-name="tilde" unicode="&#x2dc;" horiz-adv-x="516" 
d="M199 711q28 -1 73.5 -25t59.5 -24q30 0 67 48l68 -40q-50 -109 -121 -109q-29 0 -76.5 23.5t-63.5 23.5q-37 0 -74 -50l-65 41q27 56 58 84t74 28z" />
    <glyph glyph-name="hungarumlaut" unicode="&#x2dd;" horiz-adv-x="576" 
d="M232 537l-83 30l85 203l133 -43zM419 537l-83 30l85 203l133 -43z" />
    <glyph glyph-name="tonos" unicode="&#x384;" horiz-adv-x="516" 
d="M266 537l-83 30l85 203l133 -43z" />
    <glyph glyph-name="dieresistonos" unicode="&#x385;" horiz-adv-x="613" 
d="M568 569h-149v130h149v-130zM184 569h-148v130h148v-130zM286 537l-83 30l85 203l133 -43z" />
    <glyph glyph-name="Alphatonos" unicode="&#x386;" horiz-adv-x="660" 
d="M659 0h-162l-52 142h-233l-52 -142h-162l270 696h121zM397 272l-26 80l-41 138h-4l-40 -136l-26 -82h137zM13 507l-83 30l85 203l133 -43z" />
    <glyph glyph-name="anoteleia" unicode="&#x387;" horiz-adv-x="303" 
d="M236 268h-169v165h169v-165z" />
    <glyph glyph-name="Epsilontonos" unicode="&#x388;" horiz-adv-x="585" 
d="M562 0h-492v696h492v-138h-338v-141h288v-133h-288v-146h338v-138zM-102 507l-83 30l85 203l133 -43z" />
    <glyph glyph-name="Etatonos" unicode="&#x389;" horiz-adv-x="674" 
d="M604 0h-152v284h-228v-284h-154v696h154v-279h228v279h152v-696zM-94 507l-83 30l85 203l133 -43z" />
    <glyph glyph-name="Iotatonos" unicode="&#x38a;" horiz-adv-x="294" 
d="M227 0h-154v696h154v-696zM-96 507l-83 30l85 203l133 -43z" />
    <glyph glyph-name="Omicrontonos" unicode="&#x38c;" horiz-adv-x="624" 
d="M310 701q124 0 198.5 -76t74.5 -195v-164q0 -124 -74.5 -198t-198.5 -74q-129 0 -199 78t-70 194v164q0 115 70 193t199 78zM309 557q-54 0 -83.5 -33t-29.5 -80v-189q0 -49 29 -83t84 -34q54 0 85.5 33t31.5 84v189q0 48 -31.5 80.5t-85.5 32.5zM-78 507l-83 30l85 203
l133 -43z" />
    <glyph glyph-name="Upsilontonos" unicode="&#x38e;" horiz-adv-x="605" 
d="M603 696l-225 -411v-285h-147v285l-224 411h165l71 -150l60 -135h4l59 134l72 151h165zM-150 507l-83 30l85 203l133 -43z" />
    <glyph glyph-name="Omegatonos" unicode="&#x38f;" horiz-adv-x="628" 
d="M535 140l1 -2h63v-138h-255v145q39 10 60.5 40.5t21.5 72.5v186q0 48 -31.5 80.5t-85.5 32.5t-83.5 -33t-29.5 -80v-186q0 -42 21.5 -73.5t62.5 -40.5v-144h-254v138h60l1 5q-46 45 -46 149v138q0 115 70 193t199 78q124 0 198.5 -76t74.5 -195v-138q0 -96 -48 -152z
M-75 507l-83 30l85 203l133 -43z" />
    <glyph glyph-name="iotadieresistonos" unicode="&#x390;" horiz-adv-x="300" 
d="M262 108l-1 -116q-14 -1 -49 -1q-41 0 -70.5 10.5t-44.5 25t-23.5 38t-10 40t-1.5 40.5v350h142v-340q0 -23 11 -35t47 -12zM417 569h-149v130h149v-130zM33 569h-148v130h148v-130zM135 537l-83 30l85 203l133 -43z" />
    <glyph glyph-name="Alpha" unicode="&#x391;" horiz-adv-x="660" 
d="M659 0h-162l-52 142h-233l-52 -142h-162l270 696h121zM397 272l-26 80l-41 138h-4l-40 -136l-26 -82h137z" />
    <glyph glyph-name="Beta" unicode="&#x392;" horiz-adv-x="637" 
d="M604 207q0 -91 -63.5 -149t-153.5 -58h-317v696h293q109 0 169.5 -54t60.5 -143q0 -41 -21.5 -78.5t-65.5 -57.5v-4q45 -16 71.5 -61.5t26.5 -90.5zM430 492q0 66 -88 66h-118v-139h118q45 0 66.5 21t21.5 52zM446 214q0 32 -23 55t-68 23h-131v-154h131q46 0 68.5 21.5
t22.5 54.5z" />
    <glyph glyph-name="Gamma" unicode="&#x393;" horiz-adv-x="566" 
d="M562 558h-338v-558h-154v696h492v-138z" />
    <glyph glyph-name="Delta" unicode="&#x394;" horiz-adv-x="661" 
d="M659 0h-661l270 696h121zM449 133l-61 189l-55 185h-7l-55 -185l-63 -189h241z" />
    <glyph glyph-name="Delta" unicode="&#x2206;" horiz-adv-x="661" 
d="M659 0h-661l270 696h121zM449 133l-61 189l-55 185h-7l-55 -185l-63 -189h241z" />
    <glyph glyph-name="Epsilon" unicode="&#x395;" horiz-adv-x="585" 
d="M562 0h-492v696h492v-138h-338v-141h288v-133h-288v-146h338v-138z" />
    <glyph glyph-name="Zeta" unicode="&#x396;" horiz-adv-x="549" 
d="M520 0h-492v131l306 428h-293v137h479v-127l-305 -428h305v-141z" />
    <glyph glyph-name="Eta" unicode="&#x397;" horiz-adv-x="674" 
d="M604 0h-152v284h-228v-284h-154v696h154v-279h228v279h152v-696z" />
    <glyph glyph-name="Theta" unicode="&#x398;" horiz-adv-x="624" 
d="M310 701q124 0 198.5 -76t74.5 -195v-164q0 -124 -74.5 -198t-198.5 -74q-129 0 -199 78t-70 194v164q0 115 70 193t199 78zM309 557q-54 0 -83.5 -33t-29.5 -80v-189q0 -49 29 -83t84 -34q54 0 85.5 33t31.5 84v189q0 48 -31.5 80.5t-85.5 32.5zM397 408v-123h-172v123
h172z" />
    <glyph glyph-name="Iota" unicode="&#x399;" horiz-adv-x="294" 
d="M227 0h-154v696h154v-696z" />
    <glyph glyph-name="Kappa" unicode="&#x39a;" horiz-adv-x="657" 
d="M677 0h-182l-180 296l-91 -102v-194h-154v696h154v-298l2 -2l106 129l145 171h186l-244 -282z" />
    <glyph glyph-name="Lambda" unicode="&#x39b;" horiz-adv-x="637" 
d="M649 0h-162l-79 225l-88 252h-4l-86 -249l-80 -228h-162l270 696h121z" />
    <glyph glyph-name="Mu" unicode="&#x39c;" horiz-adv-x="782" 
d="M721 0h-153v331l-3 1l-63 -141l-47 -98h-118l-49 103l-61 136l-3 -3v-329h-154v696h139l94 -202l90 -209h4l87 209l92 202h145v-696z" />
    <glyph glyph-name="Nu" unicode="&#x39d;" horiz-adv-x="710" 
d="M643 0h-137l-177 256l-103 166l-2 -1v-421h-154v696h137l146 -213l134 -209l2 1v421h154v-696z" />
    <glyph glyph-name="Xi" unicode="&#x39e;" horiz-adv-x="609" 
d="M553 558h-500v138h500v-138zM502 284h-398v133h398v-133zM558 0h-508v138h508v-138z" />
    <glyph glyph-name="Omicron" unicode="&#x39f;" horiz-adv-x="624" 
d="M310 701q124 0 198.5 -76t74.5 -195v-164q0 -124 -74.5 -198t-198.5 -74q-129 0 -199 78t-70 194v164q0 115 70 193t199 78zM309 557q-54 0 -83.5 -33t-29.5 -80v-189q0 -49 29 -83t84 -34q54 0 85.5 33t31.5 84v189q0 48 -31.5 80.5t-85.5 32.5z" />
    <glyph glyph-name="Pi" unicode="&#x3a0;" horiz-adv-x="674" 
d="M604 0h-152v557h-228v-557h-154v696h534v-696z" />
    <glyph glyph-name="Rho" unicode="&#x3a1;" horiz-adv-x="609" 
d="M601 472q0 -94 -70 -156t-171 -62h-136v-254h-154v696h287q111 0 177.5 -60.5t66.5 -163.5zM445 475q0 83 -96 83h-125v-166h129q39 0 65.5 23t26.5 60z" />
    <glyph glyph-name="Sigma" unicode="&#x3a3;" horiz-adv-x="549" 
d="M520 0h-492v142l154 215l-155 201v138h479v-138h-294l152 -200l-150 -216h306v-142z" />
    <glyph glyph-name="Tau" unicode="&#x3a4;" horiz-adv-x="556" 
d="M541 558h-190v-558h-153v558h-190v138h533v-138z" />
    <glyph glyph-name="Upsilon" unicode="&#x3a5;" horiz-adv-x="605" 
d="M603 696l-225 -411v-285h-147v285l-224 411h165l71 -150l60 -135h4l59 134l72 151h165z" />
    <glyph glyph-name="Phi" unicode="&#x3a6;" horiz-adv-x="783" 
d="M742 354q0 -123 -75.5 -206t-203.5 -84v-64h-143v64q-138 12 -206.5 89.5t-68.5 200.5q0 125 72 208.5t203 87.5v46h143v-46q141 -10 210.5 -88t68.5 -208zM463 528v-343q80 6 105.5 47.5t25.5 122.5q1 42 -8 76.5t-40 64.5t-83 32zM320 526q-130 -17 -127 -171
q1 -77 28.5 -119.5t98.5 -50.5v341z" />
    <glyph glyph-name="Chi" unicode="&#x3a7;" horiz-adv-x="629" 
d="M626 0h-175l-139 226l-138 -226h-174l236 356l-223 340h175l124 -209l125 209h175l-223 -340z" />
    <glyph glyph-name="Psi" unicode="&#x3a8;" horiz-adv-x="774" 
d="M714 390q0 -105 -70 -171t-182 -74v-145h-153v145q-115 8 -183.5 76t-68.5 178v297h148v-300q0 -53 26 -86t78 -40v426h153v-426q49 4 76.5 35t27.5 82v309h148v-306z" />
    <glyph glyph-name="Omega" unicode="&#x3a9;" horiz-adv-x="628" 
d="M535 140l1 -2h63v-138h-255v145q39 10 60.5 40.5t21.5 72.5v186q0 48 -31.5 80.5t-85.5 32.5t-83.5 -33t-29.5 -80v-186q0 -42 21.5 -73.5t62.5 -40.5v-144h-254v138h60l1 5q-46 45 -46 149v138q0 115 70 193t199 78q124 0 198.5 -76t74.5 -195v-138q0 -96 -48 -152z" />
    <glyph glyph-name="Iotadieresis" unicode="&#x3aa;" horiz-adv-x="294" 
d="M227 0h-154v696h154v-696zM328 744h-152v133h152v-133zM114 744h-153v133h153v-133z" />
    <glyph glyph-name="Upsilondieresis" unicode="&#x3ab;" horiz-adv-x="605" 
d="M603 696l-225 -411v-285h-147v285l-224 411h165l71 -150l60 -135h4l59 134l72 151h165zM484 744h-152v133h152v-133zM270 744h-153v133h153v-133z" />
    <glyph glyph-name="alphatonos" unicode="&#x3ac;" horiz-adv-x="533" 
d="M42 236q0 263 191 263q60 0 97 -40l3 1v35h142v-495h-142v39l-3 1q-17 -20 -45 -33t-53 -13q-190 0 -190 242zM188 246q0 -25 2 -42t8.5 -37.5t22.5 -31t40 -10.5q72 0 72 121q0 122 -72 122q-25 0 -41 -11t-22 -32t-8 -37.5t-2 -41.5zM269 537l-83 30l85 203l133 -43z
" />
    <glyph glyph-name="epsilontonos" unicode="&#x3ad;" horiz-adv-x="476" 
d="M458 73q-85 -78 -211 -78q-93 0 -149.5 40.5t-56.5 113.5q0 27 18.5 58.5t49.5 45.5v3q-32 9 -47 37t-15 54q0 67 55 110t151 43q123 0 199 -75l-87 -98q-43 43 -107 43q-21 0 -42.5 -9.5t-21.5 -29.5q0 -34 57 -34h61v-101h-67q-57 0 -57 -35q0 -14 16.5 -25t53.5 -11
q69 0 108 45zM262 537l-83 30l85 203l133 -43z" />
    <glyph glyph-name="etatonos" unicode="&#x3ae;" horiz-adv-x="551" 
d="M490 0h-142v292q0 36 -19.5 56t-50.5 20q-33 0 -54 -20t-21 -56v-292h-143v495h143v-41h2q22 20 56.5 33t63.5 13q80 0 122.5 -45.5t42.5 -132.5v-322zM266 537l-83 30l85 203l133 -43z" />
    <glyph glyph-name="iotatonos" unicode="&#x3af;" horiz-adv-x="300" 
d="M262 108l-1 -116q-14 -1 -49 -1q-41 0 -70.5 10.5t-44.5 25t-23.5 38t-10 40t-1.5 40.5v350h142v-340q0 -23 11 -35t47 -12zM146 537l-83 30l85 203l133 -43z" />
    <glyph glyph-name="upsilondieresistonos" unicode="&#x3b0;" horiz-adv-x="551" 
d="M491 183q0 -85 -61 -136.5t-155 -51.5q-91 0 -153 52.5t-62 135.5v312h143v-291q0 -36 20 -55.5t53 -19.5q32 0 52.5 19.5t20.5 55.5v291h142v-312zM544 569h-149v130h149v-130zM160 569h-148v130h148v-130zM262 537l-83 30l85 203l133 -43z" />
    <glyph glyph-name="alpha" unicode="&#x3b1;" horiz-adv-x="533" 
d="M42 236q0 263 191 263q60 0 97 -40l3 1v35h142v-495h-142v39l-3 1q-17 -20 -45 -33t-53 -13q-190 0 -190 242zM188 246q0 -25 2 -42t8.5 -37.5t22.5 -31t40 -10.5q72 0 72 121q0 122 -72 122q-25 0 -41 -11t-22 -32t-8 -37.5t-2 -41.5z" />
    <glyph glyph-name="beta" unicode="&#x3b2;" horiz-adv-x="542" 
d="M259 722q103 0 155 -51.5t52 -119.5q0 -36 -18 -76.5t-54 -56.5v-3q30 -9 52 -27.5t32.5 -37t16 -45.5t6.5 -41.5t1 -36.5q0 -105 -46.5 -168.5t-145.5 -63.5q-67 0 -109 44h-2v-190h-143v653q0 101 53 160.5t150 59.5zM351 252q0 38 -18 64.5t-61 26.5h-35v110h26
q30 0 47 25t17 56q0 28 -18.5 48.5t-46.5 20.5q-32 0 -47.5 -23.5t-15.5 -57.5v-282q0 -27 1.5 -42.5t8 -36t22.5 -30.5t42 -10q78 0 78 131z" />
    <glyph glyph-name="gamma" unicode="&#x3b3;" horiz-adv-x="511" 
d="M352 494h156q-137 -357 -179 -481v-213h-141v184q-53 175 -118 344q-12 31 -21 41t-29 10h-9l-9 113q42 14 79 14q50 0 73.5 -28.5t49.5 -102.5q11 -31 28.5 -88.5t23.5 -76.5h5q54 178 91 284z" />
    <glyph glyph-name="delta" unicode="&#x3b4;" horiz-adv-x="516" 
d="M256 376q-43 -12 -62 -51q-14 -30 -16 -84q0 -49 14 -77q20 -41 63 -41q54 0 71 54q9 31 9 66q1 49 -12 78q-19 45 -67 55zM270 724q103 0 186 -45l-53 -112q-60 33 -117 33q-48 0 -48 -33q0 -10 5.5 -19.5t19.5 -19.5t22.5 -15.5t30 -16.5t26.5 -14q79 -43 109.5 -102
t28.5 -141q0 -85 -38 -148q-61 -98 -191 -98q-123 0 -176 78q-41 61 -40 164q1 70 26 122q11 24 34.5 48t48.5 37q-30 21 -45.5 54t-15.5 64q0 79 52.5 121.5t134.5 42.5z" />
    <glyph glyph-name="epsilon" unicode="&#x3b5;" horiz-adv-x="476" 
d="M458 73q-85 -78 -211 -78q-93 0 -149.5 40.5t-56.5 113.5q0 27 18.5 58.5t49.5 45.5v3q-32 9 -47 37t-15 54q0 67 55 110t151 43q123 0 199 -75l-87 -98q-43 43 -107 43q-21 0 -42.5 -9.5t-21.5 -29.5q0 -34 57 -34h61v-101h-67q-57 0 -57 -35q0 -14 16.5 -25t53.5 -11
q69 0 108 45z" />
    <glyph glyph-name="zeta" unicode="&#x3b6;" horiz-adv-x="437" 
d="M489 603q-140 -101 -218.5 -202t-78.5 -180q0 -33 20.5 -55.5t63.5 -40.5l87 -32q97 -37 97 -110q0 -69 -99 -184l-98 54q1 1 12.5 19.5t23.5 40.5t12 30q0 13 -11.5 21t-36.5 17l-67 25q-71 26 -113 77.5t-42 125.5q0 89 77.5 200t172.5 174v2h-213v126h411v-108z" />
    <glyph glyph-name="eta" unicode="&#x3b7;" horiz-adv-x="551" 
d="M490 0h-142v292q0 36 -19.5 56t-50.5 20q-33 0 -54 -20t-21 -56v-292h-143v495h143v-41h2q22 20 56.5 33t63.5 13q80 0 122.5 -45.5t42.5 -132.5v-322z" />
    <glyph glyph-name="theta" unicode="&#x3b8;" horiz-adv-x="526" 
d="M270 727q116 0 174 -84q47 -71 47 -288q0 -189 -43 -264q-30 -48 -80 -73t-110 -25q-120 0 -175 80q-48 74 -47 284q1 183 36 255q25 55 77 85t121 30zM334 177q13 51 12 138h-166q-4 -108 19 -151q20 -41 63 -41q55 0 72 54zM265 599q-44 0 -65 -43q-18 -36 -20 -136
h165q1 99 -16 136q-18 43 -64 43z" />
    <glyph glyph-name="iota" unicode="&#x3b9;" horiz-adv-x="300" 
d="M262 108l-1 -116q-14 -1 -49 -1q-41 0 -70.5 10.5t-44.5 25t-23.5 38t-10 40t-1.5 40.5v350h142v-340q0 -23 11 -35t47 -12z" />
    <glyph glyph-name="kappa" unicode="&#x3ba;" horiz-adv-x="533" 
d="M548 0h-163l-133 196l-49 -53v-143h-143v495h143v-169l2 -1l65 74l87 96h177l-189 -200z" />
    <glyph glyph-name="lambda" unicode="&#x3bb;" horiz-adv-x="503" 
d="M147 735q63 0 97 -30.5t53 -89.5l158 -490q5 -16 15 -21.5t35 -5.5l4 -100q-31 -6 -66 -6q-59 0 -84 25t-40 75l-59 207h-6l-60 -183l-39 -116h-145l181 483l-22 75q-9 31 -23.5 42.5t-47.5 11.5q-13 0 -21 -1l-7 112q43 12 77 12z" />
    <glyph glyph-name="nu" unicode="&#x3bd;" horiz-adv-x="508" 
d="M504 495l-194 -495h-111l-195 495h153l44 -133l52 -166h2l52 166l45 133h152z" />
    <glyph glyph-name="xi" unicode="&#x3be;" horiz-adv-x="438" 
d="M276 725q126 0 203 -62l-67 -104q-57 42 -128 42q-45 0 -67.5 -25.5t-22.5 -55.5q0 -41 29 -64t80 -23h94v-114h-123q-42 0 -70.5 -28t-28.5 -70q0 -36 19.5 -52.5t64.5 -34.5q7 -3 11 -4l96 -32q55 -18 73.5 -44.5t18.5 -65.5q0 -69 -103 -189l-98 59q1 1 13 19t24 40
t12 30q0 27 -48 42l-70 25q-36 13 -62 27t-51.5 36.5t-38.5 56.5t-13 78q0 25 9.5 53t35.5 59t66 51l1 6q-47 20 -68.5 60.5t-21.5 78.5q0 90 68 147.5t163 57.5z" />
    <glyph glyph-name="omicron" unicode="&#x3bf;" horiz-adv-x="516" 
d="M265 501q122 0 179 -83q41 -59 39 -173q0 -93 -38 -156q-60 -96 -193 -96q-123 0 -177 79q-44 64 -42 176q2 88 26 139q26 55 80.5 84.5t125.5 29.5zM260 373q-45 0 -66 -43q-13 -28 -15 -84q0 -54 14 -82q20 -41 63 -41q54 0 71 54q9 31 9 71q1 53 -12 82q-18 43 -64 43
z" />
    <glyph glyph-name="pi" unicode="&#x3c0;" horiz-adv-x="542" 
d="M484 0h-143v373h-145v-373h-143v494h431v-494z" />
    <glyph glyph-name="rho" unicode="&#x3c1;" horiz-adv-x="528" 
d="M295 -5q-64 0 -99 34l-4 -1v-228h-143v448q2 94 22 137q26 55 81 85.5t125 30.5q57 0 104 -22.5t75 -62.5q41 -59 39 -171q0 -93 -38 -156q-58 -94 -162 -94zM272 373q-45 0 -66 -43q-13 -28 -15 -84q0 -54 14 -82q20 -41 63 -41q54 0 71 54q9 31 9 71q1 53 -12 82
q-18 43 -64 43z" />
    <glyph glyph-name="sigma1" unicode="&#x3c2;" horiz-adv-x="481" 
d="M48 242q0 124 69 191.5t169 67.5q116 0 195 -72l-86 -101q-45 41 -100 41q-49 0 -76.5 -31.5t-27.5 -90.5q0 -44 17 -71t62 -46l84 -34q97 -39 97 -108q0 -72 -96 -184l-98 54q1 1 11 17t21 37.5t11 31.5q0 9 -2 14.5t-12.5 13t-31.5 14.5q-119 39 -162.5 98t-43.5 158z
" />
    <glyph glyph-name="sigma" unicode="&#x3c3;" horiz-adv-x="533" 
d="M436 385v-5q51 -38 49 -135q0 -93 -38 -156q-60 -96 -193 -96q-122 0 -177 81q-44 64 -42 174q2 80 26 132q26 55 80.5 85t125.5 30h250v-110h-81zM262 372q-45 0 -66 -43q-14 -28 -15 -79q0 -58 14 -86q20 -41 63 -41q54 0 71 54q9 31 9 75q1 48 -12 77q-18 43 -64 43z
" />
    <glyph glyph-name="tau" unicode="&#x3c4;" horiz-adv-x="377" 
d="M366 385h-109v-210q0 -28 10 -38.5t33 -10.5h27v-126h-73q-62 0 -101 35.5t-39 97.5v252h-100v110h352v-110z" />
    <glyph glyph-name="upsilon" unicode="&#x3c5;" horiz-adv-x="551" 
d="M491 183q0 -85 -61 -136.5t-155 -51.5q-91 0 -153 52.5t-62 135.5v312h143v-291q0 -36 20 -55.5t53 -19.5q32 0 52.5 19.5t20.5 55.5v291h142v-312z" />
    <glyph glyph-name="phi" unicode="&#x3c6;" horiz-adv-x="687" 
d="M646 248q0 -64 -9.5 -102t-32.5 -67q-60 -76 -190 -84v-195h-142l-1 195v0q-132 8 -191 84q-42 53 -42 169q0 67 13 113.5t58 85.5q30 26 68 40l51 -127q-23 -8 -35 -29q-11 -19 -11 -84q0 -124 89 -124h1v377h142q108 0 165 -50q31 -28 46.5 -65t18 -63.5t2.5 -73.5z
M502 247q0 64 -12 88q-21 36 -76 36v-248q88 0 88 124z" />
    <glyph glyph-name="chi" unicode="&#x3c7;" horiz-adv-x="538" 
d="M531 0h-173l-90 142l-89 -142h-172l189 252l-182 243h171l83 -136l83 136h172l-183 -243z" />
    <glyph glyph-name="psi" unicode="&#x3c8;" horiz-adv-x="712" 
d="M654 205q0 -52 -21 -93t-55.5 -65t-72.5 -36.5t-78 -14.5v-198h-143v199q-89 3 -157 56.5t-68 151.5v290h143v-274q0 -80 82 -96v390h143v-390q84 12 84 96v274h143v-290z" />
    <glyph glyph-name="omega" unicode="&#x3c9;" horiz-adv-x="757" 
d="M498 366l18 134q205 -6 205 -251q0 -116 -48.5 -184.5t-154.5 -68.5q-90 0 -132 76h-3q-44 -76 -127 -76q-216 0 -216 253q0 235 202 251l21 -134q-46 -7 -63 -35.5t-17 -86.5q0 -22 1.5 -37t6.5 -36.5t19.5 -33t36.5 -11.5q64 0 64 75v129h138v-129q0 -75 64 -75
q22 0 36.5 11.5t20 33t7 36.5t1.5 37q0 60 -15.5 89t-64.5 33z" />
    <glyph glyph-name="iotadieresis" unicode="&#x3ca;" horiz-adv-x="300" 
d="M262 108l-1 -116q-14 -1 -49 -1q-41 0 -70.5 10.5t-44.5 25t-23.5 38t-10 40t-1.5 40.5v350h142v-340q0 -23 11 -35t47 -12zM312 569h-149v130h149v-130zM93 569h-148v130h148v-130z" />
    <glyph glyph-name="upsilondieresis" unicode="&#x3cb;" horiz-adv-x="551" 
d="M491 183q0 -85 -61 -136.5t-155 -51.5q-91 0 -153 52.5t-62 135.5v312h143v-291q0 -36 20 -55.5t53 -19.5q32 0 52.5 19.5t20.5 55.5v291h142v-312zM455 569h-149v130h149v-130zM236 569h-148v130h148v-130z" />
    <glyph glyph-name="omicrontonos" unicode="&#x3cc;" horiz-adv-x="516" 
d="M265 501q122 0 179 -83q41 -59 39 -173q0 -93 -38 -156q-60 -96 -193 -96q-123 0 -177 79q-44 64 -42 176q2 88 26 139q26 55 80.5 84.5t125.5 29.5zM260 373q-45 0 -66 -43q-13 -28 -15 -84q0 -54 14 -82q20 -41 63 -41q54 0 71 54q9 31 9 71q1 53 -12 82q-18 43 -64 43
zM269 537l-83 30l85 203l133 -43z" />
    <glyph glyph-name="upsilontonos" unicode="&#x3cd;" horiz-adv-x="551" 
d="M491 183q0 -85 -61 -136.5t-155 -51.5q-91 0 -153 52.5t-62 135.5v312h143v-291q0 -36 20 -55.5t53 -19.5q32 0 52.5 19.5t20.5 55.5v291h142v-312zM287 537l-83 30l85 203l133 -43z" />
    <glyph glyph-name="omegatonos" unicode="&#x3ce;" horiz-adv-x="757" 
d="M498 366l18 134q205 -6 205 -251q0 -116 -48.5 -184.5t-154.5 -68.5q-90 0 -132 76h-3q-44 -76 -127 -76q-216 0 -216 253q0 235 202 251l21 -134q-46 -7 -63 -35.5t-17 -86.5q0 -22 1.5 -37t6.5 -36.5t19.5 -33t36.5 -11.5q64 0 64 75v129h138v-129q0 -75 64 -75
q22 0 36.5 11.5t20 33t7 36.5t1.5 37q0 60 -15.5 89t-64.5 33zM390 537l-83 30l85 203l133 -43z" />
    <glyph glyph-name="afii10023" unicode="&#x401;" horiz-adv-x="585" 
d="M562 0h-492v696h492v-138h-338v-141h288v-133h-288v-146h338v-138zM498 744h-152v133h152v-133zM284 744h-153v133h153v-133z" />
    <glyph glyph-name="afii10051" unicode="&#x402;" horiz-adv-x="780" 
d="M500 474q102 0 165.5 -61.5t63.5 -176.5q0 -120 -65.5 -191t-203.5 -71q-16 0 -25 1v123q137 0 137 135q0 46 -29 77.5t-82 31.5q-69 0 -116 -52v-290h-153v563h-184v133h581v-133h-244v-143h4q27 24 70.5 39t80.5 15z" />
    <glyph glyph-name="afii10052" unicode="&#x403;" horiz-adv-x="566" 
d="M562 558h-338v-558h-154v696h492v-138zM277 733l-56 69l180 128l90 -107z" />
    <glyph glyph-name="afii10053" unicode="&#x404;" horiz-adv-x="600" 
d="M427 225l146 -56q-26 -82 -94 -128.5t-165 -46.5q-132 0 -200.5 74t-68.5 198v164q0 115 70 193t199 78q97 0 165 -48t94 -129l-146 -52q-9 38 -38.5 61.5t-75.5 23.5q-54 0 -83.5 -33t-29.5 -80v-27h190v-133h-190v-29q0 -49 29 -83t84 -34q45 0 75.5 24t38.5 63z" />
    <glyph glyph-name="afii10054" unicode="&#x405;" horiz-adv-x="594" 
d="M540 637l-71 -123q-74 47 -171 47q-51 0 -71.5 -19.5t-20.5 -45.5q0 -32 28.5 -46t117.5 -28q47 -7 83 -20.5t67 -37t48 -61.5t17 -89q0 -103 -82.5 -161.5t-192.5 -58.5q-175 0 -284 96l89 118q82 -73 203 -73q48 0 76.5 20t28.5 49q0 31 -19 51t-76 25
q-55 5 -96.5 16.5t-80.5 33.5t-59.5 62t-20.5 96q0 103 72.5 158.5t168.5 55.5q148 0 246 -65z" />
    <glyph glyph-name="afii10055" unicode="&#x406;" horiz-adv-x="294" 
d="M227 0h-154v696h154v-696z" />
    <glyph glyph-name="afii10056" unicode="&#x407;" horiz-adv-x="294" 
d="M227 0h-154v696h154v-696zM320 748h-149v130h149v-130zM101 748h-148v130h148v-130z" />
    <glyph glyph-name="afii10057" unicode="&#x408;" horiz-adv-x="511" 
d="M448 225q0 -123 -65 -176.5t-169 -53.5q-144 0 -211 93l103 101q50 -54 99 -54q36 0 63.5 21t27.5 76v464h152v-471z" />
    <glyph glyph-name="afii10058" unicode="&#x409;" horiz-adv-x="982" 
d="M140 382v314h435v-267h142q114 0 177.5 -60.5t63.5 -146.5q0 -104 -65 -163t-179 -59h-293v557h-139v-166q0 -72 -4.5 -124.5t-19.5 -107t-41.5 -89t-73 -58t-110.5 -25.5l-21 125q35 7 59 23.5t37.5 36.5t20.5 55.5t9 68t2 86.5zM802 216q0 32 -22.5 53.5t-68.5 21.5
h-137v-153h137q46 0 68.5 22.5t22.5 55.5z" />
    <glyph glyph-name="afii10059" unicode="&#x40a;" horiz-adv-x="944" 
d="M681 0h-293v291h-172v-291h-154v696h154v-267h172v267h154v-267h142q114 0 177.5 -60.5t63.5 -146.5q0 -104 -65 -163t-179 -59zM769 216q0 32 -22.5 53.5t-68.5 21.5h-137v-153h137q46 0 68.5 22.5t22.5 55.5z" />
    <glyph glyph-name="afii10060" unicode="&#x40b;" horiz-adv-x="771" 
d="M717 0h-153v238q0 48 -22.5 76t-83.5 28q-26 0 -59 -14t-54 -38v-290h-153v563h-184v133h581v-133h-244v-143h4q28 24 71 39t85 15q101 0 156.5 -52t55.5 -140v-282z" />
    <glyph glyph-name="afii10061" unicode="&#x40c;" horiz-adv-x="652" 
d="M468 362l-1 -3q71 -24 103 -136l67 -223h-157l-53 177q-20 64 -51.5 86t-77.5 22h-74v-285h-153v697h153v-279h69q27 0 47.5 5.5t43.5 29.5t36 67l56 174h149l-63 -203q-28 -102 -94 -129zM282 733l-56 69l180 128l90 -107z" />
    <glyph glyph-name="afii10062" unicode="&#x40e;" horiz-adv-x="590" 
d="M110 -17v126h55q37 0 54 37l6 13l-213 537h168l61 -188l55 -168h5l50 164l59 192h163l-186 -506q-43 -118 -84 -162.5t-120 -44.5h-73zM302 721q-41 0 -71.5 16t-47.5 42t-25.5 51t-11.5 52h100q0 -23 15 -45.5t41 -22.5t41 22.5t15 45.5h100q-3 -27 -11.5 -52t-25.5 -51
t-47.5 -42t-71.5 -16z" />
    <glyph glyph-name="afii10145" unicode="&#x40f;" horiz-adv-x="674" 
d="M452 696h152v-696h-196v-178h-138v178h-200v696h154v-557h228v557z" />
    <glyph glyph-name="afii10017" unicode="&#x410;" horiz-adv-x="660" 
d="M659 0h-162l-52 142h-233l-52 -142h-162l270 696h121zM397 272l-26 80l-41 138h-4l-40 -136l-26 -82h137z" />
    <glyph glyph-name="afii10018" unicode="&#x411;" horiz-adv-x="609" 
d="M347 0h-294v696h461v-138h-307v-129h142q115 0 178.5 -61t63.5 -146q0 -104 -65 -163t-179 -59zM435 216q0 32 -22.5 53.5t-68.5 21.5h-137v-153h137q46 0 68.5 22.5t22.5 55.5z" />
    <glyph glyph-name="afii10019" unicode="&#x412;" horiz-adv-x="637" 
d="M604 207q0 -91 -63.5 -149t-153.5 -58h-317v696h293q109 0 169.5 -54t60.5 -143q0 -41 -21.5 -78.5t-65.5 -57.5v-4q45 -16 71.5 -61.5t26.5 -90.5zM430 492q0 66 -88 66h-118v-139h118q45 0 66.5 21t21.5 52zM446 214q0 32 -23 55t-68 23h-131v-154h131q46 0 68.5 21.5
t22.5 54.5z" />
    <glyph glyph-name="afii10020" unicode="&#x413;" horiz-adv-x="566" 
d="M562 558h-338v-558h-154v696h492v-138z" />
    <glyph glyph-name="afii10021" unicode="&#x414;" horiz-adv-x="756" 
d="M182 696h473v-559h71v-298h-128v161h-449v-161h-129v289l76 16q36 33 50 82.5t21 179.5zM503 137v420h-190l-9 -161q0 -4 -1.5 -28.5t-2 -32l-2 -30t-3.5 -33t-4.5 -30t-5.5 -31t-7.5 -26.5t-9.5 -26.5t-12 -21.5h247z" />
    <glyph glyph-name="afii10022" unicode="&#x415;" horiz-adv-x="585" 
d="M562 0h-492v696h492v-138h-338v-141h288v-133h-288v-146h338v-138z" />
    <glyph glyph-name="afii10024" unicode="&#x416;" horiz-adv-x="1000" 
d="M187 358l1 4q-65 27 -93 129l-63 203h149l56 -174q13 -43 36 -67t43.5 -29.5t47.5 -5.5h59v279h154v-279h59q27 0 47.5 5.5t43.5 29.5t36 67l56 174h149l-63 -203q-28 -102 -94 -129l2 -4q68 -26 100 -135l67 -223h-157l-53 177q-20 64 -51.5 86t-77.5 22h-64v-285h-154
v285h-64q-46 0 -77.5 -22t-51.5 -86l-53 -177h-157l67 223q32 110 100 135z" />
    <glyph glyph-name="afii10025" unicode="&#x417;" horiz-adv-x="598" 
d="M453 368l1 -5q39 -11 63.5 -40t32.5 -57.5t8 -57.5q0 -104 -78 -158.5t-188 -54.5q-98 0 -170 44t-100 122l141 59q14 -34 49.5 -58t79.5 -24q47 0 78.5 22.5t31.5 61.5q0 36 -25.5 56t-65.5 20h-88v128h94q35 0 59 19t24 48q0 35 -26 51t-66 16q-45 0 -79 -21.5
t-50 -55.5l-131 70q73 152 261 152q108 0 176.5 -48.5t68.5 -142.5q0 -103 -101 -146z" />
    <glyph glyph-name="afii10026" unicode="&#x418;" horiz-adv-x="710" 
d="M208 0h-137v696h154v-436h3l143 223l146 213h127v-696h-154v421h-3l-102 -165z" />
    <glyph glyph-name="afii10027" unicode="&#x419;" horiz-adv-x="710" 
d="M360 734q-41 0 -71.5 16t-47.5 42t-25.5 51t-11.5 52h100q0 -23 15 -45.5t41 -22.5t41 22.5t15 45.5h100q-3 -27 -11.5 -52t-25.5 -51t-47.5 -42t-71.5 -16zM208 0h-137v696h154v-436h3l143 223l146 213h127v-696h-154v421h-3l-102 -165z" />
    <glyph glyph-name="afii10028" unicode="&#x41a;" horiz-adv-x="652" 
d="M468 362l-1 -3q71 -24 103 -136l67 -223h-157l-53 177q-20 64 -51.5 86t-77.5 22h-74v-285h-153v697h153v-279h69q27 0 47.5 5.5t43.5 29.5t36 67l56 174h149l-63 -203q-28 -102 -94 -129z" />
    <glyph glyph-name="afii10029" unicode="&#x41b;" horiz-adv-x="686" 
d="M148 696h458v-696h-152v557h-164v-166q0 -72 -4.5 -124.5t-19.5 -107t-41.5 -89t-73 -58t-110.5 -25.5l-21 125q35 7 59 23.5t37.5 36.5t20.5 55.5t9 68t2 86.5v314z" />
    <glyph glyph-name="afii10030" unicode="&#x41c;" horiz-adv-x="782" 
d="M721 0h-153v331l-3 1l-63 -141l-47 -98h-118l-49 103l-61 136l-3 -3v-329h-154v696h139l94 -202l90 -209h4l87 209l92 202h145v-696z" />
    <glyph glyph-name="afii10031" unicode="&#x41d;" horiz-adv-x="674" 
d="M604 0h-152v284h-228v-284h-154v696h154v-279h228v279h152v-696z" />
    <glyph glyph-name="afii10032" unicode="&#x41e;" horiz-adv-x="624" 
d="M310 701q124 0 198.5 -76t74.5 -195v-164q0 -124 -74.5 -198t-198.5 -74q-129 0 -199 78t-70 194v164q0 115 70 193t199 78zM309 557q-54 0 -83.5 -33t-29.5 -80v-189q0 -49 29 -83t84 -34q54 0 85.5 33t31.5 84v189q0 48 -31.5 80.5t-85.5 32.5z" />
    <glyph glyph-name="afii10033" unicode="&#x41f;" horiz-adv-x="674" 
d="M604 0h-152v557h-228v-557h-154v696h534v-696z" />
    <glyph glyph-name="afii10034" unicode="&#x420;" horiz-adv-x="609" 
d="M601 472q0 -94 -70 -156t-171 -62h-136v-254h-154v696h287q111 0 177.5 -60.5t66.5 -163.5zM445 475q0 83 -96 83h-125v-166h129q39 0 65.5 23t26.5 60z" />
    <glyph glyph-name="afii10035" unicode="&#x421;" horiz-adv-x="600" 
d="M427 225l146 -56q-26 -82 -94 -128.5t-165 -46.5q-132 0 -200.5 74t-68.5 198v164q0 115 70 193t199 78q97 0 165 -48t94 -129l-146 -52q-9 38 -38.5 61.5t-75.5 23.5q-54 0 -83.5 -33t-29.5 -80v-189q0 -49 29 -83t84 -34q45 0 75.5 24t38.5 63z" />
    <glyph glyph-name="afii10036" unicode="&#x422;" horiz-adv-x="556" 
d="M541 558h-190v-558h-153v558h-190v138h533v-138z" />
    <glyph glyph-name="afii10037" unicode="&#x423;" horiz-adv-x="590" 
d="M110 -17v126h55q37 0 54 37l6 13l-213 537h168l61 -188l55 -168h5l50 164l59 192h163l-186 -506q-43 -118 -84 -162.5t-120 -44.5h-73z" />
    <glyph glyph-name="afii10038" unicode="&#x424;" horiz-adv-x="783" 
d="M742 354q0 -123 -75.5 -206t-203.5 -84v-64h-143v64q-138 12 -206.5 89.5t-68.5 200.5q0 125 72 208.5t203 87.5v46h143v-46q141 -10 210.5 -88t68.5 -208zM463 528v-343q80 6 105.5 47.5t25.5 122.5q1 42 -8 76.5t-40 64.5t-83 32zM320 526q-130 -17 -127 -171
q1 -77 28.5 -119.5t98.5 -50.5v341z" />
    <glyph glyph-name="afii10039" unicode="&#x425;" horiz-adv-x="629" 
d="M626 0h-175l-139 226l-138 -226h-174l236 356l-223 340h175l124 -209l125 209h175l-223 -340z" />
    <glyph glyph-name="afii10040" unicode="&#x426;" horiz-adv-x="715" 
d="M567 -161v161h-497v696h154v-557h228v557h152v-559h91v-298h-128z" />
    <glyph glyph-name="afii10041" unicode="&#x427;" horiz-adv-x="647" 
d="M55 697h150v-212q0 -110 108 -110q65 0 113 24v298h151v-696h-152v281q-53 -30 -154 -30q-93 0 -154.5 51t-61.5 162v232z" />
    <glyph glyph-name="afii10042" unicode="&#x428;" horiz-adv-x="956" 
d="M734 696h152v-696h-816v696h154v-557h178v557h154v-557h178v557z" />
    <glyph glyph-name="afii10043" unicode="&#x429;" horiz-adv-x="998" 
d="M850 -161v161h-780v696h154v-557h178v557h154v-557h178v557h153v-559h91v-298h-128z" />
    <glyph glyph-name="afii10044" unicode="&#x42a;" horiz-adv-x="762" 
d="M503 0h-293v558h-197v138h351v-267h142q114 0 177.5 -60.5t63.5 -146.5q0 -104 -65 -163t-179 -59zM591 216q0 32 -22.5 53.5t-68.5 21.5h-137v-153h137q46 0 68.5 22.5t22.5 55.5z" />
    <glyph glyph-name="afii10045" unicode="&#x42b;" horiz-adv-x="887" 
d="M363 0h-293v696h154v-267h143q114 0 177 -60.5t63 -146.5q0 -104 -65 -163t-179 -59zM817 0h-154v696h154v-696zM451 216q0 32 -22.5 53.5t-68.5 21.5h-137v-153h137q46 0 68.5 22.5t22.5 55.5z" />
    <glyph glyph-name="afii10046" unicode="&#x42c;" horiz-adv-x="621" 
d="M607 222q0 -104 -65 -163t-179 -59h-293v696h154v-267h141q115 0 178.5 -61t63.5 -146zM451 216q0 32 -22.5 53.5t-68.5 21.5h-137v-153h137q46 0 68.5 22.5t22.5 55.5z" />
    <glyph glyph-name="afii10047" unicode="&#x42d;" horiz-adv-x="627" 
d="M37 171l146 56q25 -87 111 -87q55 0 85.5 34.5t30.5 82.5v31h-190v133h190v25q0 113 -111 113q-42 0 -74 -24t-40 -61l-146 52q26 81 96 129t168 48q135 0 198.5 -76t63.5 -195v-164q0 -123 -70 -197.5t-202 -74.5q-97 0 -163.5 46.5t-92.5 128.5z" />
    <glyph glyph-name="afii10048" unicode="&#x42e;" horiz-adv-x="853" 
d="M551 701q129 0 194.5 -74t65.5 -197v-164q0 -125 -70 -198.5t-193 -73.5q-128 0 -193.5 77.5t-65.5 194.5v18h-72v-284h-154v696h154v-279h72v13q0 116 66.5 193.5t195.5 77.5zM549 557q-54 0 -79.5 -32.5t-25.5 -80.5v-189q0 -50 24.5 -83.5t78.5 -33.5q53 0 80 32.5
t27 84.5v189q0 49 -26 81t-79 32z" />
    <glyph glyph-name="afii10049" unicode="&#x42f;" horiz-adv-x="656" 
d="M286 696h300v-696h-154v281h-70q-41 0 -68.5 -25t-48.5 -90l-48 -166h-162l53 193q25 93 92 113q-58 17 -88.5 67t-30.5 114q0 97 64.5 153t160.5 56zM221 481q0 -68 96 -68h115v146h-120q-91 0 -91 -78z" />
    <glyph glyph-name="afii10065" unicode="&#x430;" horiz-adv-x="516" 
d="M468 0h-142v46l-3 1q-44 -52 -122 -52q-76 0 -121 38t-45 114q0 66 48 109.5t131 43.5h112v16q0 60 -83 60q-73 0 -117 -39l-69 97q73 66 201 66q210 0 210 -169v-331zM326 180v16h-94q-60 0 -60 -37q0 -9 4 -18t20.5 -18.5t43.5 -9.5q36 0 61 17t25 50z" />
    <glyph glyph-name="afii10066" unicode="&#x431;" horiz-adv-x="516" 
d="M258 348q-40 0 -61 -32q-18 -29 -18 -81q0 -60 24 -88q19 -23 55 -23q42 0 61 31q17 27 17 81q0 56 -16 81q-19 31 -62 31zM293 477q96 0 147 -69q43 -59 43 -156q0 -110 -46 -177q-57 -82 -185 -82q-112 0 -163 56q-57 64 -57 227q3 121 14 178q32 164 201 226
q14 5 70 22.5t97 32.5l42 -110q-33 -12 -70.5 -25.5t-45.5 -16.5q-93 -35 -121 -61t-35 -88q1 0 2 -1q39 44 107 44z" />
    <glyph glyph-name="afii10067" unicode="&#x432;" horiz-adv-x="520" 
d="M497 153q0 -68 -50 -110.5t-129 -42.5h-263v495h251q89 0 135.5 -38.5t46.5 -103.5q0 -70 -66 -97q34 -12 54.5 -42.5t20.5 -60.5zM351 163q0 38 -52 38h-101v-77h101q52 0 52 39zM342 337q0 36 -51 36h-93v-74h93q51 0 51 38z" />
    <glyph glyph-name="afii10068" unicode="&#x433;" horiz-adv-x="455" 
d="M455 373h-259v-373h-142v495h401v-122z" />
    <glyph glyph-name="afii10069" unicode="&#x434;" horiz-adv-x="618" 
d="M394 124v250h-117l-7 -90q-11 -126 -36 -160h160zM159 495h376v-370h63v-267h-124v142h-330v-142h-124v258l63 12q30 28 41.5 56t17.5 92z" />
    <glyph glyph-name="afii10070" unicode="&#x435;" horiz-adv-x="533" 
d="M489 210h-306q4 -46 25 -66.5t58 -20.5q61 0 112 46l88 -98q-84 -77 -204 -77q-44 0 -82 12t-72 39t-53.5 78.5t-19.5 122.5q0 130 66 192t160 62q114 0 171 -69t57 -186v-35zM335 302q-4 33 -24.5 52t-48.5 19t-48.5 -19.5t-25.5 -51.5h147z" />
    <glyph glyph-name="afii10072" unicode="&#x436;" horiz-adv-x="818" 
d="M150 255v4q-50 18 -71 91l-45 144h141l36 -117q21 -71 90 -71h37v189h142v-189h37q69 0 90 71l36 117h141l-45 -144q-21 -73 -71 -91v-4q54 -17 76 -96l49 -159h-147l-34 117q-15 44 -37 60t-54 16h-41v-193h-142v193h-41q-32 0 -54 -16t-37 -60l-34 -117h-147l49 159
q22 79 76 96z" />
    <glyph glyph-name="afii10073" unicode="&#x437;" horiz-adv-x="462" 
d="M226 504q92 0 143.5 -36.5t51.5 -107.5q0 -26 -18.5 -57.5t-54.5 -46.5l-1 -5q44 -13 62 -42.5t18 -60.5q0 -73 -58.5 -113t-145.5 -40q-71 0 -120.5 17t-92.5 59l78 92q17 -18 54.5 -32t69.5 -14q33 0 52.5 13t19.5 31q0 40 -66 40h-72v99h82q23 0 36.5 12t13.5 27
q0 39 -67 39q-22 0 -55 -10.5t-54 -26.5l-64 97q80 66 188 66z" />
    <glyph glyph-name="afii10074" unicode="&#x438;" horiz-adv-x="570" 
d="M195 209h3l105 147l101 139h115v-495h-139v275h-4l-81 -114l-117 -161h-123v495h140v-286z" />
    <glyph glyph-name="afii10075" unicode="&#x439;" horiz-adv-x="570" 
d="M286 561q-41 0 -71.5 16t-47.5 42t-25.5 51t-11.5 52h100q0 -23 15 -45.5t41 -22.5t41 22.5t15 45.5h100q-3 -27 -11.5 -52t-25.5 -51t-47.5 -42t-71.5 -16zM195 209h3l105 147l101 139h115v-495h-139v275h-4l-81 -114l-117 -161h-123v495h140v-286z" />
    <glyph glyph-name="afii10076" unicode="&#x43a;" horiz-adv-x="543" 
d="M393 259v-4q54 -17 76 -96l49 -159h-147l-34 117q-15 44 -37 60t-54 16h-46v-193h-143v493h143v-188h42q69 0 90 72l36 117h141l-45 -144q-21 -73 -71 -91z" />
    <glyph glyph-name="afii10077" unicode="&#x43b;" horiz-adv-x="550" 
d="M122 495h374v-495h-142v371h-107v-95q0 -64 -8.5 -111.5t-30.5 -88.5t-64.5 -62t-104.5 -21l-18 100q65 14 83 51.5t18 127.5v223z" />
    <glyph glyph-name="afii10078" unicode="&#x43c;" horiz-adv-x="636" 
d="M317 236h1l63 125l74 134h129v-495h-138v222h-2l-40 -83l-38 -74h-95l-39 74l-40 83h-2v-222h-138v495h123l75 -134z" />
    <glyph glyph-name="afii10079" unicode="&#x43d;" horiz-adv-x="554" 
d="M500 0h-140v194h-165v-194h-141v495h141v-191h165v191h140v-495z" />
    <glyph glyph-name="afii10080" unicode="&#x43e;" horiz-adv-x="516" 
d="M265 501q122 0 179 -83q41 -59 39 -173q0 -93 -38 -156q-60 -96 -193 -96q-123 0 -177 79q-44 64 -42 176q2 88 26 139q26 55 80.5 84.5t125.5 29.5zM260 373q-45 0 -66 -43q-13 -28 -15 -84q0 -54 14 -82q20 -41 63 -41q54 0 71 54q9 31 9 71q1 53 -12 82q-18 43 -64 43
z" />
    <glyph glyph-name="afii10081" unicode="&#x43f;" horiz-adv-x="542" 
d="M484 0h-143v373h-145v-373h-143v494h431v-494z" />
    <glyph glyph-name="afii10082" unicode="&#x440;" horiz-adv-x="533" 
d="M63 495h142v-35l3 -1q37 40 107 40q41 0 72.5 -11t50.5 -32.5t31.5 -44.5t18 -56t7 -57t1.5 -57q0 -35 -4 -65.5t-16 -65t-32 -59t-55.5 -41t-81.5 -16.5q-27 0 -56 12t-43 33l-3 -1v-240h-142v697zM205 246q0 -122 72 -122q73 0 73 122q0 19 -1 32.5t-5 32t-11 30
t-21.5 20t-34.5 8.5q-24 0 -39.5 -11.5t-22 -33t-8.5 -38.5t-2 -40z" />
    <glyph glyph-name="afii10083" unicode="&#x441;" horiz-adv-x="463" 
d="M444 70q-84 -76 -187 -76q-99 0 -164 63.5t-65 189.5t68 189.5t169 63.5q104 0 175 -72l-92 -97q-42 41 -83 41q-88 0 -88 -125q0 -65 20 -94t65 -29q43 0 88 42z" />
    <glyph glyph-name="afii10084" unicode="&#x442;" horiz-adv-x="466" 
d="M446 373h-145v-373h-143v373h-146v122h434v-122z" />
    <glyph glyph-name="afii10085" unicode="&#x443;" horiz-adv-x="502" 
d="M502 495l-224 -591q-39 -104 -157 -104h-57v117h37q41 0 57 49l24 74l-182 455h153l48 -141l48 -156h4l47 154l50 143h152z" />
    <glyph glyph-name="afii10086" unicode="&#x444;" horiz-adv-x="699" 
d="M418 727v-228q59 0 113.5 -24t80.5 -62q45 -67 44 -168q0 -98 -40 -154q-61 -87 -198 -96v-189h-140v189q-128 2 -190 79q-46 58 -44 174q2 81 28 137q23 48 81.5 80t123.5 34v228h141zM277 120v251q-51 0 -71 -41q-14 -30 -16 -84q0 -52 15 -82q9 -19 29.5 -31.5
t42.5 -12.5zM418 371v-251q25 0 49 17t32 41q10 30 10 70q1 49 -13 80q-17 41 -78 43z" />
    <glyph glyph-name="afii10087" unicode="&#x445;" horiz-adv-x="538" 
d="M531 0h-173l-90 142l-89 -142h-172l189 252l-182 243h171l83 -136l83 136h172l-183 -243z" />
    <glyph glyph-name="afii10088" unicode="&#x446;" horiz-adv-x="595" 
d="M575 128v-270h-124v142h-391v495h140v-367h162v367h141v-367h72z" />
    <glyph glyph-name="afii10089" unicode="&#x447;" horiz-adv-x="511" 
d="M40 495h143v-136q0 -37 14 -54t55 -17q31 0 75 16v191h139v-495h-139v193q-54 -19 -108 -19q-77 0 -128 36.5t-51 116.5v168z" />
    <glyph glyph-name="afii10090" unicode="&#x448;" horiz-adv-x="805" 
d="M609 495h136v-495h-685v495h137v-367h137v367h138v-367h137v367z" />
    <glyph glyph-name="afii10091" unicode="&#x449;" horiz-adv-x="838" 
d="M746 495v-367h72v-270h-124v142h-634v495h137v-367h137v367h139v-367h137v367h136z" />
    <glyph glyph-name="afii10092" unicode="&#x44a;" horiz-adv-x="607" 
d="M593 180q0 -76 -47 -128t-140 -52h-240v373h-150v122h290v-153h100q98 0 142.5 -48.5t44.5 -113.5zM449 170q0 20 -13 35t-44 15h-87v-95h87q29 0 43 13t14 32z" />
    <glyph glyph-name="afii10093" unicode="&#x44b;" horiz-adv-x="715" 
d="M478 180q0 -76 -47 -128t-140 -52h-239v495h139v-153h100q98 0 142.5 -48.5t44.5 -113.5zM660 0h-139v495h139v-495zM334 170q0 20 -13 35t-44 15h-87v-95h87q29 0 43 13t14 32z" />
    <glyph glyph-name="afii10094" unicode="&#x44c;" horiz-adv-x="501" 
d="M472 180q0 -76 -47 -128t-140 -52h-239v495h139v-153h100q98 0 142.5 -48.5t44.5 -113.5zM328 170q0 20 -13 35t-44 15h-87v-95h87q29 0 43 13t14 32z" />
    <glyph glyph-name="afii10095" unicode="&#x44d;" horiz-adv-x="482" 
d="M24 53l73 106q43 -35 95 -35q40 0 67 19.5t29 56.5h-127v97h129q-3 35 -27.5 54.5t-63.5 19.5q-49 0 -88 -34l-73 99q65 64 173 64t169.5 -60t61.5 -188q0 -126 -70.5 -191.5t-175.5 -65.5q-102 0 -172 58z" />
    <glyph glyph-name="afii10096" unicode="&#x44e;" horiz-adv-x="719" 
d="M471 503q119 0 176 -85q40 -60 38 -172q0 -89 -37 -155q-29 -48 -79.5 -73t-109.5 -25q-120 0 -174 81q-33 48 -39 122h-53v-196h-143v495h143v-193h54q7 51 22 85q26 55 79.5 85.5t122.5 30.5zM466 374q-43 0 -64 -43q-13 -28 -15 -84q0 -54 14 -82q20 -41 62 -41
q52 0 69 54q9 31 9 71q1 53 -12 82q-18 43 -63 43z" />
    <glyph glyph-name="afii10097" unicode="&#x44f;" horiz-adv-x="533" 
d="M330 180h-43q-59 0 -78 -67l-33 -113h-149l39 123q17 62 64 82q-85 27 -87 122q-1 78 48.5 123t132.5 45h249v-495h-143v180zM183 325q0 -40 58 -40h89v90h-91q-56 0 -56 -50z" />
    <glyph glyph-name="afii10071" unicode="&#x451;" horiz-adv-x="533" 
d="M489 210h-306q4 -46 25 -66.5t58 -20.5q61 0 112 46l88 -98q-84 -77 -204 -77q-44 0 -82 12t-72 39t-53.5 78.5t-19.5 122.5q0 130 66 192t160 62q114 0 171 -69t57 -186v-35zM335 302q-4 33 -24.5 52t-48.5 19t-48.5 -19.5t-25.5 -51.5h147zM445 576h-149v130h149v-130z
M226 576h-148v130h148v-130z" />
    <glyph glyph-name="afii10099" unicode="&#x452;" horiz-adv-x="610" 
d="M347 494q219 0 219 -245q0 -120 -61 -193.5t-188 -73.5q-16 0 -24 1v125h12q64 0 89 35t25 103q0 120 -97 120q-41 0 -68 -28.5t-27 -87.5l-1 -250h-143v558h-77v93h77v76h143v-76h190v-93h-189v-116q47 52 120 52z" />
    <glyph glyph-name="afii10100" unicode="&#x453;" horiz-adv-x="455" 
d="M439 373h-259v-373h-142v495h401v-122zM249 537l-83 30l85 203l133 -43z" />
    <glyph glyph-name="afii10101" unicode="&#x454;" horiz-adv-x="463" 
d="M364 159l73 -106q-70 -58 -172 -58t-172 62t-70 186q0 126 70.5 191.5t171.5 65.5q98 0 170 -63l-74 -99q-37 34 -92 34q-77 0 -92 -75h127v-97h-127q2 -37 27 -56.5t65 -19.5q52 0 95 35z" />
    <glyph glyph-name="afii10102" unicode="&#x455;" horiz-adv-x="468" 
d="M445 155q0 -76 -61.5 -118.5t-147.5 -42.5q-65 0 -117.5 15.5t-104.5 61.5l70 100q59 -57 158 -57q27 0 45 11t18 26q0 36 -62 43q-45 5 -74 11.5t-61 21.5t-48 43.5t-16 69.5q0 77 53.5 118.5t134.5 41.5q124 0 202 -58l-64 -106q-60 41 -135 41q-29 0 -43.5 -10
t-14.5 -22q0 -17 21.5 -26t78.5 -16q79 -10 123.5 -42t44.5 -106z" />
    <glyph glyph-name="afii10103" unicode="&#x456;" horiz-adv-x="269" 
d="M206 571h-143v125h143v-125zM206 0h-143v495h143v-495z" />
    <glyph glyph-name="afii10104" unicode="&#x457;" horiz-adv-x="367" 
d="M368 569h-149v130h149v-130zM149 569h-148v130h148v-130zM258 0h-143v495h143v-495z" />
    <glyph glyph-name="afii10105" unicode="&#x458;" horiz-adv-x="286" 
d="M215 571h-143v125h143v-125zM215 496v-548q0 -69 -42 -108.5t-122 -39.5h-60v124h26q33 0 44 14t11 38v520h143z" />
    <glyph glyph-name="afii10106" unicode="&#x459;" horiz-adv-x="779" 
d="M333 0v371h-92v-95q0 -64 -8.5 -111.5t-30.5 -88.5t-64.5 -62t-104.5 -21l-18 100q65 14 83 51.5t18 127.5v223h357v-153h98q98 0 142.5 -48.5t44.5 -113.5q0 -76 -47 -128t-140 -52h-238zM616 170q0 20 -13 35t-44 15h-87v-95h87q29 0 43 13t14 32z" />
    <glyph glyph-name="afii10107" unicode="&#x45a;" horiz-adv-x="755" 
d="M730 175q0 -75 -47 -125t-140 -50h-240v207h-118v-207h-142v495h142v-166h118v166h140v-163h100q98 0 142.5 -46.5t44.5 -110.5zM587 165q0 45 -54 45h-90v-88h90q54 0 54 43z" />
    <glyph glyph-name="afii10108" unicode="&#x45b;" horiz-adv-x="581" 
d="M520 0h-142v277q0 36 -19.5 56t-50.5 20q-34 0 -54.5 -23.5t-20.5 -61.5v-268h-143v550h-75v93h75v83h143v-83h182v-93h-182v-105l4 -1q21 18 56 29.5t69 11.5q72 0 115 -46.5t43 -131.5v-307z" />
    <glyph glyph-name="afii10109" unicode="&#x45c;" horiz-adv-x="543" 
d="M280 537l-83 30l85 203l133 -43zM393 259v-4q54 -17 76 -96l49 -159h-147l-34 117q-15 44 -37 60t-54 16h-46v-193h-143v493h143v-188h42q69 0 90 72l36 117h141l-45 -144q-21 -73 -71 -91z" />
    <glyph glyph-name="afii10110" unicode="&#x45e;" horiz-adv-x="502" 
d="M502 495l-224 -591q-39 -104 -157 -104h-57v117h37q41 0 57 49l24 74l-182 455h153l48 -141l48 -156h4l47 154l50 143h152zM259 561q-41 0 -71.5 16t-47.5 42t-25.5 51t-11.5 52h100q0 -23 15 -45.5t41 -22.5t41 22.5t15 45.5h100q-3 -27 -11.5 -52t-25.5 -51t-47.5 -42
t-71.5 -16z" />
    <glyph glyph-name="afii10193" unicode="&#x45f;" horiz-adv-x="541" 
d="M354 495h134v-495h-155v-157h-124v157h-155v495h135v-367h165v367z" />
    <glyph glyph-name="afii10050" unicode="&#x490;" horiz-adv-x="566" 
d="M562 558h-338v-558h-154v696h367v132h125v-270z" />
    <glyph glyph-name="afii10098" unicode="&#x491;" horiz-adv-x="455" 
d="M455 373h-260v-373h-141v495h286v106h115v-228z" />
    <glyph glyph-name="schwacyrillic" unicode="&#x4d9;" horiz-adv-x="533" 
d="M35 284h306q-4 46 -25 66.5t-58 20.5q-61 0 -112 -46l-88 98q84 77 204 77q44 0 82 -12t72 -39t53.5 -78.5t19.5 -122.5q0 -130 -66 -192t-160 -62q-114 0 -171 69t-57 186v35zM189 192q4 -33 24.5 -52t48.5 -19t48.5 19.5t25.5 51.5h-147z" />
    <glyph glyph-name="Wgrave" unicode="&#x1e80;" horiz-adv-x="854" 
d="M853 694l-186 -696h-124l-65 226l-49 190h-3l-50 -193l-64 -223h-125l-186 696h161l49 -206l44 -198h3l53 198l60 206h112l60 -205l53 -199h5l42 198l49 206h161zM511 802l-56 -69l-214 90l90 107z" />
    <glyph glyph-name="wgrave" unicode="&#x1e81;" horiz-adv-x="753" 
d="M750 495l-169 -495h-120l-38 122l-44 151h-3l-43 -150l-40 -123h-119l-169 495h152l35 -123l39 -154h5l45 154l40 123h114l39 -123l44 -154h6l39 154l35 123h152zM441 575l-81 -38l-146 186l134 46z" />
    <glyph glyph-name="Wacute" unicode="&#x1e82;" horiz-adv-x="854" 
d="M853 694l-186 -696h-124l-65 226l-49 190h-3l-50 -193l-64 -223h-125l-186 696h161l49 -206l44 -198h3l53 198l60 206h112l60 -205l53 -199h5l42 198l49 206h161zM395 733l-56 69l180 128l90 -107z" />
    <glyph glyph-name="wacute" unicode="&#x1e83;" horiz-adv-x="753" 
d="M750 495l-169 -495h-120l-38 122l-44 151h-3l-43 -150l-40 -123h-119l-169 495h152l35 -123l39 -154h5l45 154l40 123h114l39 -123l44 -154h6l39 154l35 123h152zM418 537l-83 30l85 203l133 -43z" />
    <glyph glyph-name="Wdieresis" unicode="&#x1e84;" horiz-adv-x="854" 
d="M853 694l-186 -696h-124l-65 226l-49 190h-3l-50 -193l-64 -223h-125l-186 696h161l49 -206l44 -198h3l53 198l60 206h112l60 -205l53 -199h5l42 198l49 206h161zM612 744h-152v133h152v-133zM398 744h-153v133h153v-133z" />
    <glyph glyph-name="wdieresis" unicode="&#x1e85;" horiz-adv-x="753" 
d="M750 495l-169 -495h-120l-38 122l-44 151h-3l-43 -150l-40 -123h-119l-169 495h152l35 -123l39 -154h5l45 154l40 123h114l39 -123l44 -154h6l39 154l35 123h152zM559 569h-149v130h149v-130zM340 569h-148v130h148v-130z" />
    <glyph glyph-name="Ygrave" unicode="&#x1ef2;" horiz-adv-x="605" 
d="M603 696l-225 -411v-285h-147v285l-224 411h165l71 -150l60 -135h4l59 134l72 151h165zM402 802l-56 -69l-214 90l90 107z" />
    <glyph glyph-name="ygrave" unicode="&#x1ef3;" horiz-adv-x="502" 
d="M502 495l-224 -591q-39 -104 -157 -104h-57v117h37q41 0 57 49l24 74l-182 455h153l48 -141l48 -156h4l47 154l50 143h152zM313 575l-81 -38l-146 186l134 46z" />
    <glyph glyph-name="uni1F00" unicode="&#x1f00;" horiz-adv-x="533" 
d="M42 236q0 263 191 263q60 0 97 -40l3 1v35h142v-495h-142v39l-3 1q-17 -20 -45 -33t-53 -13q-190 0 -190 242zM188 246q0 -25 2 -42t8.5 -37.5t22.5 -31t40 -10.5q72 0 72 121q0 122 -72 122q-25 0 -41 -11t-22 -32t-8 -37.5t-2 -41.5zM295 525l-70 31q33 44 33 73
q0 31 -66 43l38 110q139 -26 139 -121q0 -27 -18.5 -64.5t-55.5 -71.5z" />
    <glyph glyph-name="uni1F01" unicode="&#x1f01;" horiz-adv-x="533" 
d="M42 236q0 263 191 263q60 0 97 -40l3 1v35h142v-495h-142v39l-3 1q-17 -20 -45 -33t-53 -13q-190 0 -190 242zM188 246q0 -25 2 -42t8.5 -37.5t22.5 -31t40 -10.5q72 0 72 121q0 122 -72 122q-25 0 -41 -11t-22 -32t-8 -37.5t-2 -41.5zM344 556l-70 -31
q-37 34 -55.5 71.5t-18.5 64.5q0 95 139 121l38 -110q-66 -12 -66 -43q0 -29 33 -73z" />
    <glyph glyph-name="uni1F02" unicode="&#x1f02;" horiz-adv-x="533" 
d="M42 236q0 263 191 263q60 0 97 -40l3 1v35h142v-495h-142v39l-3 1q-17 -20 -45 -33t-53 -13q-190 0 -190 242zM188 246q0 -25 2 -42t8.5 -37.5t22.5 -31t40 -10.5q72 0 72 121q0 122 -72 122q-25 0 -41 -11t-22 -32t-8 -37.5t-2 -41.5zM168 538l-69 32q34 48 34 73
q0 31 -67 43l38 109q64 -12 101 -42.5t37 -78.5q0 -27 -18.5 -65t-55.5 -71zM465 567l-77 -30l-155 237l133 28z" />
    <glyph glyph-name="uni1F03" unicode="&#x1f03;" horiz-adv-x="533" 
d="M42 236q0 263 191 263q60 0 97 -40l3 1v35h142v-495h-142v39l-3 1q-17 -20 -45 -33t-53 -13q-190 0 -190 242zM188 246q0 -25 2 -42t8.5 -37.5t22.5 -31t40 -10.5q72 0 72 121q0 122 -72 122q-25 0 -41 -11t-22 -32t-8 -37.5t-2 -41.5zM196 569l-68 -31q-37 34 -56 71.5
t-19 63.5q0 48 37 78.5t101 42.5l39 -109q-67 -12 -67 -43q0 -27 33 -73zM465 567l-77 -30l-155 237l133 28z" />
    <glyph glyph-name="uni1F04" unicode="&#x1f04;" horiz-adv-x="533" 
d="M42 236q0 263 191 263q60 0 97 -40l3 1v35h142v-495h-142v39l-3 1q-17 -20 -45 -33t-53 -13q-190 0 -190 242zM188 246q0 -25 2 -42t8.5 -37.5t22.5 -31t40 -10.5q72 0 72 121q0 122 -72 122q-25 0 -41 -11t-22 -32t-8 -37.5t-2 -41.5zM222 545l-69 32q33 42 33 73
q0 30 -67 43l39 109q138 -25 138 -121q0 -27 -18.5 -65t-55.5 -71zM369 537l-77 30l99 235l133 -28z" />
    <glyph glyph-name="uni1F05" unicode="&#x1f05;" horiz-adv-x="533" 
d="M42 236q0 263 191 263q60 0 97 -40l3 1v35h142v-495h-142v39l-3 1q-17 -20 -45 -33t-53 -13q-190 0 -190 242zM188 246q0 -25 2 -42t8.5 -37.5t22.5 -31t40 -10.5q72 0 72 121q0 122 -72 122q-25 0 -41 -11t-22 -32t-8 -37.5t-2 -41.5zM263 576l-69 -32q-38 33 -56.5 71
t-18.5 65q0 96 138 121l38 -109q-66 -13 -66 -43q0 -31 34 -73zM376 537l-77 30l99 235l133 -28z" />
    <glyph glyph-name="uni1F06" unicode="&#x1f06;" horiz-adv-x="533" 
d="M42 236q0 263 191 263q60 0 97 -40l3 1v35h142v-495h-142v39l-3 1q-17 -20 -45 -33t-53 -13q-190 0 -190 242zM188 246q0 -25 2 -42t8.5 -37.5t22.5 -31t40 -10.5q72 0 72 121q0 122 -72 122q-25 0 -41 -11t-22 -32t-8 -37.5t-2 -41.5zM299 529l-70 28q41 46 41 65
q0 24 -63 25l39 94q128 -18 128 -92q0 -56 -75 -120zM227 894q28 -1 73.5 -25t59.5 -24q30 0 67 48l68 -40q-50 -109 -121 -109q-29 0 -76.5 23.5t-63.5 23.5q-37 0 -74 -50l-65 41q27 56 58 84t74 28z" />
    <glyph glyph-name="uni1F07" unicode="&#x1f07;" horiz-adv-x="533" 
d="M42 236q0 263 191 263q60 0 97 -40l3 1v35h142v-495h-142v39l-3 1q-17 -20 -45 -33t-53 -13q-190 0 -190 242zM188 246q0 -25 2 -42t8.5 -37.5t22.5 -31t40 -10.5q72 0 72 121q0 122 -72 122q-25 0 -41 -11t-22 -32t-8 -37.5t-2 -41.5zM339 554l-70 -28q-75 64 -75 120
q0 74 128 92l39 -94q-63 -1 -63 -25q0 -19 41 -65zM217 904q28 -1 73.5 -25t59.5 -24q30 0 67 48l68 -40q-50 -109 -121 -109q-29 0 -76.5 23.5t-63.5 23.5q-37 0 -74 -50l-65 41q27 56 58 84t74 28z" />
    <glyph glyph-name="uni1F08" unicode="&#x1f08;" horiz-adv-x="660" 
d="M659 0h-162l-52 142h-233l-52 -142h-162l270 696h121zM397 272l-26 80l-41 138h-4l-40 -136l-26 -82h137zM81 469l-70 31q33 44 33 73q0 31 -66 43l38 110q139 -26 139 -121q0 -27 -18.5 -64.5t-55.5 -71.5z" />
    <glyph glyph-name="uni1F09" unicode="&#x1f09;" horiz-adv-x="660" 
d="M659 0h-162l-52 142h-233l-52 -142h-162l270 696h121zM397 272l-26 80l-41 138h-4l-40 -136l-26 -82h137zM119 501l-70 -31q-37 34 -55.5 71.5t-18.5 64.5q0 95 139 121l38 -110q-66 -12 -66 -43q0 -29 33 -73z" />
    <glyph glyph-name="uni1F0A" unicode="&#x1f0a;" horiz-adv-x="660" 
d="M659 0h-162l-52 142h-233l-52 -142h-162l270 696h121zM397 272l-26 80l-41 138h-4l-40 -136l-26 -82h137zM-157 482l-69 32q34 48 34 73q0 31 -67 43l38 109q64 -12 101 -42.5t37 -78.5q0 -27 -18.5 -65t-55.5 -71zM140 511l-77 -30l-155 237l133 28z" />
    <glyph glyph-name="uni1F0B" unicode="&#x1f0b;" horiz-adv-x="660" 
d="M659 0h-162l-52 142h-233l-52 -142h-162l270 696h121zM397 272l-26 80l-41 138h-4l-40 -136l-26 -82h137zM-128 514l-68 -31q-37 34 -56 71.5t-19 63.5q0 48 37 78.5t101 42.5l39 -109q-67 -12 -67 -43q0 -27 33 -73zM141 512l-77 -30l-155 237l133 28z" />
    <glyph glyph-name="uni1F0C" unicode="&#x1f0c;" horiz-adv-x="660" 
d="M659 0h-162l-52 142h-233l-52 -142h-162l270 696h121zM397 272l-26 80l-41 138h-4l-40 -136l-26 -82h137zM-133 488l-69 32q33 42 33 73q0 30 -67 43l39 109q138 -25 138 -121q0 -27 -18.5 -65t-55.5 -71zM14 480l-77 30l99 235l133 -28z" />
    <glyph glyph-name="uni1F0D" unicode="&#x1f0d;" horiz-adv-x="660" 
d="M659 0h-162l-52 142h-233l-52 -142h-162l270 696h121zM397 272l-26 80l-41 138h-4l-40 -136l-26 -82h137zM-101 521l-69 -32q-38 33 -56.5 71t-18.5 65q0 96 138 121l38 -109q-66 -13 -66 -43q0 -31 34 -73zM12 482l-77 30l99 235l133 -28z" />
    <glyph glyph-name="uni1F0E" unicode="&#x1f0e;" horiz-adv-x="660" 
d="M659 0h-162l-52 142h-233l-52 -142h-162l270 696h121zM397 272l-26 80l-41 138h-4l-40 -136l-26 -82h137zM-23 419l-70 28q41 46 41 65q0 24 -63 25l39 94q128 -18 128 -92q0 -56 -75 -120zM-95 784q28 -1 73.5 -25t59.5 -24q30 0 67 48l68 -40q-50 -109 -121 -109
q-29 0 -76.5 23.5t-63.5 23.5q-37 0 -74 -50l-65 41q27 56 58 84t74 28z" />
    <glyph glyph-name="uni1F0F" unicode="&#x1f0f;" horiz-adv-x="660" 
d="M659 0h-162l-52 142h-233l-52 -142h-162l270 696h121zM397 272l-26 80l-41 138h-4l-40 -136l-26 -82h137zM29 445l-70 -28q-75 64 -75 120q0 74 128 92l39 -94q-63 -1 -63 -25q0 -19 41 -65zM-93 795q28 -1 73.5 -25t59.5 -24q30 0 67 48l68 -40q-50 -109 -121 -109
q-29 0 -76.5 23.5t-63.5 23.5q-37 0 -74 -50l-65 41q27 56 58 84t74 28z" />
    <glyph glyph-name="uni1F10" unicode="&#x1f10;" horiz-adv-x="476" 
d="M458 73q-85 -78 -211 -78q-93 0 -149.5 40.5t-56.5 113.5q0 27 18.5 58.5t49.5 45.5v3q-32 9 -47 37t-15 54q0 67 55 110t151 43q123 0 199 -75l-87 -98q-43 43 -107 43q-21 0 -42.5 -9.5t-21.5 -29.5q0 -34 57 -34h61v-101h-67q-57 0 -57 -35q0 -14 16.5 -25t53.5 -11
q69 0 108 45zM285 525l-70 31q33 44 33 73q0 31 -66 43l38 110q139 -26 139 -121q0 -27 -18.5 -64.5t-55.5 -71.5z" />
    <glyph glyph-name="uni1F11" unicode="&#x1f11;" horiz-adv-x="476" 
d="M458 73q-85 -78 -211 -78q-93 0 -149.5 40.5t-56.5 113.5q0 27 18.5 58.5t49.5 45.5v3q-32 9 -47 37t-15 54q0 67 55 110t151 43q123 0 199 -75l-87 -98q-43 43 -107 43q-21 0 -42.5 -9.5t-21.5 -29.5q0 -34 57 -34h61v-101h-67q-57 0 -57 -35q0 -14 16.5 -25t53.5 -11
q69 0 108 45zM320 556l-70 -31q-37 34 -55.5 71.5t-18.5 64.5q0 95 139 121l38 -110q-66 -12 -66 -43q0 -29 33 -73z" />
    <glyph glyph-name="uni1F12" unicode="&#x1f12;" horiz-adv-x="476" 
d="M458 73q-85 -78 -211 -78q-93 0 -149.5 40.5t-56.5 113.5q0 27 18.5 58.5t49.5 45.5v3q-32 9 -47 37t-15 54q0 67 55 110t151 43q123 0 199 -75l-87 -98q-43 43 -107 43q-21 0 -42.5 -9.5t-21.5 -29.5q0 -34 57 -34h61v-101h-67q-57 0 -57 -35q0 -14 16.5 -25t53.5 -11
q69 0 108 45zM144 538l-69 32q34 48 34 73q0 31 -67 43l38 109q64 -12 101 -42.5t37 -78.5q0 -27 -18.5 -65t-55.5 -71zM441 567l-77 -30l-155 237l133 28z" />
    <glyph glyph-name="uni1F13" unicode="&#x1f13;" horiz-adv-x="476" 
d="M458 73q-85 -78 -211 -78q-93 0 -149.5 40.5t-56.5 113.5q0 27 18.5 58.5t49.5 45.5v3q-32 9 -47 37t-15 54q0 67 55 110t151 43q123 0 199 -75l-87 -98q-43 43 -107 43q-21 0 -42.5 -9.5t-21.5 -29.5q0 -34 57 -34h61v-101h-67q-57 0 -57 -35q0 -14 16.5 -25t53.5 -11
q69 0 108 45zM161 569l-68 -31q-37 34 -56 71.5t-19 63.5q0 48 37 78.5t101 42.5l39 -109q-67 -12 -67 -43q0 -27 33 -73zM430 567l-77 -30l-155 237l133 28z" />
    <glyph glyph-name="uni1F14" unicode="&#x1f14;" horiz-adv-x="476" 
d="M458 73q-85 -78 -211 -78q-93 0 -149.5 40.5t-56.5 113.5q0 27 18.5 58.5t49.5 45.5v3q-32 9 -47 37t-15 54q0 67 55 110t151 43q123 0 199 -75l-87 -98q-43 43 -107 43q-21 0 -42.5 -9.5t-21.5 -29.5q0 -34 57 -34h61v-101h-67q-57 0 -57 -35q0 -14 16.5 -25t53.5 -11
q69 0 108 45zM200 545l-69 32q33 42 33 73q0 30 -67 43l39 109q138 -25 138 -121q0 -27 -18.5 -65t-55.5 -71zM347 537l-77 30l99 235l133 -28z" />
    <glyph glyph-name="uni1F15" unicode="&#x1f15;" horiz-adv-x="476" 
d="M458 73q-85 -78 -211 -78q-93 0 -149.5 40.5t-56.5 113.5q0 27 18.5 58.5t49.5 45.5v3q-32 9 -47 37t-15 54q0 67 55 110t151 43q123 0 199 -75l-87 -98q-43 43 -107 43q-21 0 -42.5 -9.5t-21.5 -29.5q0 -34 57 -34h61v-101h-67q-57 0 -57 -35q0 -14 16.5 -25t53.5 -11
q69 0 108 45zM223 576l-69 -32q-38 33 -56.5 71t-18.5 65q0 96 138 121l38 -109q-66 -13 -66 -43q0 -31 34 -73zM336 537l-77 30l99 235l133 -28z" />
    <glyph glyph-name="uni1F18" unicode="&#x1f18;" horiz-adv-x="585" 
d="M562 0h-492v696h492v-138h-338v-141h288v-133h-288v-146h338v-138zM-71 475l-70 31q33 44 33 73q0 31 -66 43l38 110q139 -26 139 -121q0 -27 -18.5 -64.5t-55.5 -71.5z" />
    <glyph glyph-name="uni1F19" unicode="&#x1f19;" horiz-adv-x="585" 
d="M562 0h-492v696h492v-138h-338v-141h288v-133h-288v-146h338v-138zM-31 506l-70 -31q-37 34 -55.5 71.5t-18.5 64.5q0 95 139 121l38 -110q-66 -12 -66 -43q0 -29 33 -73z" />
    <glyph glyph-name="uni1F1A" unicode="&#x1f1a;" horiz-adv-x="585" 
d="M562 0h-492v696h492v-138h-338v-141h288v-133h-288v-146h338v-138zM-287 488l-69 32q34 48 34 73q0 31 -67 43l38 109q64 -12 101 -42.5t37 -78.5q0 -27 -18.5 -65t-55.5 -71zM10 517l-77 -30l-155 237l133 28z" />
    <glyph glyph-name="uni1F1B" unicode="&#x1f1b;" horiz-adv-x="585" 
d="M562 0h-492v696h492v-138h-338v-141h288v-133h-288v-146h338v-138zM-251 519l-68 -31q-37 34 -56 71.5t-19 63.5q0 48 37 78.5t101 42.5l39 -109q-67 -12 -67 -43q0 -27 33 -73zM18 517l-77 -30l-155 237l133 28z" />
    <glyph glyph-name="uni1F1C" unicode="&#x1f1c;" horiz-adv-x="585" 
d="M562 0h-492v696h492v-138h-338v-141h288v-133h-288v-146h338v-138zM-290 495l-69 32q33 42 33 73q0 30 -67 43l39 109q138 -25 138 -121q0 -27 -18.5 -65t-55.5 -71zM-143 487l-77 30l99 235l133 -28z" />
    <glyph glyph-name="uni1F1D" unicode="&#x1f1d;" horiz-adv-x="585" 
d="M562 0h-492v696h492v-138h-338v-141h288v-133h-288v-146h338v-138zM-255 526l-69 -32q-38 33 -56.5 71t-18.5 65q0 96 138 121l38 -109q-66 -13 -66 -43q0 -31 34 -73zM-142 487l-77 30l99 235l133 -28z" />
    <glyph glyph-name="uni1F20" unicode="&#x1f20;" horiz-adv-x="551" 
d="M490 0h-142v292q0 36 -19.5 56t-50.5 20q-33 0 -54 -20t-21 -56v-292h-143v495h143v-41h2q22 20 56.5 33t63.5 13q80 0 122.5 -45.5t42.5 -132.5v-322zM283 525l-70 31q33 44 33 73q0 31 -66 43l38 110q139 -26 139 -121q0 -27 -18.5 -64.5t-55.5 -71.5z" />
    <glyph glyph-name="uni1F21" unicode="&#x1f21;" horiz-adv-x="551" 
d="M490 0h-142v292q0 36 -19.5 56t-50.5 20q-33 0 -54 -20t-21 -56v-292h-143v495h143v-41h2q22 20 56.5 33t63.5 13q80 0 122.5 -45.5t42.5 -132.5v-322zM325 556l-70 -31q-37 34 -55.5 71.5t-18.5 64.5q0 95 139 121l38 -110q-66 -12 -66 -43q0 -29 33 -73z" />
    <glyph glyph-name="uni1F22" unicode="&#x1f22;" horiz-adv-x="551" 
d="M490 0h-142v292q0 36 -19.5 56t-50.5 20q-33 0 -54 -20t-21 -56v-292h-143v495h143v-41h2q22 20 56.5 33t63.5 13q80 0 122.5 -45.5t42.5 -132.5v-322zM157 538l-69 32q34 48 34 73q0 31 -67 43l38 109q64 -12 101 -42.5t37 -78.5q0 -27 -18.5 -65t-55.5 -71zM454 567
l-77 -30l-155 237l133 28z" />
    <glyph glyph-name="uni1F23" unicode="&#x1f23;" horiz-adv-x="551" 
d="M490 0h-142v292q0 36 -19.5 56t-50.5 20q-33 0 -54 -20t-21 -56v-292h-143v495h143v-41h2q22 20 56.5 33t63.5 13q80 0 122.5 -45.5t42.5 -132.5v-322zM189 569l-68 -31q-37 34 -56 71.5t-19 63.5q0 48 37 78.5t101 42.5l39 -109q-67 -12 -67 -43q0 -27 33 -73zM458 567
l-77 -30l-155 237l133 28z" />
    <glyph glyph-name="uni1F24" unicode="&#x1f24;" horiz-adv-x="551" 
d="M490 0h-142v292q0 36 -19.5 56t-50.5 20q-33 0 -54 -20t-21 -56v-292h-143v495h143v-41h2q22 20 56.5 33t63.5 13q80 0 122.5 -45.5t42.5 -132.5v-322zM193 545l-69 32q33 42 33 73q0 30 -67 43l39 109q138 -25 138 -121q0 -27 -18.5 -65t-55.5 -71zM340 537l-77 30
l99 235l133 -28z" />
    <glyph glyph-name="uni1F25" unicode="&#x1f25;" horiz-adv-x="551" 
d="M490 0h-142v292q0 36 -19.5 56t-50.5 20q-33 0 -54 -20t-21 -56v-292h-143v495h143v-41h2q22 20 56.5 33t63.5 13q80 0 122.5 -45.5t42.5 -132.5v-322zM245 576l-69 -32q-38 33 -56.5 71t-18.5 65q0 96 138 121l38 -109q-66 -13 -66 -43q0 -31 34 -73zM358 537l-77 30
l99 235l133 -28z" />
    <glyph glyph-name="uni1F26" unicode="&#x1f26;" horiz-adv-x="551" 
d="M490 0h-142v292q0 36 -19.5 56t-50.5 20q-33 0 -54 -20t-21 -56v-292h-143v495h143v-41h2q22 20 56.5 33t63.5 13q80 0 122.5 -45.5t42.5 -132.5v-322zM267 529l-70 28q41 46 41 65q0 24 -63 25l39 94q128 -18 128 -92q0 -56 -75 -120zM195 894q28 -1 73.5 -25t59.5 -24
q30 0 67 48l68 -40q-50 -109 -121 -109q-29 0 -76.5 23.5t-63.5 23.5q-37 0 -74 -50l-65 41q27 56 58 84t74 28z" />
    <glyph glyph-name="uni1F27" unicode="&#x1f27;" horiz-adv-x="551" 
d="M490 0h-142v292q0 36 -19.5 56t-50.5 20q-33 0 -54 -20t-21 -56v-292h-143v495h143v-41h2q22 20 56.5 33t63.5 13q80 0 122.5 -45.5t42.5 -132.5v-322zM315 553l-70 -28q-75 64 -75 120q0 74 128 92l39 -94q-63 -1 -63 -25q0 -19 41 -65zM193 903q28 -1 73.5 -25
t59.5 -24q30 0 67 48l68 -40q-50 -109 -121 -109q-29 0 -76.5 23.5t-63.5 23.5q-37 0 -74 -50l-65 41q27 56 58 84t74 28z" />
    <glyph glyph-name="uni1F28" unicode="&#x1f28;" horiz-adv-x="674" 
d="M604 0h-152v284h-228v-284h-154v696h154v-279h228v279h152v-696zM-74 475l-70 31q33 44 33 73q0 31 -66 43l38 110q139 -26 139 -121q0 -27 -18.5 -64.5t-55.5 -71.5z" />
    <glyph glyph-name="uni1F29" unicode="&#x1f29;" horiz-adv-x="674" 
d="M604 0h-152v284h-228v-284h-154v696h154v-279h228v279h152v-696zM-34 506l-70 -31q-37 34 -55.5 71.5t-18.5 64.5q0 95 139 121l38 -110q-66 -12 -66 -43q0 -29 33 -73z" />
    <glyph glyph-name="uni1F2A" unicode="&#x1f2a;" horiz-adv-x="674" 
d="M604 0h-152v284h-228v-284h-154v696h154v-279h228v279h152v-696zM-289 488l-69 32q34 48 34 73q0 31 -67 43l38 109q64 -12 101 -42.5t37 -78.5q0 -27 -18.5 -65t-55.5 -71zM8 517l-77 -30l-155 237l133 28z" />
    <glyph glyph-name="uni1F2B" unicode="&#x1f2b;" horiz-adv-x="674" 
d="M604 0h-152v284h-228v-284h-154v696h154v-279h228v279h152v-696zM-268 519l-68 -31q-37 34 -56 71.5t-19 63.5q0 48 37 78.5t101 42.5l39 -109q-67 -12 -67 -43q0 -27 33 -73zM1 517l-77 -30l-155 237l133 28z" />
    <glyph glyph-name="uni1F2C" unicode="&#x1f2c;" horiz-adv-x="674" 
d="M604 0h-152v284h-228v-284h-154v696h154v-279h228v279h152v-696zM-279 495l-69 32q33 42 33 73q0 30 -67 43l39 109q138 -25 138 -121q0 -27 -18.5 -65t-55.5 -71zM-132 487l-77 30l99 235l133 -28z" />
    <glyph glyph-name="uni1F2D" unicode="&#x1f2d;" horiz-adv-x="674" 
d="M604 0h-152v284h-228v-284h-154v696h154v-279h228v279h152v-696zM-241 526l-69 -32q-38 33 -56.5 71t-18.5 65q0 96 138 121l38 -109q-66 -13 -66 -43q0 -31 34 -73zM-128 487l-77 30l99 235l133 -28z" />
    <glyph glyph-name="uni1F2E" unicode="&#x1f2e;" horiz-adv-x="674" 
d="M604 0h-152v284h-228v-284h-154v696h154v-279h228v279h152v-696zM-175 420l-70 28q41 46 41 65q0 24 -63 25l39 94q128 -18 128 -92q0 -56 -75 -120zM-247 785q28 -1 73.5 -25t59.5 -24q30 0 67 48l68 -40q-50 -109 -121 -109q-29 0 -76.5 23.5t-63.5 23.5q-37 0 -74 -50
l-65 41q27 56 58 84t74 28z" />
    <glyph glyph-name="uni1F2F" unicode="&#x1f2f;" horiz-adv-x="674" 
d="M604 0h-152v284h-228v-284h-154v696h154v-279h228v279h152v-696zM-123 445l-70 -28q-75 64 -75 120q0 74 128 92l39 -94q-63 -1 -63 -25q0 -19 41 -65zM-245 795q28 -1 73.5 -25t59.5 -24q30 0 67 48l68 -40q-50 -109 -121 -109q-29 0 -76.5 23.5t-63.5 23.5
q-37 0 -74 -50l-65 41q27 56 58 84t74 28z" />
    <glyph glyph-name="uni1F30" unicode="&#x1f30;" horiz-adv-x="300" 
d="M262 108l-1 -116q-14 -1 -49 -1q-41 0 -70.5 10.5t-44.5 25t-23.5 38t-10 40t-1.5 40.5v350h142v-340q0 -23 11 -35t47 -12zM147 525l-70 31q33 44 33 73q0 31 -66 43l38 110q139 -26 139 -121q0 -27 -18.5 -64.5t-55.5 -71.5z" />
    <glyph glyph-name="uni1F31" unicode="&#x1f31;" horiz-adv-x="300" 
d="M262 108l-1 -116q-14 -1 -49 -1q-41 0 -70.5 10.5t-44.5 25t-23.5 38t-10 40t-1.5 40.5v350h142v-340q0 -23 11 -35t47 -12zM186 556l-70 -31q-37 34 -55.5 71.5t-18.5 64.5q0 95 139 121l38 -110q-66 -12 -66 -43q0 -29 33 -73z" />
    <glyph glyph-name="uni1F32" unicode="&#x1f32;" horiz-adv-x="300" 
d="M262 108l-1 -116q-14 -1 -49 -1q-41 0 -70.5 10.5t-44.5 25t-23.5 38t-10 40t-1.5 40.5v350h142v-340q0 -23 11 -35t47 -12zM42 538l-69 32q34 48 34 73q0 31 -67 43l38 109q64 -12 101 -42.5t37 -78.5q0 -27 -18.5 -65t-55.5 -71zM339 567l-77 -30l-155 237l133 28z" />
    <glyph glyph-name="uni1F33" unicode="&#x1f33;" horiz-adv-x="300" 
d="M262 108l-1 -116q-14 -1 -49 -1q-41 0 -70.5 10.5t-44.5 25t-23.5 38t-10 40t-1.5 40.5v350h142v-340q0 -23 11 -35t47 -12zM77 571l-68 -31q-37 34 -56 71.5t-19 63.5q0 48 37 78.5t101 42.5l39 -109q-67 -12 -67 -43q0 -27 33 -73zM346 569l-77 -30l-155 237l133 28z
" />
    <glyph glyph-name="uni1F34" unicode="&#x1f34;" horiz-adv-x="300" 
d="M262 108l-1 -116q-14 -1 -49 -1q-41 0 -70.5 10.5t-44.5 25t-23.5 38t-10 40t-1.5 40.5v350h142v-340q0 -23 11 -35t47 -12zM87 545l-69 32q33 42 33 73q0 30 -67 43l39 109q138 -25 138 -121q0 -27 -18.5 -65t-55.5 -71zM234 537l-77 30l99 235l133 -28z" />
    <glyph glyph-name="uni1F35" unicode="&#x1f35;" horiz-adv-x="300" 
d="M262 108l-1 -116q-14 -1 -49 -1q-41 0 -70.5 10.5t-44.5 25t-23.5 38t-10 40t-1.5 40.5v350h142v-340q0 -23 11 -35t47 -12zM119 576l-69 -32q-38 33 -56.5 71t-18.5 65q0 96 138 121l38 -109q-66 -13 -66 -43q0 -31 34 -73zM232 537l-77 30l99 235l133 -28z" />
    <glyph glyph-name="uni1F36" unicode="&#x1f36;" horiz-adv-x="300" 
d="M262 108l-1 -116q-14 -1 -49 -1q-41 0 -70.5 10.5t-44.5 25t-23.5 38t-10 40t-1.5 40.5v350h142v-340q0 -23 11 -35t47 -12zM153 529l-70 28q41 46 41 65q0 24 -63 25l39 94q128 -18 128 -92q0 -56 -75 -120zM81 894q28 -1 73.5 -25t59.5 -24q30 0 67 48l68 -40
q-50 -109 -121 -109q-29 0 -76.5 23.5t-63.5 23.5q-37 0 -74 -50l-65 41q27 56 58 84t74 28z" />
    <glyph glyph-name="uni1F37" unicode="&#x1f37;" horiz-adv-x="300" 
d="M262 108l-1 -116q-14 -1 -49 -1q-41 0 -70.5 10.5t-44.5 25t-23.5 38t-10 40t-1.5 40.5v350h142v-340q0 -23 11 -35t47 -12zM188 554l-70 -28q-75 64 -75 120q0 74 128 92l39 -94q-63 -1 -63 -25q0 -19 41 -65zM66 904q28 -1 73.5 -25t59.5 -24q30 0 67 48l68 -40
q-50 -109 -121 -109q-29 0 -76.5 23.5t-63.5 23.5q-37 0 -74 -50l-65 41q27 56 58 84t74 28z" />
    <glyph glyph-name="uni1F38" unicode="&#x1f38;" horiz-adv-x="294" 
d="M227 0h-154v696h154v-696zM-40 475l-70 31q33 44 33 73q0 31 -66 43l38 110q139 -26 139 -121q0 -27 -18.5 -64.5t-55.5 -71.5z" />
    <glyph glyph-name="uni1F39" unicode="&#x1f39;" horiz-adv-x="294" 
d="M227 0h-154v696h154v-696zM0 506l-70 -31q-37 34 -55.5 71.5t-18.5 64.5q0 95 139 121l38 -110q-66 -12 -66 -43q0 -29 33 -73z" />
    <glyph glyph-name="uni1F3A" unicode="&#x1f3a;" horiz-adv-x="294" 
d="M227 0h-154v696h154v-696zM-270 488l-69 32q34 48 34 73q0 31 -67 43l38 109q64 -12 101 -42.5t37 -78.5q0 -27 -18.5 -65t-55.5 -71zM27 517l-77 -30l-155 237l133 28z" />
    <glyph glyph-name="uni1F3B" unicode="&#x1f3b;" horiz-adv-x="294" 
d="M227 0h-154v696h154v-696zM-241 519l-68 -31q-37 34 -56 71.5t-19 63.5q0 48 37 78.5t101 42.5l39 -109q-67 -12 -67 -43q0 -27 33 -73zM28 517l-77 -30l-155 237l133 28z" />
    <glyph glyph-name="uni1F3C" unicode="&#x1f3c;" horiz-adv-x="294" 
d="M227 0h-154v696h154v-696zM-254 495l-69 32q33 42 33 73q0 30 -67 43l39 109q138 -25 138 -121q0 -27 -18.5 -65t-55.5 -71zM-107 487l-77 30l99 235l133 -28z" />
    <glyph glyph-name="uni1F3D" unicode="&#x1f3d;" horiz-adv-x="294" 
d="M227 0h-154v696h154v-696zM-221 526l-69 -32q-38 33 -56.5 71t-18.5 65q0 96 138 121l38 -109q-66 -13 -66 -43q0 -31 34 -73zM-108 487l-77 30l99 235l133 -28z" />
    <glyph glyph-name="uni1F3E" unicode="&#x1f3e;" horiz-adv-x="294" 
d="M227 0h-154v696h154v-696zM-155 419l-70 28q41 46 41 65q0 24 -63 25l39 94q128 -18 128 -92q0 -56 -75 -120zM-227 784q28 -1 73.5 -25t59.5 -24q30 0 67 48l68 -40q-50 -109 -121 -109q-29 0 -76.5 23.5t-63.5 23.5q-37 0 -74 -50l-65 41q27 56 58 84t74 28z" />
    <glyph glyph-name="uni1F3F" unicode="&#x1f3f;" horiz-adv-x="294" 
d="M227 0h-154v696h154v-696zM-103 444l-70 -28q-75 64 -75 120q0 74 128 92l39 -94q-63 -1 -63 -25q0 -19 41 -65zM-225 794q28 -1 73.5 -25t59.5 -24q30 0 67 48l68 -40q-50 -109 -121 -109q-29 0 -76.5 23.5t-63.5 23.5q-37 0 -74 -50l-65 41q27 56 58 84t74 28z" />
    <glyph glyph-name="uni1F40" unicode="&#x1f40;" horiz-adv-x="516" 
d="M265 501q122 0 179 -83q41 -59 39 -173q0 -93 -38 -156q-60 -96 -193 -96q-123 0 -177 79q-44 64 -42 176q2 88 26 139q26 55 80.5 84.5t125.5 29.5zM260 373q-45 0 -66 -43q-13 -28 -15 -84q0 -54 14 -82q20 -41 63 -41q54 0 71 54q9 31 9 71q1 53 -12 82q-18 43 -64 43
zM284 525l-70 31q33 44 33 73q0 31 -66 43l38 110q139 -26 139 -121q0 -27 -18.5 -64.5t-55.5 -71.5z" />
    <glyph glyph-name="uni1F41" unicode="&#x1f41;" horiz-adv-x="516" 
d="M265 501q122 0 179 -83q41 -59 39 -173q0 -93 -38 -156q-60 -96 -193 -96q-123 0 -177 79q-44 64 -42 176q2 88 26 139q26 55 80.5 84.5t125.5 29.5zM260 373q-45 0 -66 -43q-13 -28 -15 -84q0 -54 14 -82q20 -41 63 -41q54 0 71 54q9 31 9 71q1 53 -12 82q-18 43 -64 43
zM331 556l-70 -31q-37 34 -55.5 71.5t-18.5 64.5q0 95 139 121l38 -110q-66 -12 -66 -43q0 -29 33 -73z" />
    <glyph glyph-name="uni1F42" unicode="&#x1f42;" horiz-adv-x="516" 
d="M265 501q122 0 179 -83q41 -59 39 -173q0 -93 -38 -156q-60 -96 -193 -96q-123 0 -177 79q-44 64 -42 176q2 88 26 139q26 55 80.5 84.5t125.5 29.5zM260 373q-45 0 -66 -43q-13 -28 -15 -84q0 -54 14 -82q20 -41 63 -41q54 0 71 54q9 31 9 71q1 53 -12 82q-18 43 -64 43
zM153 538l-69 32q34 48 34 73q0 31 -67 43l38 109q64 -12 101 -42.5t37 -78.5q0 -27 -18.5 -65t-55.5 -71zM450 567l-77 -30l-155 237l133 28z" />
    <glyph glyph-name="uni1F43" unicode="&#x1f43;" horiz-adv-x="516" 
d="M265 501q122 0 179 -83q41 -59 39 -173q0 -93 -38 -156q-60 -96 -193 -96q-123 0 -177 79q-44 64 -42 176q2 88 26 139q26 55 80.5 84.5t125.5 29.5zM260 373q-45 0 -66 -43q-13 -28 -15 -84q0 -54 14 -82q20 -41 63 -41q54 0 71 54q9 31 9 71q1 53 -12 82q-18 43 -64 43
zM192 569l-68 -31q-37 34 -56 71.5t-19 63.5q0 48 37 78.5t101 42.5l39 -109q-67 -12 -67 -43q0 -27 33 -73zM461 567l-77 -30l-155 237l133 28z" />
    <glyph glyph-name="uni1F44" unicode="&#x1f44;" horiz-adv-x="516" 
d="M265 501q122 0 179 -83q41 -59 39 -173q0 -93 -38 -156q-60 -96 -193 -96q-123 0 -177 79q-44 64 -42 176q2 88 26 139q26 55 80.5 84.5t125.5 29.5zM260 373q-45 0 -66 -43q-13 -28 -15 -84q0 -54 14 -82q20 -41 63 -41q54 0 71 54q9 31 9 71q1 53 -12 82q-18 43 -64 43
zM196 545l-69 32q33 42 33 73q0 30 -67 43l39 109q138 -25 138 -121q0 -27 -18.5 -65t-55.5 -71zM343 537l-77 30l99 235l133 -28z" />
    <glyph glyph-name="uni1F45" unicode="&#x1f45;" horiz-adv-x="516" 
d="M265 501q122 0 179 -83q41 -59 39 -173q0 -93 -38 -156q-60 -96 -193 -96q-123 0 -177 79q-44 64 -42 176q2 88 26 139q26 55 80.5 84.5t125.5 29.5zM260 373q-45 0 -66 -43q-13 -28 -15 -84q0 -54 14 -82q20 -41 63 -41q54 0 71 54q9 31 9 71q1 53 -12 82q-18 43 -64 43
zM245 576l-69 -32q-38 33 -56.5 71t-18.5 65q0 96 138 121l38 -109q-66 -13 -66 -43q0 -31 34 -73zM358 537l-77 30l99 235l133 -28z" />
    <glyph glyph-name="uni1F48" unicode="&#x1f48;" horiz-adv-x="624" 
d="M310 701q124 0 198.5 -76t74.5 -195v-164q0 -124 -74.5 -198t-198.5 -74q-129 0 -199 78t-70 194v164q0 115 70 193t199 78zM309 557q-54 0 -83.5 -33t-29.5 -80v-189q0 -49 29 -83t84 -34q54 0 85.5 33t31.5 84v189q0 48 -31.5 80.5t-85.5 32.5zM-50 475l-70 31
q33 44 33 73q0 31 -66 43l38 110q139 -26 139 -121q0 -27 -18.5 -64.5t-55.5 -71.5z" />
    <glyph glyph-name="uni1F49" unicode="&#x1f49;" horiz-adv-x="624" 
d="M310 701q124 0 198.5 -76t74.5 -195v-164q0 -124 -74.5 -198t-198.5 -74q-129 0 -199 78t-70 194v164q0 115 70 193t199 78zM309 557q-54 0 -83.5 -33t-29.5 -80v-189q0 -49 29 -83t84 -34q54 0 85.5 33t31.5 84v189q0 48 -31.5 80.5t-85.5 32.5zM-9 506l-70 -31
q-37 34 -55.5 71.5t-18.5 64.5q0 95 139 121l38 -110q-66 -12 -66 -43q0 -29 33 -73z" />
    <glyph glyph-name="uni1F4A" unicode="&#x1f4a;" horiz-adv-x="624" 
d="M310 701q124 0 198.5 -76t74.5 -195v-164q0 -124 -74.5 -198t-198.5 -74q-129 0 -199 78t-70 194v164q0 115 70 193t199 78zM309 557q-54 0 -83.5 -33t-29.5 -80v-189q0 -49 29 -83t84 -34q54 0 85.5 33t31.5 84v189q0 48 -31.5 80.5t-85.5 32.5zM-275 488l-69 32
q34 48 34 73q0 31 -67 43l38 109q64 -12 101 -42.5t37 -78.5q0 -27 -18.5 -65t-55.5 -71zM22 517l-77 -30l-155 237l133 28z" />
    <glyph glyph-name="uni1F4B" unicode="&#x1f4b;" horiz-adv-x="624" 
d="M310 701q124 0 198.5 -76t74.5 -195v-164q0 -124 -74.5 -198t-198.5 -74q-129 0 -199 78t-70 194v164q0 115 70 193t199 78zM309 557q-54 0 -83.5 -33t-29.5 -80v-189q0 -49 29 -83t84 -34q54 0 85.5 33t31.5 84v189q0 48 -31.5 80.5t-85.5 32.5zM-249 519l-68 -31
q-37 34 -56 71.5t-19 63.5q0 48 37 78.5t101 42.5l39 -109q-67 -12 -67 -43q0 -27 33 -73zM20 517l-77 -30l-155 237l133 28z" />
    <glyph glyph-name="uni1F4C" unicode="&#x1f4c;" horiz-adv-x="624" 
d="M310 701q124 0 198.5 -76t74.5 -195v-164q0 -124 -74.5 -198t-198.5 -74q-129 0 -199 78t-70 194v164q0 115 70 193t199 78zM309 557q-54 0 -83.5 -33t-29.5 -80v-189q0 -49 29 -83t84 -34q54 0 85.5 33t31.5 84v189q0 48 -31.5 80.5t-85.5 32.5zM-228 495l-69 32
q33 42 33 73q0 30 -67 43l39 109q138 -25 138 -121q0 -27 -18.5 -65t-55.5 -71zM-81 487l-77 30l99 235l133 -28z" />
    <glyph glyph-name="uni1F4D" unicode="&#x1f4d;" horiz-adv-x="624" 
d="M310 701q124 0 198.5 -76t74.5 -195v-164q0 -124 -74.5 -198t-198.5 -74q-129 0 -199 78t-70 194v164q0 115 70 193t199 78zM309 557q-54 0 -83.5 -33t-29.5 -80v-189q0 -49 29 -83t84 -34q54 0 85.5 33t31.5 84v189q0 48 -31.5 80.5t-85.5 32.5zM-196 526l-69 -32
q-38 33 -56.5 71t-18.5 65q0 96 138 121l38 -109q-66 -13 -66 -43q0 -31 34 -73zM-83 487l-77 30l99 235l133 -28z" />
    <glyph glyph-name="uni1F50" unicode="&#x1f50;" horiz-adv-x="551" 
d="M491 183q0 -85 -61 -136.5t-155 -51.5q-91 0 -153 52.5t-62 135.5v312h143v-291q0 -36 20 -55.5t53 -19.5q32 0 52.5 19.5t20.5 55.5v291h142v-312zM295 525l-70 31q33 44 33 73q0 31 -66 43l38 110q139 -26 139 -121q0 -27 -18.5 -64.5t-55.5 -71.5z" />
    <glyph glyph-name="uni1F51" unicode="&#x1f51;" horiz-adv-x="551" 
d="M491 183q0 -85 -61 -136.5t-155 -51.5q-91 0 -153 52.5t-62 135.5v312h143v-291q0 -36 20 -55.5t53 -19.5q32 0 52.5 19.5t20.5 55.5v291h142v-312zM341 556l-70 -31q-37 34 -55.5 71.5t-18.5 64.5q0 95 139 121l38 -110q-66 -12 -66 -43q0 -29 33 -73z" />
    <glyph glyph-name="uni1F52" unicode="&#x1f52;" horiz-adv-x="551" 
d="M491 183q0 -85 -61 -136.5t-155 -51.5q-91 0 -153 52.5t-62 135.5v312h143v-291q0 -36 20 -55.5t53 -19.5q32 0 52.5 19.5t20.5 55.5v291h142v-312zM163 538l-69 32q34 48 34 73q0 31 -67 43l38 109q64 -12 101 -42.5t37 -78.5q0 -27 -18.5 -65t-55.5 -71zM460 567
l-77 -30l-155 237l133 28z" />
    <glyph glyph-name="uni1F53" unicode="&#x1f53;" horiz-adv-x="551" 
d="M491 183q0 -85 -61 -136.5t-155 -51.5q-91 0 -153 52.5t-62 135.5v312h143v-291q0 -36 20 -55.5t53 -19.5q32 0 52.5 19.5t20.5 55.5v291h142v-312zM196 569l-68 -31q-37 34 -56 71.5t-19 63.5q0 48 37 78.5t101 42.5l39 -109q-67 -12 -67 -43q0 -27 33 -73zM465 567
l-77 -30l-155 237l133 28z" />
    <glyph glyph-name="uni1F54" unicode="&#x1f54;" horiz-adv-x="551" 
d="M491 183q0 -85 -61 -136.5t-155 -51.5q-91 0 -153 52.5t-62 135.5v312h143v-291q0 -36 20 -55.5t53 -19.5q32 0 52.5 19.5t20.5 55.5v291h142v-312zM227 545l-69 32q33 42 33 73q0 30 -67 43l39 109q138 -25 138 -121q0 -27 -18.5 -65t-55.5 -71zM374 537l-77 30l99 235
l133 -28z" />
    <glyph glyph-name="uni1F55" unicode="&#x1f55;" horiz-adv-x="551" 
d="M491 183q0 -85 -61 -136.5t-155 -51.5q-91 0 -153 52.5t-62 135.5v312h143v-291q0 -36 20 -55.5t53 -19.5q32 0 52.5 19.5t20.5 55.5v291h142v-312zM259 576l-69 -32q-38 33 -56.5 71t-18.5 65q0 96 138 121l38 -109q-66 -13 -66 -43q0 -31 34 -73zM372 537l-77 30
l99 235l133 -28z" />
    <glyph glyph-name="uni1F56" unicode="&#x1f56;" horiz-adv-x="551" 
d="M491 183q0 -85 -61 -136.5t-155 -51.5q-91 0 -153 52.5t-62 135.5v312h143v-291q0 -36 20 -55.5t53 -19.5q32 0 52.5 19.5t20.5 55.5v291h142v-312zM284 529l-70 28q41 46 41 65q0 24 -63 25l39 94q128 -18 128 -92q0 -56 -75 -120zM212 894q28 -1 73.5 -25t59.5 -24
q30 0 67 48l68 -40q-50 -109 -121 -109q-29 0 -76.5 23.5t-63.5 23.5q-37 0 -74 -50l-65 41q27 56 58 84t74 28z" />
    <glyph glyph-name="uni1F57" unicode="&#x1f57;" horiz-adv-x="551" 
d="M491 183q0 -85 -61 -136.5t-155 -51.5q-91 0 -153 52.5t-62 135.5v312h143v-291q0 -36 20 -55.5t53 -19.5q32 0 52.5 19.5t20.5 55.5v291h142v-312zM336 554l-70 -28q-75 64 -75 120q0 74 128 92l39 -94q-63 -1 -63 -25q0 -19 41 -65zM214 904q28 -1 73.5 -25t59.5 -24
q30 0 67 48l68 -40q-50 -109 -121 -109q-29 0 -76.5 23.5t-63.5 23.5q-37 0 -74 -50l-65 41q27 56 58 84t74 28z" />
    <glyph glyph-name="uni1F59" unicode="&#x1f59;" horiz-adv-x="605" 
d="M603 696l-225 -411v-285h-147v285l-224 411h165l71 -150l60 -135h4l59 134l72 151h165zM-38 506l-70 -31q-37 34 -55.5 71.5t-18.5 64.5q0 95 139 121l38 -110q-66 -12 -66 -43q0 -29 33 -73z" />
    <glyph glyph-name="uni1F5B" unicode="&#x1f5b;" horiz-adv-x="605" 
d="M603 696l-225 -411v-285h-147v285l-224 411h165l71 -150l60 -135h4l59 134l72 151h165zM-249 519l-68 -31q-37 34 -56 71.5t-19 63.5q0 48 37 78.5t101 42.5l39 -109q-67 -12 -67 -43q0 -27 33 -73zM20 517l-77 -30l-155 237l133 28z" />
    <glyph glyph-name="uni1F5D" unicode="&#x1f5d;" horiz-adv-x="605" 
d="M603 696l-225 -411v-285h-147v285l-224 411h165l71 -150l60 -135h4l59 134l72 151h165zM-289 526l-69 -32q-38 33 -56.5 71t-18.5 65q0 96 138 121l38 -109q-66 -13 -66 -43q0 -31 34 -73zM-176 487l-77 30l99 235l133 -28z" />
    <glyph glyph-name="uni1F5F" unicode="&#x1f5f;" horiz-adv-x="605" 
d="M603 696l-225 -411v-285h-147v285l-224 411h165l71 -150l60 -135h4l59 134l72 151h165zM-160 446l-70 -28q-75 64 -75 120q0 74 128 92l39 -94q-63 -1 -63 -25q0 -19 41 -65zM-282 796q28 -1 73.5 -25t59.5 -24q30 0 67 48l68 -40q-50 -109 -121 -109q-29 0 -76.5 23.5
t-63.5 23.5q-37 0 -74 -50l-65 41q27 56 58 84t74 28z" />
    <glyph glyph-name="uni1F60" unicode="&#x1f60;" horiz-adv-x="757" 
d="M498 366l18 134q205 -6 205 -251q0 -116 -48.5 -184.5t-154.5 -68.5q-90 0 -132 76h-3q-44 -76 -127 -76q-216 0 -216 253q0 235 202 251l21 -134q-46 -7 -63 -35.5t-17 -86.5q0 -22 1.5 -37t6.5 -36.5t19.5 -33t36.5 -11.5q64 0 64 75v129h138v-129q0 -75 64 -75
q22 0 36.5 11.5t20 33t7 36.5t1.5 37q0 60 -15.5 89t-64.5 33zM399 525l-70 31q33 44 33 73q0 31 -66 43l38 110q139 -26 139 -121q0 -27 -18.5 -64.5t-55.5 -71.5z" />
    <glyph glyph-name="uni1F61" unicode="&#x1f61;" horiz-adv-x="757" 
d="M498 366l18 134q205 -6 205 -251q0 -116 -48.5 -184.5t-154.5 -68.5q-90 0 -132 76h-3q-44 -76 -127 -76q-216 0 -216 253q0 235 202 251l21 -134q-46 -7 -63 -35.5t-17 -86.5q0 -22 1.5 -37t6.5 -36.5t19.5 -33t36.5 -11.5q64 0 64 75v129h138v-129q0 -75 64 -75
q22 0 36.5 11.5t20 33t7 36.5t1.5 37q0 60 -15.5 89t-64.5 33zM439 556l-70 -31q-37 34 -55.5 71.5t-18.5 64.5q0 95 139 121l38 -110q-66 -12 -66 -43q0 -29 33 -73z" />
    <glyph glyph-name="uni1F62" unicode="&#x1f62;" horiz-adv-x="757" 
d="M498 366l18 134q205 -6 205 -251q0 -116 -48.5 -184.5t-154.5 -68.5q-90 0 -132 76h-3q-44 -76 -127 -76q-216 0 -216 253q0 235 202 251l21 -134q-46 -7 -63 -35.5t-17 -86.5q0 -22 1.5 -37t6.5 -36.5t19.5 -33t36.5 -11.5q64 0 64 75v129h138v-129q0 -75 64 -75
q22 0 36.5 11.5t20 33t7 36.5t1.5 37q0 60 -15.5 89t-64.5 33zM281 538l-69 32q34 48 34 73q0 31 -67 43l38 109q64 -12 101 -42.5t37 -78.5q0 -27 -18.5 -65t-55.5 -71zM578 567l-77 -30l-155 237l133 28z" />
    <glyph glyph-name="uni1F63" unicode="&#x1f63;" horiz-adv-x="757" 
d="M498 366l18 134q205 -6 205 -251q0 -116 -48.5 -184.5t-154.5 -68.5q-90 0 -132 76h-3q-44 -76 -127 -76q-216 0 -216 253q0 235 202 251l21 -134q-46 -7 -63 -35.5t-17 -86.5q0 -22 1.5 -37t6.5 -36.5t19.5 -33t36.5 -11.5q64 0 64 75v129h138v-129q0 -75 64 -75
q22 0 36.5 11.5t20 33t7 36.5t1.5 37q0 60 -15.5 89t-64.5 33zM305 569l-68 -31q-37 34 -56 71.5t-19 63.5q0 48 37 78.5t101 42.5l39 -109q-67 -12 -67 -43q0 -27 33 -73zM574 567l-77 -30l-155 237l133 28z" />
    <glyph glyph-name="uni1F64" unicode="&#x1f64;" horiz-adv-x="757" 
d="M498 366l18 134q205 -6 205 -251q0 -116 -48.5 -184.5t-154.5 -68.5q-90 0 -132 76h-3q-44 -76 -127 -76q-216 0 -216 253q0 235 202 251l21 -134q-46 -7 -63 -35.5t-17 -86.5q0 -22 1.5 -37t6.5 -36.5t19.5 -33t36.5 -11.5q64 0 64 75v129h138v-129q0 -75 64 -75
q22 0 36.5 11.5t20 33t7 36.5t1.5 37q0 60 -15.5 89t-64.5 33zM319 545l-69 32q33 42 33 73q0 30 -67 43l39 109q138 -25 138 -121q0 -27 -18.5 -65t-55.5 -71zM466 537l-77 30l99 235l133 -28z" />
    <glyph glyph-name="uni1F65" unicode="&#x1f65;" horiz-adv-x="757" 
d="M498 366l18 134q205 -6 205 -251q0 -116 -48.5 -184.5t-154.5 -68.5q-90 0 -132 76h-3q-44 -76 -127 -76q-216 0 -216 253q0 235 202 251l21 -134q-46 -7 -63 -35.5t-17 -86.5q0 -22 1.5 -37t6.5 -36.5t19.5 -33t36.5 -11.5q64 0 64 75v129h138v-129q0 -75 64 -75
q22 0 36.5 11.5t20 33t7 36.5t1.5 37q0 60 -15.5 89t-64.5 33zM358 576l-69 -32q-38 33 -56.5 71t-18.5 65q0 96 138 121l38 -109q-66 -13 -66 -43q0 -31 34 -73zM471 537l-77 30l99 235l133 -28z" />
    <glyph glyph-name="uni1F66" unicode="&#x1f66;" horiz-adv-x="757" 
d="M498 366l18 134q205 -6 205 -251q0 -116 -48.5 -184.5t-154.5 -68.5q-90 0 -132 76h-3q-44 -76 -127 -76q-216 0 -216 253q0 235 202 251l21 -134q-46 -7 -63 -35.5t-17 -86.5q0 -22 1.5 -37t6.5 -36.5t19.5 -33t36.5 -11.5q64 0 64 75v129h138v-129q0 -75 64 -75
q22 0 36.5 11.5t20 33t7 36.5t1.5 37q0 60 -15.5 89t-64.5 33zM392 529l-70 28q41 46 41 65q0 24 -63 25l39 94q128 -18 128 -92q0 -56 -75 -120zM320 894q28 -1 73.5 -25t59.5 -24q30 0 67 48l68 -40q-50 -109 -121 -109q-29 0 -76.5 23.5t-63.5 23.5q-37 0 -74 -50l-65 41
q27 56 58 84t74 28z" />
    <glyph glyph-name="uni1F67" unicode="&#x1f67;" horiz-adv-x="757" 
d="M498 366l18 134q205 -6 205 -251q0 -116 -48.5 -184.5t-154.5 -68.5q-90 0 -132 76h-3q-44 -76 -127 -76q-216 0 -216 253q0 235 202 251l21 -134q-46 -7 -63 -35.5t-17 -86.5q0 -22 1.5 -37t6.5 -36.5t19.5 -33t36.5 -11.5q64 0 64 75v129h138v-129q0 -75 64 -75
q22 0 36.5 11.5t20 33t7 36.5t1.5 37q0 60 -15.5 89t-64.5 33zM447 554l-70 -28q-75 64 -75 120q0 74 128 92l39 -94q-63 -1 -63 -25q0 -19 41 -65zM325 904q28 -1 73.5 -25t59.5 -24q30 0 67 48l68 -40q-50 -109 -121 -109q-29 0 -76.5 23.5t-63.5 23.5q-37 0 -74 -50
l-65 41q27 56 58 84t74 28z" />
    <glyph glyph-name="uni1F68" unicode="&#x1f68;" horiz-adv-x="628" 
d="M535 140l1 -2h63v-138h-255v145q39 10 60.5 40.5t21.5 72.5v186q0 48 -31.5 80.5t-85.5 32.5t-83.5 -33t-29.5 -80v-186q0 -42 21.5 -73.5t62.5 -40.5v-144h-254v138h60l1 5q-46 45 -46 149v138q0 115 70 193t199 78q124 0 198.5 -76t74.5 -195v-138q0 -96 -48 -152z
M-59 475l-70 31q33 44 33 73q0 31 -66 43l38 110q139 -26 139 -121q0 -27 -18.5 -64.5t-55.5 -71.5z" />
    <glyph glyph-name="uni1F69" unicode="&#x1f69;" horiz-adv-x="628" 
d="M535 140l1 -2h63v-138h-255v145q39 10 60.5 40.5t21.5 72.5v186q0 48 -31.5 80.5t-85.5 32.5t-83.5 -33t-29.5 -80v-186q0 -42 21.5 -73.5t62.5 -40.5v-144h-254v138h60l1 5q-46 45 -46 149v138q0 115 70 193t199 78q124 0 198.5 -76t74.5 -195v-138q0 -96 -48 -152z
M-17 506l-70 -31q-37 34 -55.5 71.5t-18.5 64.5q0 95 139 121l38 -110q-66 -12 -66 -43q0 -29 33 -73z" />
    <glyph glyph-name="uni1F6A" unicode="&#x1f6a;" horiz-adv-x="628" 
d="M535 140l1 -2h63v-138h-255v145q39 10 60.5 40.5t21.5 72.5v186q0 48 -31.5 80.5t-85.5 32.5t-83.5 -33t-29.5 -80v-186q0 -42 21.5 -73.5t62.5 -40.5v-144h-254v138h60l1 5q-46 45 -46 149v138q0 115 70 193t199 78q124 0 198.5 -76t74.5 -195v-138q0 -96 -48 -152z
M-277 488l-69 32q34 48 34 73q0 31 -67 43l38 109q64 -12 101 -42.5t37 -78.5q0 -27 -18.5 -65t-55.5 -71zM20 517l-77 -30l-155 237l133 28z" />
    <glyph glyph-name="uni1F6B" unicode="&#x1f6b;" horiz-adv-x="628" 
d="M535 140l1 -2h63v-138h-255v145q39 10 60.5 40.5t21.5 72.5v186q0 48 -31.5 80.5t-85.5 32.5t-83.5 -33t-29.5 -80v-186q0 -42 21.5 -73.5t62.5 -40.5v-144h-254v138h60l1 5q-46 45 -46 149v138q0 115 70 193t199 78q124 0 198.5 -76t74.5 -195v-138q0 -96 -48 -152z
M-250 519l-68 -31q-37 34 -56 71.5t-19 63.5q0 48 37 78.5t101 42.5l39 -109q-67 -12 -67 -43q0 -27 33 -73zM19 517l-77 -30l-155 237l133 28z" />
    <glyph glyph-name="uni1F6C" unicode="&#x1f6c;" horiz-adv-x="628" 
d="M535 140l1 -2h63v-138h-255v145q39 10 60.5 40.5t21.5 72.5v186q0 48 -31.5 80.5t-85.5 32.5t-83.5 -33t-29.5 -80v-186q0 -42 21.5 -73.5t62.5 -40.5v-144h-254v138h60l1 5q-46 45 -46 149v138q0 115 70 193t199 78q124 0 198.5 -76t74.5 -195v-138q0 -96 -48 -152z
M-212 495l-69 32q33 42 33 73q0 30 -67 43l39 109q138 -25 138 -121q0 -27 -18.5 -65t-55.5 -71zM-65 487l-77 30l99 235l133 -28z" />
    <glyph glyph-name="uni1F6D" unicode="&#x1f6d;" horiz-adv-x="628" 
d="M535 140l1 -2h63v-138h-255v145q39 10 60.5 40.5t21.5 72.5v186q0 48 -31.5 80.5t-85.5 32.5t-83.5 -33t-29.5 -80v-186q0 -42 21.5 -73.5t62.5 -40.5v-144h-254v138h60l1 5q-46 45 -46 149v138q0 115 70 193t199 78q124 0 198.5 -76t74.5 -195v-138q0 -96 -48 -152z
M-173 526l-69 -32q-38 33 -56.5 71t-18.5 65q0 96 138 121l38 -109q-66 -13 -66 -43q0 -31 34 -73zM-60 487l-77 30l99 235l133 -28z" />
    <glyph glyph-name="uni1F6E" unicode="&#x1f6e;" horiz-adv-x="628" 
d="M535 140l1 -2h63v-138h-255v145q39 10 60.5 40.5t21.5 72.5v186q0 48 -31.5 80.5t-85.5 32.5t-83.5 -33t-29.5 -80v-186q0 -42 21.5 -73.5t62.5 -40.5v-144h-254v138h60l1 5q-46 45 -46 149v138q0 115 70 193t199 78q124 0 198.5 -76t74.5 -195v-138q0 -96 -48 -152z
M-109 418l-70 28q41 46 41 65q0 24 -63 25l39 94q128 -18 128 -92q0 -56 -75 -120zM-181 783q28 -1 73.5 -25t59.5 -24q30 0 67 48l68 -40q-50 -109 -121 -109q-29 0 -76.5 23.5t-63.5 23.5q-37 0 -74 -50l-65 41q27 56 58 84t74 28z" />
    <glyph glyph-name="uni1F6F" unicode="&#x1f6f;" horiz-adv-x="628" 
d="M535 140l1 -2h63v-138h-255v145q39 10 60.5 40.5t21.5 72.5v186q0 48 -31.5 80.5t-85.5 32.5t-83.5 -33t-29.5 -80v-186q0 -42 21.5 -73.5t62.5 -40.5v-144h-254v138h60l1 5q-46 45 -46 149v138q0 115 70 193t199 78q124 0 198.5 -76t74.5 -195v-138q0 -96 -48 -152z
M-52 444l-70 -28q-75 64 -75 120q0 74 128 92l39 -94q-63 -1 -63 -25q0 -19 41 -65zM-174 794q28 -1 73.5 -25t59.5 -24q30 0 67 48l68 -40q-50 -109 -121 -109q-29 0 -76.5 23.5t-63.5 23.5q-37 0 -74 -50l-65 41q27 56 58 84t74 28z" />
    <glyph glyph-name="uni1F70" unicode="&#x1f70;" horiz-adv-x="533" 
d="M42 236q0 263 191 263q60 0 97 -40l3 1v35h142v-495h-142v39l-3 1q-17 -20 -45 -33t-53 -13q-190 0 -190 242zM188 246q0 -25 2 -42t8.5 -37.5t22.5 -31t40 -10.5q72 0 72 121q0 122 -72 122q-25 0 -41 -11t-22 -32t-8 -37.5t-2 -41.5zM349 567l-77 -30l-155 237l133 28z
" />
    <glyph glyph-name="uni1F71" unicode="&#x1f71;" horiz-adv-x="533" 
d="M42 236q0 263 191 263q60 0 97 -40l3 1v35h142v-495h-142v39l-3 1q-17 -20 -45 -33t-53 -13q-190 0 -190 242zM188 246q0 -25 2 -42t8.5 -37.5t22.5 -31t40 -10.5q72 0 72 121q0 122 -72 122q-25 0 -41 -11t-22 -32t-8 -37.5t-2 -41.5zM300 537l-77 30l99 235l133 -28z
" />
    <glyph glyph-name="uni1F72" unicode="&#x1f72;" horiz-adv-x="476" 
d="M458 73q-85 -78 -211 -78q-93 0 -149.5 40.5t-56.5 113.5q0 27 18.5 58.5t49.5 45.5v3q-32 9 -47 37t-15 54q0 67 55 110t151 43q123 0 199 -75l-87 -98q-43 43 -107 43q-21 0 -42.5 -9.5t-21.5 -29.5q0 -34 57 -34h61v-101h-67q-57 0 -57 -35q0 -14 16.5 -25t53.5 -11
q69 0 108 45zM309 567l-77 -30l-155 237l133 28z" />
    <glyph glyph-name="uni1F73" unicode="&#x1f73;" horiz-adv-x="476" 
d="M458 73q-85 -78 -211 -78q-93 0 -149.5 40.5t-56.5 113.5q0 27 18.5 58.5t49.5 45.5v3q-32 9 -47 37t-15 54q0 67 55 110t151 43q123 0 199 -75l-87 -98q-43 43 -107 43q-21 0 -42.5 -9.5t-21.5 -29.5q0 -34 57 -34h61v-101h-67q-57 0 -57 -35q0 -14 16.5 -25t53.5 -11
q69 0 108 45zM290 537l-77 30l99 235l133 -28z" />
    <glyph glyph-name="uni1F74" unicode="&#x1f74;" horiz-adv-x="551" 
d="M490 0h-142v292q0 36 -19.5 56t-50.5 20q-33 0 -54 -20t-21 -56v-292h-143v495h143v-41h2q22 20 56.5 33t63.5 13q80 0 122.5 -45.5t42.5 -132.5v-322zM329 567l-77 -30l-155 237l133 28z" />
    <glyph glyph-name="uni1F75" unicode="&#x1f75;" horiz-adv-x="551" 
d="M490 0h-142v292q0 36 -19.5 56t-50.5 20q-33 0 -54 -20t-21 -56v-292h-143v495h143v-41h2q22 20 56.5 33t63.5 13q80 0 122.5 -45.5t42.5 -132.5v-322zM273 537l-77 30l99 235l133 -28z" />
    <glyph glyph-name="uni1F76" unicode="&#x1f76;" horiz-adv-x="300" 
d="M262 108l-1 -116q-14 -1 -49 -1q-41 0 -70.5 10.5t-44.5 25t-23.5 38t-10 40t-1.5 40.5v350h142v-340q0 -23 11 -35t47 -12zM199 567l-77 -30l-155 237l133 28z" />
    <glyph glyph-name="uni1F77" unicode="&#x1f77;" horiz-adv-x="300" 
d="M262 108l-1 -116q-14 -1 -49 -1q-41 0 -70.5 10.5t-44.5 25t-23.5 38t-10 40t-1.5 40.5v350h142v-340q0 -23 11 -35t47 -12zM162 537l-77 30l99 235l133 -28z" />
    <glyph glyph-name="uni1F78" unicode="&#x1f78;" horiz-adv-x="516" 
d="M265 501q122 0 179 -83q41 -59 39 -173q0 -93 -38 -156q-60 -96 -193 -96q-123 0 -177 79q-44 64 -42 176q2 88 26 139q26 55 80.5 84.5t125.5 29.5zM260 373q-45 0 -66 -43q-13 -28 -15 -84q0 -54 14 -82q20 -41 63 -41q54 0 71 54q9 31 9 71q1 53 -12 82q-18 43 -64 43
zM309 567l-77 -30l-155 237l133 28z" />
    <glyph glyph-name="uni1F79" unicode="&#x1f79;" horiz-adv-x="516" 
d="M265 501q122 0 179 -83q41 -59 39 -173q0 -93 -38 -156q-60 -96 -193 -96q-123 0 -177 79q-44 64 -42 176q2 88 26 139q26 55 80.5 84.5t125.5 29.5zM260 373q-45 0 -66 -43q-13 -28 -15 -84q0 -54 14 -82q20 -41 63 -41q54 0 71 54q9 31 9 71q1 53 -12 82q-18 43 -64 43
zM284 537l-77 30l99 235l133 -28z" />
    <glyph glyph-name="uni1F7A" unicode="&#x1f7a;" horiz-adv-x="551" 
d="M491 183q0 -85 -61 -136.5t-155 -51.5q-91 0 -153 52.5t-62 135.5v312h143v-291q0 -36 20 -55.5t53 -19.5q32 0 52.5 19.5t20.5 55.5v291h142v-312zM339 567l-77 -30l-155 237l133 28z" />
    <glyph glyph-name="uni1F7B" unicode="&#x1f7b;" horiz-adv-x="551" 
d="M491 183q0 -85 -61 -136.5t-155 -51.5q-91 0 -153 52.5t-62 135.5v312h143v-291q0 -36 20 -55.5t53 -19.5q32 0 52.5 19.5t20.5 55.5v291h142v-312zM290 537l-77 30l99 235l133 -28z" />
    <glyph glyph-name="uni1F7C" unicode="&#x1f7c;" horiz-adv-x="757" 
d="M498 366l18 134q205 -6 205 -251q0 -116 -48.5 -184.5t-154.5 -68.5q-90 0 -132 76h-3q-44 -76 -127 -76q-216 0 -216 253q0 235 202 251l21 -134q-46 -7 -63 -35.5t-17 -86.5q0 -22 1.5 -37t6.5 -36.5t19.5 -33t36.5 -11.5q64 0 64 75v129h138v-129q0 -75 64 -75
q22 0 36.5 11.5t20 33t7 36.5t1.5 37q0 60 -15.5 89t-64.5 33zM428 567l-77 -30l-155 237l133 28z" />
    <glyph glyph-name="uni1F7D" unicode="&#x1f7d;" horiz-adv-x="757" 
d="M498 366l18 134q205 -6 205 -251q0 -116 -48.5 -184.5t-154.5 -68.5q-90 0 -132 76h-3q-44 -76 -127 -76q-216 0 -216 253q0 235 202 251l21 -134q-46 -7 -63 -35.5t-17 -86.5q0 -22 1.5 -37t6.5 -36.5t19.5 -33t36.5 -11.5q64 0 64 75v129h138v-129q0 -75 64 -75
q22 0 36.5 11.5t20 33t7 36.5t1.5 37q0 60 -15.5 89t-64.5 33zM394 537l-77 30l99 235l133 -28z" />
    <glyph glyph-name="uni1F80" unicode="&#x1f80;" horiz-adv-x="533" 
d="M42 236q0 263 191 263q60 0 97 -40l3 1v35h142v-495h-142v39l-3 1q-17 -20 -45 -33t-53 -13q-190 0 -190 242zM188 246q0 -25 2 -42t8.5 -37.5t22.5 -31t40 -10.5q72 0 72 121q0 122 -72 122q-25 0 -41 -11t-22 -32t-8 -37.5t-2 -41.5zM295 525l-70 31q33 44 33 73
q0 31 -66 43l38 110q139 -26 139 -121q0 -27 -18.5 -64.5t-55.5 -71.5zM213 -50h114v-74q0 -40 43 -40h25v-106h-55q-57 0 -92 28t-35 89v103z" />
    <glyph glyph-name="uni1F81" unicode="&#x1f81;" horiz-adv-x="533" 
d="M42 236q0 263 191 263q60 0 97 -40l3 1v35h142v-495h-142v39l-3 1q-17 -20 -45 -33t-53 -13q-190 0 -190 242zM188 246q0 -25 2 -42t8.5 -37.5t22.5 -31t40 -10.5q72 0 72 121q0 122 -72 122q-25 0 -41 -11t-22 -32t-8 -37.5t-2 -41.5zM344 556l-70 -31
q-37 34 -55.5 71.5t-18.5 64.5q0 95 139 121l38 -110q-66 -12 -66 -43q0 -29 33 -73zM213 -50h114v-74q0 -40 43 -40h25v-106h-55q-57 0 -92 28t-35 89v103z" />
    <glyph glyph-name="uni1F82" unicode="&#x1f82;" horiz-adv-x="533" 
d="M42 236q0 263 191 263q60 0 97 -40l3 1v35h142v-495h-142v39l-3 1q-17 -20 -45 -33t-53 -13q-190 0 -190 242zM188 246q0 -25 2 -42t8.5 -37.5t22.5 -31t40 -10.5q72 0 72 121q0 122 -72 122q-25 0 -41 -11t-22 -32t-8 -37.5t-2 -41.5zM168 538l-69 32q34 48 34 73
q0 31 -67 43l38 109q64 -12 101 -42.5t37 -78.5q0 -27 -18.5 -65t-55.5 -71zM465 567l-77 -30l-155 237l133 28zM213 -50h114v-74q0 -40 43 -40h25v-106h-55q-57 0 -92 28t-35 89v103z" />
    <glyph glyph-name="uni1F83" unicode="&#x1f83;" horiz-adv-x="533" 
d="M42 236q0 263 191 263q60 0 97 -40l3 1v35h142v-495h-142v39l-3 1q-17 -20 -45 -33t-53 -13q-190 0 -190 242zM188 246q0 -25 2 -42t8.5 -37.5t22.5 -31t40 -10.5q72 0 72 121q0 122 -72 122q-25 0 -41 -11t-22 -32t-8 -37.5t-2 -41.5zM196 569l-68 -31q-37 34 -56 71.5
t-19 63.5q0 48 37 78.5t101 42.5l39 -109q-67 -12 -67 -43q0 -27 33 -73zM465 567l-77 -30l-155 237l133 28zM213 -50h114v-74q0 -40 43 -40h25v-106h-55q-57 0 -92 28t-35 89v103z" />
    <glyph glyph-name="uni1F84" unicode="&#x1f84;" horiz-adv-x="533" 
d="M42 236q0 263 191 263q60 0 97 -40l3 1v35h142v-495h-142v39l-3 1q-17 -20 -45 -33t-53 -13q-190 0 -190 242zM188 246q0 -25 2 -42t8.5 -37.5t22.5 -31t40 -10.5q72 0 72 121q0 122 -72 122q-25 0 -41 -11t-22 -32t-8 -37.5t-2 -41.5zM222 545l-69 32q33 42 33 73
q0 30 -67 43l39 109q138 -25 138 -121q0 -27 -18.5 -65t-55.5 -71zM369 537l-77 30l99 235l133 -28zM213 -50h114v-74q0 -40 43 -40h25v-106h-55q-57 0 -92 28t-35 89v103z" />
    <glyph glyph-name="uni1F85" unicode="&#x1f85;" horiz-adv-x="533" 
d="M42 236q0 263 191 263q60 0 97 -40l3 1v35h142v-495h-142v39l-3 1q-17 -20 -45 -33t-53 -13q-190 0 -190 242zM188 246q0 -25 2 -42t8.5 -37.5t22.5 -31t40 -10.5q72 0 72 121q0 122 -72 122q-25 0 -41 -11t-22 -32t-8 -37.5t-2 -41.5zM263 576l-69 -32q-38 33 -56.5 71
t-18.5 65q0 96 138 121l38 -109q-66 -13 -66 -43q0 -31 34 -73zM376 537l-77 30l99 235l133 -28zM213 -50h114v-74q0 -40 43 -40h25v-106h-55q-57 0 -92 28t-35 89v103z" />
    <glyph glyph-name="uni1F86" unicode="&#x1f86;" horiz-adv-x="533" 
d="M42 236q0 263 191 263q60 0 97 -40l3 1v35h142v-495h-142v39l-3 1q-17 -20 -45 -33t-53 -13q-190 0 -190 242zM188 246q0 -25 2 -42t8.5 -37.5t22.5 -31t40 -10.5q72 0 72 121q0 122 -72 122q-25 0 -41 -11t-22 -32t-8 -37.5t-2 -41.5zM299 529l-70 28q41 46 41 65
q0 24 -63 25l39 94q128 -18 128 -92q0 -56 -75 -120zM227 894q28 -1 73.5 -25t59.5 -24q30 0 67 48l68 -40q-50 -109 -121 -109q-29 0 -76.5 23.5t-63.5 23.5q-37 0 -74 -50l-65 41q27 56 58 84t74 28zM213 -50h114v-74q0 -40 43 -40h25v-106h-55q-57 0 -92 28t-35 89v103z
" />
    <glyph glyph-name="uni1F87" unicode="&#x1f87;" horiz-adv-x="533" 
d="M42 236q0 263 191 263q60 0 97 -40l3 1v35h142v-495h-142v39l-3 1q-17 -20 -45 -33t-53 -13q-190 0 -190 242zM188 246q0 -25 2 -42t8.5 -37.5t22.5 -31t40 -10.5q72 0 72 121q0 122 -72 122q-25 0 -41 -11t-22 -32t-8 -37.5t-2 -41.5zM339 554l-70 -28q-75 64 -75 120
q0 74 128 92l39 -94q-63 -1 -63 -25q0 -19 41 -65zM217 904q28 -1 73.5 -25t59.5 -24q30 0 67 48l68 -40q-50 -109 -121 -109q-29 0 -76.5 23.5t-63.5 23.5q-37 0 -74 -50l-65 41q27 56 58 84t74 28zM213 -50h114v-74q0 -40 43 -40h25v-106h-55q-57 0 -92 28t-35 89v103z
" />
    <glyph glyph-name="uni1F88" unicode="&#x1f88;" horiz-adv-x="949" 
d="M914 0h-65q-65 0 -106 31.5t-41 99.5v364h143v-321q0 -29 16.5 -39.5t32.5 -10.5h20v-124zM659 0h-162l-52 142h-233l-52 -142h-162l270 696h121zM397 272l-26 80l-41 138h-4l-40 -136l-26 -82h137zM81 469l-70 31q33 44 33 73q0 31 -66 43l38 110q139 -26 139 -121
q0 -27 -18.5 -64.5t-55.5 -71.5z" />
    <glyph glyph-name="uni1F89" unicode="&#x1f89;" horiz-adv-x="949" 
d="M914 0h-65q-65 0 -106 31.5t-41 99.5v364h143v-321q0 -29 16.5 -39.5t32.5 -10.5h20v-124zM659 0h-162l-52 142h-233l-52 -142h-162l270 696h121zM397 272l-26 80l-41 138h-4l-40 -136l-26 -82h137zM119 501l-70 -31q-37 34 -55.5 71.5t-18.5 64.5q0 95 139 121l38 -110
q-66 -12 -66 -43q0 -29 33 -73z" />
    <glyph glyph-name="uni1F8A" unicode="&#x1f8a;" horiz-adv-x="949" 
d="M914 0h-65q-65 0 -106 31.5t-41 99.5v364h143v-321q0 -29 16.5 -39.5t32.5 -10.5h20v-124zM659 0h-162l-52 142h-233l-52 -142h-162l270 696h121zM397 272l-26 80l-41 138h-4l-40 -136l-26 -82h137zM-157 482l-69 32q34 48 34 73q0 31 -67 43l38 109q64 -12 101 -42.5
t37 -78.5q0 -27 -18.5 -65t-55.5 -71zM140 511l-77 -30l-155 237l133 28z" />
    <glyph glyph-name="uni1F8B" unicode="&#x1f8b;" horiz-adv-x="949" 
d="M914 0h-65q-65 0 -106 31.5t-41 99.5v364h143v-321q0 -29 16.5 -39.5t32.5 -10.5h20v-124zM659 0h-162l-52 142h-233l-52 -142h-162l270 696h121zM397 272l-26 80l-41 138h-4l-40 -136l-26 -82h137zM-128 514l-68 -31q-37 34 -56 71.5t-19 63.5q0 48 37 78.5t101 42.5
l39 -109q-67 -12 -67 -43q0 -27 33 -73zM141 512l-77 -30l-155 237l133 28z" />
    <glyph glyph-name="uni1F8C" unicode="&#x1f8c;" horiz-adv-x="949" 
d="M914 0h-65q-65 0 -106 31.5t-41 99.5v364h143v-321q0 -29 16.5 -39.5t32.5 -10.5h20v-124zM659 0h-162l-52 142h-233l-52 -142h-162l270 696h121zM397 272l-26 80l-41 138h-4l-40 -136l-26 -82h137zM-133 488l-69 32q33 42 33 73q0 30 -67 43l39 109q138 -25 138 -121
q0 -27 -18.5 -65t-55.5 -71zM14 480l-77 30l99 235l133 -28z" />
    <glyph glyph-name="uni1F8D" unicode="&#x1f8d;" horiz-adv-x="949" 
d="M914 0h-65q-65 0 -106 31.5t-41 99.5v364h143v-321q0 -29 16.5 -39.5t32.5 -10.5h20v-124zM659 0h-162l-52 142h-233l-52 -142h-162l270 696h121zM397 272l-26 80l-41 138h-4l-40 -136l-26 -82h137zM-101 521l-69 -32q-38 33 -56.5 71t-18.5 65q0 96 138 121l38 -109
q-66 -13 -66 -43q0 -31 34 -73zM12 482l-77 30l99 235l133 -28z" />
    <glyph glyph-name="uni1F8E" unicode="&#x1f8e;" horiz-adv-x="949" 
d="M914 0h-65q-65 0 -106 31.5t-41 99.5v364h143v-321q0 -29 16.5 -39.5t32.5 -10.5h20v-124zM659 0h-162l-52 142h-233l-52 -142h-162l270 696h121zM397 272l-26 80l-41 138h-4l-40 -136l-26 -82h137zM-23 419l-70 28q41 46 41 65q0 24 -63 25l39 94q128 -18 128 -92
q0 -56 -75 -120zM-95 784q28 -1 73.5 -25t59.5 -24q30 0 67 48l68 -40q-50 -109 -121 -109q-29 0 -76.5 23.5t-63.5 23.5q-37 0 -74 -50l-65 41q27 56 58 84t74 28z" />
    <glyph glyph-name="uni1F8F" unicode="&#x1f8f;" horiz-adv-x="949" 
d="M914 0h-65q-65 0 -106 31.5t-41 99.5v364h143v-321q0 -29 16.5 -39.5t32.5 -10.5h20v-124zM659 0h-162l-52 142h-233l-52 -142h-162l270 696h121zM397 272l-26 80l-41 138h-4l-40 -136l-26 -82h137zM29 445l-70 -28q-75 64 -75 120q0 74 128 92l39 -94q-63 -1 -63 -25
q0 -19 41 -65zM-93 795q28 -1 73.5 -25t59.5 -24q30 0 67 48l68 -40q-50 -109 -121 -109q-29 0 -76.5 23.5t-63.5 23.5q-37 0 -74 -50l-65 41q27 56 58 84t74 28z" />
    <glyph glyph-name="uni1F90" unicode="&#x1f90;" horiz-adv-x="551" 
d="M490 0h-142v292q0 36 -19.5 56t-50.5 20q-33 0 -54 -20t-21 -56v-292h-143v495h143v-41h2q22 20 56.5 33t63.5 13q80 0 122.5 -45.5t42.5 -132.5v-322zM283 525l-70 31q33 44 33 73q0 31 -66 43l38 110q139 -26 139 -121q0 -27 -18.5 -64.5t-55.5 -71.5zM213 -50h114v-74
q0 -40 43 -40h25v-106h-55q-57 0 -92 28t-35 89v103z" />
    <glyph glyph-name="uni1F91" unicode="&#x1f91;" horiz-adv-x="551" 
d="M490 0h-142v292q0 36 -19.5 56t-50.5 20q-33 0 -54 -20t-21 -56v-292h-143v495h143v-41h2q22 20 56.5 33t63.5 13q80 0 122.5 -45.5t42.5 -132.5v-322zM325 556l-70 -31q-37 34 -55.5 71.5t-18.5 64.5q0 95 139 121l38 -110q-66 -12 -66 -43q0 -29 33 -73zM213 -50h114
v-74q0 -40 43 -40h25v-106h-55q-57 0 -92 28t-35 89v103z" />
    <glyph glyph-name="uni1F92" unicode="&#x1f92;" horiz-adv-x="551" 
d="M490 0h-142v292q0 36 -19.5 56t-50.5 20q-33 0 -54 -20t-21 -56v-292h-143v495h143v-41h2q22 20 56.5 33t63.5 13q80 0 122.5 -45.5t42.5 -132.5v-322zM157 538l-69 32q34 48 34 73q0 31 -67 43l38 109q64 -12 101 -42.5t37 -78.5q0 -27 -18.5 -65t-55.5 -71zM454 567
l-77 -30l-155 237l133 28zM213 -50h114v-74q0 -40 43 -40h25v-106h-55q-57 0 -92 28t-35 89v103z" />
    <glyph glyph-name="uni1F93" unicode="&#x1f93;" horiz-adv-x="551" 
d="M490 0h-142v292q0 36 -19.5 56t-50.5 20q-33 0 -54 -20t-21 -56v-292h-143v495h143v-41h2q22 20 56.5 33t63.5 13q80 0 122.5 -45.5t42.5 -132.5v-322zM189 569l-68 -31q-37 34 -56 71.5t-19 63.5q0 48 37 78.5t101 42.5l39 -109q-67 -12 -67 -43q0 -27 33 -73zM458 567
l-77 -30l-155 237l133 28zM213 -50h114v-74q0 -40 43 -40h25v-106h-55q-57 0 -92 28t-35 89v103z" />
    <glyph glyph-name="uni1F94" unicode="&#x1f94;" horiz-adv-x="551" 
d="M490 0h-142v292q0 36 -19.5 56t-50.5 20q-33 0 -54 -20t-21 -56v-292h-143v495h143v-41h2q22 20 56.5 33t63.5 13q80 0 122.5 -45.5t42.5 -132.5v-322zM243 545l-69 32q33 42 33 73q0 30 -67 43l39 109q138 -25 138 -121q0 -27 -18.5 -65t-55.5 -71zM390 537l-77 30
l99 235l133 -28zM213 -50h114v-74q0 -40 43 -40h25v-106h-55q-57 0 -92 28t-35 89v103z" />
    <glyph glyph-name="uni1F95" unicode="&#x1f95;" horiz-adv-x="551" 
d="M490 0h-142v292q0 36 -19.5 56t-50.5 20q-33 0 -54 -20t-21 -56v-292h-143v495h143v-41h2q22 20 56.5 33t63.5 13q80 0 122.5 -45.5t42.5 -132.5v-322zM239 576l-69 -32q-38 33 -56.5 71t-18.5 65q0 96 138 121l38 -109q-66 -13 -66 -43q0 -31 34 -73zM352 537l-77 30
l99 235l133 -28zM213 -50h114v-74q0 -40 43 -40h25v-106h-55q-57 0 -92 28t-35 89v103z" />
    <glyph glyph-name="uni1F96" unicode="&#x1f96;" horiz-adv-x="551" 
d="M490 0h-142v292q0 36 -19.5 56t-50.5 20q-33 0 -54 -20t-21 -56v-292h-143v495h143v-41h2q22 20 56.5 33t63.5 13q80 0 122.5 -45.5t42.5 -132.5v-322zM267 529l-70 28q41 46 41 65q0 24 -63 25l39 94q128 -18 128 -92q0 -56 -75 -120zM195 894q28 -1 73.5 -25t59.5 -24
q30 0 67 48l68 -40q-50 -109 -121 -109q-29 0 -76.5 23.5t-63.5 23.5q-37 0 -74 -50l-65 41q27 56 58 84t74 28zM213 -50h114v-74q0 -40 43 -40h25v-106h-55q-57 0 -92 28t-35 89v103z" />
    <glyph glyph-name="uni1F97" unicode="&#x1f97;" horiz-adv-x="551" 
d="M490 0h-142v292q0 36 -19.5 56t-50.5 20q-33 0 -54 -20t-21 -56v-292h-143v495h143v-41h2q22 20 56.5 33t63.5 13q80 0 122.5 -45.5t42.5 -132.5v-322zM315 553l-70 -28q-75 64 -75 120q0 74 128 92l39 -94q-63 -1 -63 -25q0 -19 41 -65zM193 903q28 -1 73.5 -25
t59.5 -24q30 0 67 48l68 -40q-50 -109 -121 -109q-29 0 -76.5 23.5t-63.5 23.5q-37 0 -74 -50l-65 41q27 56 58 84t74 28zM213 -50h114v-74q0 -40 43 -40h25v-106h-55q-57 0 -92 28t-35 89v103z" />
    <glyph glyph-name="uni1F98" unicode="&#x1f98;" horiz-adv-x="949" 
d="M914 0h-65q-65 0 -106 31.5t-41 99.5v364h143v-321q0 -29 16.5 -39.5t32.5 -10.5h20v-124zM604 0h-152v284h-228v-284h-154v696h154v-279h228v279h152v-696zM-74 475l-70 31q33 44 33 73q0 31 -66 43l38 110q139 -26 139 -121q0 -27 -18.5 -64.5t-55.5 -71.5z" />
    <glyph glyph-name="uni1F99" unicode="&#x1f99;" horiz-adv-x="949" 
d="M914 0h-65q-65 0 -106 31.5t-41 99.5v364h143v-321q0 -29 16.5 -39.5t32.5 -10.5h20v-124zM604 0h-152v284h-228v-284h-154v696h154v-279h228v279h152v-696zM-34 506l-70 -31q-37 34 -55.5 71.5t-18.5 64.5q0 95 139 121l38 -110q-66 -12 -66 -43q0 -29 33 -73z" />
    <glyph glyph-name="uni1F9A" unicode="&#x1f9a;" horiz-adv-x="949" 
d="M914 0h-65q-65 0 -106 31.5t-41 99.5v364h143v-321q0 -29 16.5 -39.5t32.5 -10.5h20v-124zM604 0h-152v284h-228v-284h-154v696h154v-279h228v279h152v-696zM-289 488l-69 32q34 48 34 73q0 31 -67 43l38 109q64 -12 101 -42.5t37 -78.5q0 -27 -18.5 -65t-55.5 -71z
M8 517l-77 -30l-155 237l133 28z" />
    <glyph glyph-name="uni1F9B" unicode="&#x1f9b;" horiz-adv-x="949" 
d="M914 0h-65q-65 0 -106 31.5t-41 99.5v364h143v-321q0 -29 16.5 -39.5t32.5 -10.5h20v-124zM604 0h-152v284h-228v-284h-154v696h154v-279h228v279h152v-696zM-268 519l-68 -31q-37 34 -56 71.5t-19 63.5q0 48 37 78.5t101 42.5l39 -109q-67 -12 -67 -43q0 -27 33 -73z
M1 517l-77 -30l-155 237l133 28z" />
    <glyph glyph-name="uni1F9C" unicode="&#x1f9c;" horiz-adv-x="949" 
d="M914 0h-65q-65 0 -106 31.5t-41 99.5v364h143v-321q0 -29 16.5 -39.5t32.5 -10.5h20v-124zM604 0h-152v284h-228v-284h-154v696h154v-279h228v279h152v-696zM-279 495l-69 32q33 42 33 73q0 30 -67 43l39 109q138 -25 138 -121q0 -27 -18.5 -65t-55.5 -71zM-132 487
l-77 30l99 235l133 -28z" />
    <glyph glyph-name="uni1F9D" unicode="&#x1f9d;" horiz-adv-x="949" 
d="M914 0h-65q-65 0 -106 31.5t-41 99.5v364h143v-321q0 -29 16.5 -39.5t32.5 -10.5h20v-124zM604 0h-152v284h-228v-284h-154v696h154v-279h228v279h152v-696zM-241 526l-69 -32q-38 33 -56.5 71t-18.5 65q0 96 138 121l38 -109q-66 -13 -66 -43q0 -31 34 -73zM-128 487
l-77 30l99 235l133 -28z" />
    <glyph glyph-name="uni1F9E" unicode="&#x1f9e;" horiz-adv-x="949" 
d="M914 0h-65q-65 0 -106 31.5t-41 99.5v364h143v-321q0 -29 16.5 -39.5t32.5 -10.5h20v-124zM604 0h-152v284h-228v-284h-154v696h154v-279h228v279h152v-696zM-175 420l-70 28q41 46 41 65q0 24 -63 25l39 94q128 -18 128 -92q0 -56 -75 -120zM-247 785q28 -1 73.5 -25
t59.5 -24q30 0 67 48l68 -40q-50 -109 -121 -109q-29 0 -76.5 23.5t-63.5 23.5q-37 0 -74 -50l-65 41q27 56 58 84t74 28z" />
    <glyph glyph-name="uni1F9F" unicode="&#x1f9f;" horiz-adv-x="949" 
d="M914 0h-65q-65 0 -106 31.5t-41 99.5v364h143v-321q0 -29 16.5 -39.5t32.5 -10.5h20v-124zM604 0h-152v284h-228v-284h-154v696h154v-279h228v279h152v-696zM-123 445l-70 -28q-75 64 -75 120q0 74 128 92l39 -94q-63 -1 -63 -25q0 -19 41 -65zM-245 795q28 -1 73.5 -25
t59.5 -24q30 0 67 48l68 -40q-50 -109 -121 -109q-29 0 -76.5 23.5t-63.5 23.5q-37 0 -74 -50l-65 41q27 56 58 84t74 28z" />
    <glyph glyph-name="uni1FA0" unicode="&#x1fa0;" horiz-adv-x="757" 
d="M498 366l18 134q205 -6 205 -251q0 -116 -48.5 -184.5t-154.5 -68.5q-90 0 -132 76h-3q-44 -76 -127 -76q-216 0 -216 253q0 235 202 251l21 -134q-46 -7 -63 -35.5t-17 -86.5q0 -22 1.5 -37t6.5 -36.5t19.5 -33t36.5 -11.5q64 0 64 75v129h138v-129q0 -75 64 -75
q22 0 36.5 11.5t20 33t7 36.5t1.5 37q0 60 -15.5 89t-64.5 33zM399 525l-70 31q33 44 33 73q0 31 -66 43l38 110q139 -26 139 -121q0 -27 -18.5 -64.5t-55.5 -71.5zM323 -50h114v-74q0 -40 43 -40h25v-106h-55q-57 0 -92 28t-35 89v103z" />
    <glyph glyph-name="uni1FA1" unicode="&#x1fa1;" horiz-adv-x="757" 
d="M498 366l18 134q205 -6 205 -251q0 -116 -48.5 -184.5t-154.5 -68.5q-90 0 -132 76h-3q-44 -76 -127 -76q-216 0 -216 253q0 235 202 251l21 -134q-46 -7 -63 -35.5t-17 -86.5q0 -22 1.5 -37t6.5 -36.5t19.5 -33t36.5 -11.5q64 0 64 75v129h138v-129q0 -75 64 -75
q22 0 36.5 11.5t20 33t7 36.5t1.5 37q0 60 -15.5 89t-64.5 33zM439 556l-70 -31q-37 34 -55.5 71.5t-18.5 64.5q0 95 139 121l38 -110q-66 -12 -66 -43q0 -29 33 -73zM323 -50h114v-74q0 -40 43 -40h25v-106h-55q-57 0 -92 28t-35 89v103z" />
    <glyph glyph-name="uni1FA2" unicode="&#x1fa2;" horiz-adv-x="757" 
d="M498 366l18 134q205 -6 205 -251q0 -116 -48.5 -184.5t-154.5 -68.5q-90 0 -132 76h-3q-44 -76 -127 -76q-216 0 -216 253q0 235 202 251l21 -134q-46 -7 -63 -35.5t-17 -86.5q0 -22 1.5 -37t6.5 -36.5t19.5 -33t36.5 -11.5q64 0 64 75v129h138v-129q0 -75 64 -75
q22 0 36.5 11.5t20 33t7 36.5t1.5 37q0 60 -15.5 89t-64.5 33zM281 538l-69 32q34 48 34 73q0 31 -67 43l38 109q64 -12 101 -42.5t37 -78.5q0 -27 -18.5 -65t-55.5 -71zM578 567l-77 -30l-155 237l133 28zM323 -50h114v-74q0 -40 43 -40h25v-106h-55q-57 0 -92 28t-35 89
v103z" />
    <glyph glyph-name="uni1FA3" unicode="&#x1fa3;" horiz-adv-x="757" 
d="M498 366l18 134q205 -6 205 -251q0 -116 -48.5 -184.5t-154.5 -68.5q-90 0 -132 76h-3q-44 -76 -127 -76q-216 0 -216 253q0 235 202 251l21 -134q-46 -7 -63 -35.5t-17 -86.5q0 -22 1.5 -37t6.5 -36.5t19.5 -33t36.5 -11.5q64 0 64 75v129h138v-129q0 -75 64 -75
q22 0 36.5 11.5t20 33t7 36.5t1.5 37q0 60 -15.5 89t-64.5 33zM305 569l-68 -31q-37 34 -56 71.5t-19 63.5q0 48 37 78.5t101 42.5l39 -109q-67 -12 -67 -43q0 -27 33 -73zM574 567l-77 -30l-155 237l133 28zM323 -50h114v-74q0 -40 43 -40h25v-106h-55q-57 0 -92 28t-35 89
v103z" />
    <glyph glyph-name="uni1FA4" unicode="&#x1fa4;" horiz-adv-x="757" 
d="M498 366l18 134q205 -6 205 -251q0 -116 -48.5 -184.5t-154.5 -68.5q-90 0 -132 76h-3q-44 -76 -127 -76q-216 0 -216 253q0 235 202 251l21 -134q-46 -7 -63 -35.5t-17 -86.5q0 -22 1.5 -37t6.5 -36.5t19.5 -33t36.5 -11.5q64 0 64 75v129h138v-129q0 -75 64 -75
q22 0 36.5 11.5t20 33t7 36.5t1.5 37q0 60 -15.5 89t-64.5 33zM339 545l-69 32q33 42 33 73q0 30 -67 43l39 109q138 -25 138 -121q0 -27 -18.5 -65t-55.5 -71zM486 537l-77 30l99 235l133 -28zM323 -50h114v-74q0 -40 43 -40h25v-106h-55q-57 0 -92 28t-35 89v103z" />
    <glyph glyph-name="uni1FA5" unicode="&#x1fa5;" horiz-adv-x="757" 
d="M498 366l18 134q205 -6 205 -251q0 -116 -48.5 -184.5t-154.5 -68.5q-90 0 -132 76h-3q-44 -76 -127 -76q-216 0 -216 253q0 235 202 251l21 -134q-46 -7 -63 -35.5t-17 -86.5q0 -22 1.5 -37t6.5 -36.5t19.5 -33t36.5 -11.5q64 0 64 75v129h138v-129q0 -75 64 -75
q22 0 36.5 11.5t20 33t7 36.5t1.5 37q0 60 -15.5 89t-64.5 33zM358 576l-69 -32q-38 33 -56.5 71t-18.5 65q0 96 138 121l38 -109q-66 -13 -66 -43q0 -31 34 -73zM471 537l-77 30l99 235l133 -28zM323 -50h114v-74q0 -40 43 -40h25v-106h-55q-57 0 -92 28t-35 89v103z" />
    <glyph glyph-name="uni1FA6" unicode="&#x1fa6;" horiz-adv-x="757" 
d="M498 366l18 134q205 -6 205 -251q0 -116 -48.5 -184.5t-154.5 -68.5q-90 0 -132 76h-3q-44 -76 -127 -76q-216 0 -216 253q0 235 202 251l21 -134q-46 -7 -63 -35.5t-17 -86.5q0 -22 1.5 -37t6.5 -36.5t19.5 -33t36.5 -11.5q64 0 64 75v129h138v-129q0 -75 64 -75
q22 0 36.5 11.5t20 33t7 36.5t1.5 37q0 60 -15.5 89t-64.5 33zM392 529l-70 28q41 46 41 65q0 24 -63 25l39 94q128 -18 128 -92q0 -56 -75 -120zM320 894q28 -1 73.5 -25t59.5 -24q30 0 67 48l68 -40q-50 -109 -121 -109q-29 0 -76.5 23.5t-63.5 23.5q-37 0 -74 -50l-65 41
q27 56 58 84t74 28zM323 -50h114v-74q0 -40 43 -40h25v-106h-55q-57 0 -92 28t-35 89v103z" />
    <glyph glyph-name="uni1FA7" unicode="&#x1fa7;" horiz-adv-x="757" 
d="M498 366l18 134q205 -6 205 -251q0 -116 -48.5 -184.5t-154.5 -68.5q-90 0 -132 76h-3q-44 -76 -127 -76q-216 0 -216 253q0 235 202 251l21 -134q-46 -7 -63 -35.5t-17 -86.5q0 -22 1.5 -37t6.5 -36.5t19.5 -33t36.5 -11.5q64 0 64 75v129h138v-129q0 -75 64 -75
q22 0 36.5 11.5t20 33t7 36.5t1.5 37q0 60 -15.5 89t-64.5 33zM447 554l-70 -28q-75 64 -75 120q0 74 128 92l39 -94q-63 -1 -63 -25q0 -19 41 -65zM325 904q28 -1 73.5 -25t59.5 -24q30 0 67 48l68 -40q-50 -109 -121 -109q-29 0 -76.5 23.5t-63.5 23.5q-37 0 -74 -50
l-65 41q27 56 58 84t74 28zM323 -50h114v-74q0 -40 43 -40h25v-106h-55q-57 0 -92 28t-35 89v103z" />
    <glyph glyph-name="uni1FA8" unicode="&#x1fa8;" horiz-adv-x="939" 
d="M904 0h-65q-65 0 -106 31.5t-41 99.5v364h143v-321q0 -29 16.5 -39.5t32.5 -10.5h20v-124zM535 140l1 -2h63v-138h-255v145q39 10 60.5 40.5t21.5 72.5v186q0 48 -31.5 80.5t-85.5 32.5t-83.5 -33t-29.5 -80v-186q0 -42 21.5 -73.5t62.5 -40.5v-144h-254v138h60l1 5
q-46 45 -46 149v138q0 115 70 193t199 78q124 0 198.5 -76t74.5 -195v-138q0 -96 -48 -152zM-59 475l-70 31q33 44 33 73q0 31 -66 43l38 110q139 -26 139 -121q0 -27 -18.5 -64.5t-55.5 -71.5z" />
    <glyph glyph-name="uni1FA9" unicode="&#x1fa9;" horiz-adv-x="939" 
d="M904 0h-65q-65 0 -106 31.5t-41 99.5v364h143v-321q0 -29 16.5 -39.5t32.5 -10.5h20v-124zM535 140l1 -2h63v-138h-255v145q39 10 60.5 40.5t21.5 72.5v186q0 48 -31.5 80.5t-85.5 32.5t-83.5 -33t-29.5 -80v-186q0 -42 21.5 -73.5t62.5 -40.5v-144h-254v138h60l1 5
q-46 45 -46 149v138q0 115 70 193t199 78q124 0 198.5 -76t74.5 -195v-138q0 -96 -48 -152zM-17 506l-70 -31q-37 34 -55.5 71.5t-18.5 64.5q0 95 139 121l38 -110q-66 -12 -66 -43q0 -29 33 -73z" />
    <glyph glyph-name="uni1FAA" unicode="&#x1faa;" horiz-adv-x="939" 
d="M904 0h-65q-65 0 -106 31.5t-41 99.5v364h143v-321q0 -29 16.5 -39.5t32.5 -10.5h20v-124zM535 140l1 -2h63v-138h-255v145q39 10 60.5 40.5t21.5 72.5v186q0 48 -31.5 80.5t-85.5 32.5t-83.5 -33t-29.5 -80v-186q0 -42 21.5 -73.5t62.5 -40.5v-144h-254v138h60l1 5
q-46 45 -46 149v138q0 115 70 193t199 78q124 0 198.5 -76t74.5 -195v-138q0 -96 -48 -152zM-277 488l-69 32q34 48 34 73q0 31 -67 43l38 109q64 -12 101 -42.5t37 -78.5q0 -27 -18.5 -65t-55.5 -71zM20 517l-77 -30l-155 237l133 28z" />
    <glyph glyph-name="uni1FAB" unicode="&#x1fab;" horiz-adv-x="939" 
d="M904 0h-65q-65 0 -106 31.5t-41 99.5v364h143v-321q0 -29 16.5 -39.5t32.5 -10.5h20v-124zM535 140l1 -2h63v-138h-255v145q39 10 60.5 40.5t21.5 72.5v186q0 48 -31.5 80.5t-85.5 32.5t-83.5 -33t-29.5 -80v-186q0 -42 21.5 -73.5t62.5 -40.5v-144h-254v138h60l1 5
q-46 45 -46 149v138q0 115 70 193t199 78q124 0 198.5 -76t74.5 -195v-138q0 -96 -48 -152zM-250 519l-68 -31q-37 34 -56 71.5t-19 63.5q0 48 37 78.5t101 42.5l39 -109q-67 -12 -67 -43q0 -27 33 -73zM19 517l-77 -30l-155 237l133 28z" />
    <glyph glyph-name="uni1FAC" unicode="&#x1fac;" horiz-adv-x="939" 
d="M904 0h-65q-65 0 -106 31.5t-41 99.5v364h143v-321q0 -29 16.5 -39.5t32.5 -10.5h20v-124zM535 140l1 -2h63v-138h-255v145q39 10 60.5 40.5t21.5 72.5v186q0 48 -31.5 80.5t-85.5 32.5t-83.5 -33t-29.5 -80v-186q0 -42 21.5 -73.5t62.5 -40.5v-144h-254v138h60l1 5
q-46 45 -46 149v138q0 115 70 193t199 78q124 0 198.5 -76t74.5 -195v-138q0 -96 -48 -152zM-212 495l-69 32q33 42 33 73q0 30 -67 43l39 109q138 -25 138 -121q0 -27 -18.5 -65t-55.5 -71zM-65 487l-77 30l99 235l133 -28z" />
    <glyph glyph-name="uni1FAD" unicode="&#x1fad;" horiz-adv-x="939" 
d="M904 0h-65q-65 0 -106 31.5t-41 99.5v364h143v-321q0 -29 16.5 -39.5t32.5 -10.5h20v-124zM535 140l1 -2h63v-138h-255v145q39 10 60.5 40.5t21.5 72.5v186q0 48 -31.5 80.5t-85.5 32.5t-83.5 -33t-29.5 -80v-186q0 -42 21.5 -73.5t62.5 -40.5v-144h-254v138h60l1 5
q-46 45 -46 149v138q0 115 70 193t199 78q124 0 198.5 -76t74.5 -195v-138q0 -96 -48 -152zM-173 526l-69 -32q-38 33 -56.5 71t-18.5 65q0 96 138 121l38 -109q-66 -13 -66 -43q0 -31 34 -73zM-60 487l-77 30l99 235l133 -28z" />
    <glyph glyph-name="uni1FAE" unicode="&#x1fae;" horiz-adv-x="939" 
d="M904 0h-65q-65 0 -106 31.5t-41 99.5v364h143v-321q0 -29 16.5 -39.5t32.5 -10.5h20v-124zM535 140l1 -2h63v-138h-255v145q39 10 60.5 40.5t21.5 72.5v186q0 48 -31.5 80.5t-85.5 32.5t-83.5 -33t-29.5 -80v-186q0 -42 21.5 -73.5t62.5 -40.5v-144h-254v138h60l1 5
q-46 45 -46 149v138q0 115 70 193t199 78q124 0 198.5 -76t74.5 -195v-138q0 -96 -48 -152zM-109 418l-70 28q41 46 41 65q0 24 -63 25l39 94q128 -18 128 -92q0 -56 -75 -120zM-181 783q28 -1 73.5 -25t59.5 -24q30 0 67 48l68 -40q-50 -109 -121 -109q-29 0 -76.5 23.5
t-63.5 23.5q-37 0 -74 -50l-65 41q27 56 58 84t74 28z" />
    <glyph glyph-name="uni1FAF" unicode="&#x1faf;" horiz-adv-x="939" 
d="M904 0h-65q-65 0 -106 31.5t-41 99.5v364h143v-321q0 -29 16.5 -39.5t32.5 -10.5h20v-124zM535 140l1 -2h63v-138h-255v145q39 10 60.5 40.5t21.5 72.5v186q0 48 -31.5 80.5t-85.5 32.5t-83.5 -33t-29.5 -80v-186q0 -42 21.5 -73.5t62.5 -40.5v-144h-254v138h60l1 5
q-46 45 -46 149v138q0 115 70 193t199 78q124 0 198.5 -76t74.5 -195v-138q0 -96 -48 -152zM-52 444l-70 -28q-75 64 -75 120q0 74 128 92l39 -94q-63 -1 -63 -25q0 -19 41 -65zM-174 794q28 -1 73.5 -25t59.5 -24q30 0 67 48l68 -40q-50 -109 -121 -109q-29 0 -76.5 23.5
t-63.5 23.5q-37 0 -74 -50l-65 41q27 56 58 84t74 28z" />
    <glyph glyph-name="uni1FB0" unicode="&#x1fb0;" horiz-adv-x="533" 
d="M42 236q0 263 191 263q60 0 97 -40l3 1v35h142v-495h-142v39l-3 1q-17 -20 -45 -33t-53 -13q-190 0 -190 242zM188 246q0 -25 2 -42t8.5 -37.5t22.5 -31t40 -10.5q72 0 72 121q0 122 -72 122q-25 0 -41 -11t-22 -32t-8 -37.5t-2 -41.5zM264 561q-41 0 -71.5 16t-47.5 42
t-25.5 51t-11.5 52h100q0 -23 15 -45.5t41 -22.5t41 22.5t15 45.5h100q-3 -27 -11.5 -52t-25.5 -51t-47.5 -42t-71.5 -16z" />
    </font>
</defs>
</svg>
